{"glyphs":{"0":{"ha":1239,"x_min":135,"x_max":1103,"o":"m 387 -10 q 201 31 267 -10 q 135 201 135 72 l 135 779 q 205 943 135 904 q 387 982 274 982 l 851 982 q 1034 943 964 982 q 1103 779 1103 904 l 1103 201 q 1037 31 1103 72 q 851 -10 970 -10 l 387 -10 m 381 208 l 858 208 q 858 208 858 208 q 858 208 858 208 l 858 764 q 858 764 858 764 q 858 764 858 764 l 381 764 q 381 764 381 764 q 381 765 381 765 l 381 208 q 381 208 381 208 q 381 208 381 208 z "},"1":{"ha":644,"x_min":54,"x_max":489,"o":"m 244 0 l 244 751 l 54 741 l 54 906 l 489 985 l 489 0 l 244 0 z "},"2":{"ha":1178,"x_min":135,"x_max":1070,"o":"m 135 0 l 135 215 q 177 354 135 296 q 308 448 220 413 l 758 634 q 792 658 785 645 q 800 694 800 670 l 800 784 q 800 784 800 784 q 800 784 800 784 l 387 784 q 387 784 387 784 q 387 784 387 784 l 387 619 l 147 665 l 147 787 q 163 875 147 838 q 209 935 178 912 q 284 970 239 959 q 386 982 328 982 l 800 982 q 902 972 858 982 q 978 939 947 961 q 1024 880 1008 916 q 1040 792 1040 844 l 1040 683 q 1030 610 1040 642 q 999 551 1020 578 q 945 505 978 525 q 868 467 913 484 l 441 292 q 389 261 403 277 q 374 222 374 245 l 374 198 l 830 198 q 830 198 830 198 q 830 198 830 198 l 830 309 l 1070 268 l 1070 197 q 1005 38 1070 76 q 831 0 940 0 l 135 0 z "},"3":{"ha":1201,"x_min":135,"x_max":1066,"o":"m 135 269 l 360 310 l 360 192 q 360 192 360 192 q 360 192 360 192 l 768 192 q 820 211 800 192 q 840 260 840 230 l 840 342 q 822 387 840 370 q 774 404 803 404 l 508 404 l 508 581 l 754 581 q 802 598 783 581 q 821 643 821 615 l 821 715 q 801 763 821 745 q 751 781 781 781 l 369 781 q 369 781 369 781 q 369 781 369 781 l 369 650 l 143 691 l 143 797 q 158 878 143 844 q 201 936 172 913 q 275 970 231 959 q 378 982 319 982 l 801 982 q 908 969 862 982 q 985 929 954 956 q 1031 861 1015 902 q 1047 766 1047 821 l 1047 695 q 1008 559 1047 604 q 893 500 970 514 q 1018 448 969 494 q 1066 298 1066 402 l 1066 210 q 1047 107 1066 149 q 995 39 1028 65 q 917 2 963 13 q 817 -10 872 -10 l 370 -10 q 199 28 263 -10 q 135 183 135 66 l 135 269 z "},"4":{"ha":1167,"x_min":20,"x_max":1079,"o":"m 20 201 l 20 388 l 645 972 l 906 972 l 906 402 l 1079 402 l 1079 201 l 906 201 l 906 0 l 662 0 l 662 201 l 20 201 m 303 398 l 662 398 l 662 727 l 303 398 z "},"5":{"ha":1105,"x_min":86,"x_max":1019,"o":"m 539 -8 q 445 -7 498 -8 q 336 -1 392 -5 q 228 11 281 3 q 137 31 176 19 l 90 220 q 175 205 129 212 q 276 192 220 197 q 401 183 333 187 q 555 180 470 180 q 650 185 610 180 q 718 204 691 190 q 759 241 746 218 q 772 301 772 265 q 762 357 772 334 q 724 396 751 381 q 649 418 697 411 q 527 426 601 426 q 398 423 458 426 q 284 414 338 419 q 182 402 231 408 q 86 388 133 395 l 134 972 l 897 972 l 853 765 l 294 765 l 280 590 q 337 600 305 595 q 407 608 369 604 q 490 614 446 612 q 583 615 535 615 q 773 598 691 615 q 909 542 854 580 q 991 444 964 503 q 1019 302 1019 385 q 980 142 1019 203 q 874 47 940 81 q 720 3 808 14 q 539 -8 633 -8 z "},"6":{"ha":1163,"x_min":101,"x_max":1062,"o":"m 588 -10 q 347 -2 441 -10 q 198 38 253 5 q 122 140 143 72 q 101 332 101 209 q 137 601 101 481 q 247 807 172 722 q 436 939 321 892 q 710 985 551 985 q 765 984 744 985 q 794 981 786 983 l 913 801 q 892 804 905 803 q 864 806 879 805 q 831 807 848 806 q 796 807 813 807 q 580 784 667 807 q 442 706 494 761 q 369 559 390 651 q 347 327 347 467 q 359 250 347 278 q 399 208 370 222 q 474 190 427 194 q 593 187 522 187 q 712 192 667 187 q 780 209 756 197 q 809 245 803 222 q 816 304 816 268 q 806 363 816 341 q 770 397 796 385 q 699 413 744 409 q 586 417 655 417 q 490 413 544 417 q 383 403 437 410 q 282 389 330 397 q 201 370 234 380 l 201 535 q 285 564 238 551 q 383 586 332 577 q 488 601 435 596 q 590 606 541 606 q 804 598 715 606 q 951 559 894 590 q 1035 470 1008 529 q 1062 310 1062 412 q 1043 135 1062 199 q 971 39 1024 71 q 826 -2 918 6 q 588 -10 734 -10 z "},"7":{"ha":999,"x_min":45,"x_max":978,"o":"m 45 646 l 45 972 l 978 972 l 978 790 l 581 0 l 310 0 l 713 771 l 281 771 l 281 602 l 45 646 z "},"8":{"ha":1250,"x_min":122,"x_max":1128,"o":"m 361 257 q 381 207 361 226 q 435 187 401 187 l 815 187 q 869 207 849 187 q 889 257 889 226 l 889 328 q 884 355 889 343 q 870 374 879 366 q 849 387 862 383 q 821 392 837 392 l 428 392 q 400 387 413 392 q 379 374 388 383 q 366 355 370 366 q 361 328 361 343 l 361 257 m 867 719 q 848 767 867 749 q 797 785 828 785 l 454 785 q 402 767 422 785 q 382 719 382 749 l 382 649 q 401 605 382 622 q 451 588 419 588 l 799 588 q 849 605 831 588 q 867 649 867 622 l 867 719 m 122 199 l 122 305 q 169 445 122 406 q 297 494 216 484 q 181 552 219 506 q 142 672 142 599 l 142 781 q 201 928 142 874 q 380 982 260 982 l 870 982 q 1049 928 990 982 q 1108 782 1108 874 l 1108 672 q 1069 552 1108 599 q 953 494 1030 506 q 1081 446 1033 485 q 1128 306 1128 408 l 1128 200 q 1057 35 1128 80 q 876 -10 985 -10 l 374 -10 q 274 0 320 -10 q 194 35 228 10 q 141 99 160 59 q 122 199 122 140 z "},"9":{"ha":1183,"x_min":104,"x_max":1065,"o":"m 578 983 q 820 968 726 983 q 969 910 915 953 q 1044 791 1024 867 q 1065 592 1065 715 q 1029 324 1065 438 q 918 135 993 210 q 729 25 844 61 q 457 -11 615 -11 q 403 -10 426 -11 q 372 -8 381 -9 l 253 172 q 272 170 260 171 q 299 168 284 169 q 332 167 315 167 q 370 167 350 167 q 590 186 503 167 q 727 256 676 206 q 799 393 778 306 q 819 616 819 480 q 807 711 819 676 q 765 765 794 747 q 689 789 736 783 q 573 794 642 794 q 456 790 500 794 q 389 773 412 785 q 358 737 365 760 q 350 677 350 714 q 359 620 350 642 q 393 585 368 598 q 463 568 418 573 q 580 564 508 564 q 678 568 624 564 q 785 578 732 572 q 886 593 838 585 q 965 611 933 602 l 965 439 q 887 411 931 424 q 791 389 842 398 q 685 374 740 379 q 576 368 631 368 q 352 378 442 368 q 206 420 261 389 q 128 510 151 452 q 104 663 104 568 q 124 830 104 767 q 196 926 143 892 q 341 972 249 960 q 578 983 433 983 z "},"\u0000":{"ha":694,"x_min":0,"x_max":0,"o":""},"\r":{"ha":0,"x_min":0,"x_max":0,"o":""}," ":{"ha":433,"x_min":0,"x_max":0,"o":""}," ":{"ha":433,"x_min":0,"x_max":0,"o":""}," ":{"ha":694,"x_min":0,"x_max":0,"o":""},"​":{"ha":0,"x_min":0,"x_max":0,"o":""}," ":{"ha":231,"x_min":0,"x_max":0,"o":""},"﻿":{"ha":0,"x_min":0,"x_max":0,"o":""},"A":{"ha":1219,"x_min":0,"x_max":1219,"o":"m 0 0 l 500 972 l 714 972 l 1219 0 l 931 0 l 833 196 l 363 196 l 262 0 l 0 0 m 459 383 l 742 383 l 602 661 l 459 383 z "},"B":{"ha":1165,"x_min":135,"x_max":1084,"o":"m 135 0 l 135 972 l 824 972 q 927 962 881 972 q 1006 926 974 951 q 1056 858 1038 901 q 1073 751 1073 815 l 1073 694 q 1041 571 1073 619 q 943 499 1009 523 q 1050 422 1017 476 q 1084 283 1084 367 l 1084 222 q 1067 115 1084 158 q 1018 46 1050 72 q 939 10 985 21 q 835 0 893 0 l 135 0 m 381 197 l 771 197 q 822 211 805 197 q 838 257 838 226 l 838 338 q 822 385 838 372 q 771 399 805 399 l 381 399 l 381 197 m 381 590 l 763 590 q 814 604 797 590 q 831 652 831 617 l 831 716 q 814 762 831 747 q 763 777 797 777 l 381 777 l 381 590 z "},"C":{"ha":1174,"x_min":115,"x_max":1089,"o":"m 115 779 q 177 937 115 892 q 367 982 239 982 l 831 982 q 1022 937 960 982 q 1083 779 1083 892 l 1083 648 l 838 603 l 838 768 q 838 768 838 768 q 838 768 838 768 l 361 768 q 361 768 361 768 q 361 768 361 768 l 361 204 q 361 204 361 204 q 361 204 361 204 l 843 204 q 843 204 843 204 q 843 204 843 204 l 843 388 l 1089 340 l 1089 201 q 1028 36 1089 83 q 835 -10 968 -10 l 367 -10 q 175 36 235 -10 q 115 201 115 83 l 115 779 z "},"D":{"ha":1288,"x_min":135,"x_max":1215,"o":"m 381 210 l 694 210 q 811 225 761 210 q 894 274 861 240 q 944 361 928 308 q 961 492 961 415 q 944 618 961 567 q 893 702 927 669 q 810 748 860 734 q 694 763 760 763 l 381 763 l 381 210 m 135 0 l 135 972 l 736 972 q 927 942 840 972 q 1078 852 1015 913 q 1178 700 1142 792 q 1215 486 1215 609 q 1177 263 1215 356 q 1074 113 1139 171 q 922 27 1010 54 q 736 0 835 0 l 135 0 z "},"E":{"ha":1139,"x_min":135,"x_max":1062,"o":"m 135 0 l 135 972 l 1048 972 l 1048 766 l 381 766 l 381 594 l 780 594 l 780 399 l 381 399 l 381 206 l 1062 206 l 1062 0 l 135 0 z "},"F":{"ha":1079,"x_min":135,"x_max":1031,"o":"m 135 0 l 135 972 l 1031 972 l 1031 763 l 381 763 l 381 579 l 743 579 l 743 369 l 381 369 l 381 0 l 135 0 z "},"G":{"ha":1248,"x_min":115,"x_max":1139,"o":"m 115 779 q 177 937 115 892 q 367 982 239 982 l 882 982 q 1073 937 1011 982 q 1135 779 1135 892 l 1135 715 l 889 665 l 889 776 q 889 776 889 776 q 889 776 889 776 l 361 776 q 361 776 361 776 q 361 776 361 776 l 361 197 q 361 197 361 197 q 361 197 361 197 l 893 197 q 893 197 893 197 q 893 197 893 197 l 893 376 l 625 376 l 625 572 l 1139 572 l 1139 201 q 1078 36 1139 83 q 886 -10 1018 -10 l 367 -10 q 175 36 235 -10 q 115 201 115 83 l 115 779 z "},"H":{"ha":1315,"x_min":135,"x_max":1180,"o":"m 135 0 l 135 972 l 381 972 l 381 615 l 934 615 l 934 972 l 1180 972 l 1180 0 l 934 0 l 934 397 l 381 397 l 381 0 l 135 0 z "},"I":{"ha":515,"x_min":135,"x_max":381,"o":"m 135 0 l 135 972 l 381 972 l 381 0 l 135 0 z "},"J":{"ha":1099,"x_min":70,"x_max":974,"o":"m 974 972 l 974 193 q 912 35 974 80 q 722 -10 851 -10 l 324 -10 q 132 35 194 -10 q 70 193 70 80 l 70 417 l 316 467 l 316 204 q 316 204 316 204 q 316 204 316 204 l 728 204 q 728 204 728 204 q 728 204 728 204 l 728 972 l 974 972 z "},"K":{"ha":1228,"x_min":135,"x_max":1228,"o":"m 1132 972 l 635 512 l 635 524 l 1228 0 l 868 0 l 328 490 l 381 490 l 381 0 l 135 0 l 135 972 l 381 972 l 381 512 l 340 512 l 825 972 l 1132 972 z "},"L":{"ha":999,"x_min":135,"x_max":980,"o":"m 135 0 l 135 972 l 381 972 l 381 218 l 980 218 l 980 0 l 135 0 z "},"M":{"ha":1420,"x_min":135,"x_max":1285,"o":"m 135 0 l 135 972 l 351 972 l 713 445 l 1065 972 l 1285 972 l 1285 0 l 1040 0 l 1040 595 l 696 82 l 349 587 l 349 0 l 135 0 z "},"N":{"ha":1319,"x_min":135,"x_max":1185,"o":"m 135 0 l 135 972 l 321 972 l 957 363 l 957 972 l 1185 972 l 1185 0 l 999 0 l 363 604 l 363 0 l 135 0 z "},"O":{"ha":1298,"x_min":115,"x_max":1183,"o":"m 115 779 q 185 943 115 904 q 367 982 255 982 l 929 982 q 1113 943 1042 982 q 1183 779 1183 904 l 1183 201 q 1116 31 1183 72 q 929 -10 1049 -10 l 367 -10 q 182 31 248 -10 q 115 201 115 72 l 115 779 m 361 764 l 361 208 q 361 208 361 208 q 361 208 361 208 l 937 208 q 937 208 937 208 q 937 208 937 208 l 937 764 q 937 764 937 764 q 937 764 937 764 l 361 764 q 361 764 361 764 q 361 764 361 764 z "},"P":{"ha":1138,"x_min":135,"x_max":1084,"o":"m 135 0 l 135 972 l 831 972 q 1014 933 944 972 q 1084 769 1084 894 l 1084 522 q 1068 434 1084 470 q 1019 375 1051 397 q 940 342 988 352 q 831 333 892 333 l 381 333 l 381 0 l 135 0 m 381 542 l 772 542 q 822 555 806 542 q 838 603 838 568 l 838 701 q 822 748 838 733 q 772 763 806 763 l 381 763 l 381 542 z "},"Q":{"ha":1298,"x_min":115,"x_max":1183,"o":"m 115 779 q 185 943 115 904 q 367 982 255 982 l 929 982 q 1113 943 1042 982 q 1183 779 1183 904 l 1183 201 q 1116 31 1183 72 q 929 -10 1049 -10 l 367 -10 q 182 31 248 -10 q 115 201 115 72 l 115 779 m 361 764 l 361 208 q 361 208 361 208 q 361 208 361 208 l 937 208 q 937 208 937 208 q 937 208 937 208 l 937 764 q 937 764 937 764 q 937 764 937 764 l 361 764 q 361 764 361 764 q 361 764 361 764 m 778 -196 l 572 335 l 731 403 l 1005 -196 l 778 -196 z "},"R":{"ha":1193,"x_min":135,"x_max":1167,"o":"m 135 0 l 135 972 l 827 972 q 1010 933 940 972 q 1080 769 1080 894 l 1080 554 q 1024 412 1080 459 q 858 361 968 365 l 816 361 l 1167 0 l 854 0 l 519 349 l 381 349 l 381 0 l 135 0 m 381 554 l 771 554 q 820 567 803 554 q 836 615 836 581 l 836 701 q 820 748 836 733 q 771 763 803 763 l 381 763 l 381 554 z "},"S":{"ha":1153,"x_min":79,"x_max":1067,"o":"m 79 262 l 313 298 l 313 188 q 313 188 313 188 q 313 188 313 188 l 832 188 q 832 188 832 188 q 832 188 832 188 l 832 392 q 832 392 832 392 q 832 392 832 392 l 351 392 q 246 401 292 392 q 167 433 199 410 q 117 498 134 456 q 100 603 100 539 l 100 780 q 118 883 100 843 q 170 944 137 922 q 250 974 203 967 q 352 982 297 982 l 801 982 q 903 974 857 982 q 983 944 950 967 q 1034 883 1016 922 q 1053 781 1053 844 l 1053 716 l 818 681 l 818 784 q 818 784 818 784 q 818 784 818 784 l 334 784 q 334 784 334 784 q 334 784 334 784 l 334 590 q 334 590 334 590 q 334 590 334 590 l 814 590 q 917 583 871 590 q 997 553 963 575 q 1048 492 1030 531 q 1067 390 1067 453 l 1067 201 q 999 30 1067 70 q 814 -10 932 -10 l 330 -10 q 225 -1 272 -10 q 146 30 178 7 q 96 94 113 53 q 79 200 79 135 l 79 262 z "},"T":{"ha":1026,"x_min":20,"x_max":1006,"o":"m 390 0 l 390 754 l 20 754 l 20 972 l 1006 972 l 1006 754 l 635 754 l 635 0 l 390 0 z "},"U":{"ha":1226,"x_min":125,"x_max":1101,"o":"m 125 972 l 371 972 l 371 213 q 371 213 371 213 q 371 213 371 213 l 855 213 q 855 213 855 213 q 855 213 855 213 l 855 972 l 1101 972 l 1101 201 q 1033 30 1101 70 q 848 -10 966 -10 l 376 -10 q 272 -1 319 -10 q 192 30 225 7 q 142 94 160 53 q 125 201 125 135 l 125 972 z "},"V":{"ha":1168,"x_min":0,"x_max":1168,"o":"m 488 0 l 0 972 l 287 972 l 599 310 l 905 972 l 1168 972 l 697 0 l 488 0 z "},"W":{"ha":1467,"x_min":0,"x_max":1467,"o":"m 331 0 l 0 972 l 272 972 l 455 384 l 643 972 l 841 972 l 1031 381 l 1222 972 l 1467 972 l 1133 0 l 922 0 l 731 576 l 541 0 l 331 0 z "},"X":{"ha":1134,"x_min":0,"x_max":1134,"o":"m 6 0 l 400 492 l 0 972 l 319 972 l 563 668 l 799 972 l 1074 972 l 716 514 l 1134 0 l 817 0 l 553 334 l 288 0 l 6 0 z "},"Y":{"ha":1156,"x_min":0,"x_max":1156,"o":"m 465 0 l 465 420 l 0 972 l 326 972 l 596 620 l 866 972 l 1156 972 l 710 422 l 710 0 l 465 0 z "},"Z":{"ha":1047,"x_min":55,"x_max":982,"o":"m 55 0 l 55 95 l 604 767 l 607 760 l 115 760 l 115 972 l 978 972 l 978 877 l 429 206 l 426 212 l 982 212 l 982 0 l 55 0 z "},"a":{"ha":985,"x_min":91,"x_max":878,"o":"m 272 -7 q 140 23 190 -7 q 91 145 91 52 l 91 272 q 152 389 91 362 q 292 417 213 417 l 650 417 l 650 541 q 650 541 650 541 q 650 541 650 541 l 333 541 q 333 541 333 541 q 333 541 333 541 l 333 487 l 105 528 l 105 557 q 155 677 105 649 q 286 706 205 706 l 697 706 q 828 678 778 706 q 878 554 878 649 l 878 0 l 650 0 l 650 104 q 581 17 632 40 q 464 -7 531 -7 l 272 -7 m 322 149 q 322 149 322 149 q 322 149 322 149 l 650 149 l 650 269 l 322 269 q 322 269 322 269 q 322 269 322 269 l 322 149 z "},"b":{"ha":1017,"x_min":115,"x_max":919,"o":"m 115 -1 l 115 1010 l 343 1010 l 343 631 q 403 689 360 670 q 517 707 446 707 l 731 707 q 867 678 815 707 q 919 556 919 649 l 919 152 q 869 24 919 56 q 731 -8 819 -8 l 517 -8 q 403 11 446 -8 q 343 70 360 31 l 343 -1 l 115 -1 m 343 181 l 691 181 q 691 181 691 181 q 691 181 691 181 l 691 519 q 691 519 691 519 q 691 519 691 519 l 343 519 l 343 181 z "},"c":{"ha":971,"x_min":98,"x_max":897,"o":"m 98 153 l 98 553 q 143 671 98 635 q 290 706 188 706 l 703 706 q 850 671 807 706 q 894 554 894 636 l 894 478 l 666 435 l 666 519 q 666 519 666 519 q 666 519 666 519 l 326 519 q 326 519 326 519 q 326 519 326 519 l 326 181 q 326 181 326 181 q 326 181 326 181 l 669 181 q 669 181 669 181 q 669 181 669 181 l 669 270 l 897 223 l 897 153 q 853 30 897 66 q 705 -7 810 -7 l 290 -7 q 141 30 185 -7 q 98 153 98 66 z "},"d":{"ha":1022,"x_min":98,"x_max":908,"o":"m 98 152 l 98 554 q 142 670 98 635 q 286 706 186 706 l 506 706 q 619 688 576 706 q 679 629 663 669 l 679 1010 l 908 1010 l 908 0 l 679 0 l 679 70 q 619 12 663 31 q 506 -7 576 -7 l 286 -7 q 141 30 185 -7 q 98 152 98 67 m 679 519 l 326 519 q 326 519 326 519 q 326 519 326 519 l 326 181 q 326 181 326 181 q 326 181 326 181 l 679 181 l 679 519 z "},"e":{"ha":993,"x_min":98,"x_max":895,"o":"m 98 184 l 98 538 q 149 664 98 622 q 312 706 201 706 l 676 706 q 842 664 788 706 q 895 535 895 621 l 895 280 l 326 280 l 326 155 q 326 155 326 155 q 326 155 326 155 l 667 155 q 667 155 667 155 q 667 155 667 155 l 667 224 l 895 185 l 895 177 q 839 35 895 77 q 654 -7 783 -7 l 325 -7 q 152 37 207 -7 q 98 184 98 81 m 326 425 l 667 425 l 667 544 q 667 544 667 544 q 667 544 667 544 l 326 544 q 326 544 326 544 q 326 544 326 544 l 326 425 z "},"f":{"ha":598,"x_min":55,"x_max":601,"o":"m 133 0 l 133 538 l 55 538 l 55 699 l 133 699 l 133 826 q 182 967 133 923 q 329 1010 232 1010 l 601 1010 l 568 849 l 360 849 q 360 849 360 849 q 360 849 360 849 l 360 699 l 569 699 l 569 538 l 360 538 l 360 0 l 133 0 z "},"g":{"ha":1014,"x_min":98,"x_max":908,"o":"m 326 191 q 326 191 326 191 q 326 191 326 191 l 679 191 l 679 517 l 326 517 q 326 517 326 517 q 326 517 326 517 l 326 191 m 148 -297 l 110 -116 l 679 -116 q 679 -116 679 -116 q 679 -116 679 -116 l 679 80 q 619 22 663 41 q 506 3 576 3 l 286 3 q 141 40 185 3 q 98 162 98 76 l 98 552 q 142 668 98 633 q 286 704 186 704 l 506 704 q 619 685 576 704 q 679 628 663 667 l 679 699 l 908 699 l 908 -106 q 896 -202 908 -165 q 860 -261 885 -240 q 796 -290 835 -282 q 700 -297 757 -297 l 148 -297 z "},"h":{"ha":985,"x_min":115,"x_max":879,"o":"m 115 0 l 115 1010 l 343 1010 l 343 634 q 411 688 365 670 q 540 706 458 706 l 648 706 q 825 663 771 706 q 879 522 879 620 l 879 0 l 651 0 l 651 508 q 651 508 651 508 q 651 508 651 508 l 343 508 l 343 0 l 115 0 z "},"ı":{"ha":458,"x_min":115,"x_max":343,"o":"m 115 0 l 115 699 l 343 699 l 343 0 l 115 0 z "},"i":{"ha":472,"x_min":115,"x_max":356,"o":"m 122 0 l 122 699 l 350 699 l 350 0 l 122 0 m 115 855 l 115 922 q 124 978 115 969 q 181 987 133 987 l 290 987 q 348 978 339 987 q 356 922 356 969 l 356 855 q 348 797 356 806 q 290 788 339 788 l 181 788 q 124 797 133 788 q 115 855 115 806 z "},"ȷ":{"ha":464,"x_min":-231,"x_max":349,"o":"m -231 -117 l 121 -117 q 121 -117 121 -117 q 121 -117 121 -117 l 121 699 l 349 699 l 349 -106 q 336 -206 349 -168 q 299 -264 324 -243 q 234 -291 273 -284 q 142 -297 195 -297 l -192 -297 l -231 -117 z "},"j":{"ha":458,"x_min":-233,"x_max":353,"o":"m -233 -117 l 117 -117 q 117 -117 117 -117 q 117 -117 117 -117 l 117 699 l 346 699 l 346 -106 q 333 -206 346 -168 q 295 -264 321 -243 q 231 -291 270 -284 q 139 -297 192 -297 l -194 -297 l -233 -117 m 111 855 l 111 922 q 120 978 111 969 q 178 987 128 987 l 286 987 q 344 978 335 987 q 353 922 353 969 l 353 855 q 344 797 353 806 q 286 788 335 788 l 178 788 q 120 797 128 788 q 111 855 111 806 z "},"k":{"ha":1038,"x_min":115,"x_max":1035,"o":"m 115 0 l 115 1010 l 343 1010 l 343 383 l 322 383 l 671 699 l 951 699 l 597 381 l 594 392 l 1035 0 l 702 0 l 312 360 l 343 360 l 343 0 l 115 0 z "},"l":{"ha":458,"x_min":115,"x_max":343,"o":"m 115 0 l 115 1010 l 343 1010 l 343 0 l 115 0 z "},"m":{"ha":1408,"x_min":115,"x_max":1302,"o":"m 115 0 l 115 699 l 343 699 l 343 634 q 411 688 365 670 q 540 706 458 706 l 592 706 q 720 689 656 706 q 810 605 785 672 q 874 681 825 656 q 1019 706 922 706 l 1071 706 q 1248 663 1194 706 q 1302 522 1302 620 l 1302 0 l 1074 0 l 1074 508 q 1074 508 1074 508 q 1074 508 1074 508 l 822 508 l 822 0 l 594 0 l 594 508 l 343 508 l 343 0 l 115 0 z "},"n":{"ha":985,"x_min":115,"x_max":879,"o":"m 115 0 l 115 699 l 343 699 l 343 634 q 411 688 365 670 q 540 706 458 706 l 648 706 q 825 663 771 706 q 879 522 879 620 l 879 0 l 651 0 l 651 508 q 651 508 651 508 q 651 508 651 508 l 343 508 l 343 0 l 115 0 z "},"o":{"ha":1005,"x_min":98,"x_max":907,"o":"m 98 152 l 98 554 q 142 670 98 635 q 286 706 186 706 l 719 706 q 863 670 819 706 q 907 554 907 635 l 907 152 q 864 30 907 67 q 719 -7 821 -7 l 286 -7 q 141 30 185 -7 q 98 152 98 67 m 326 181 q 326 181 326 181 q 326 181 326 181 l 678 181 q 678 181 678 181 q 678 181 678 181 l 678 519 q 678 519 678 519 q 678 519 678 519 l 326 519 q 326 519 326 519 q 326 519 326 519 l 326 181 z "},"p":{"ha":1022,"x_min":115,"x_max":924,"o":"m 115 -297 l 115 699 l 343 699 l 343 629 q 403 688 360 669 q 517 706 446 706 l 736 706 q 881 669 838 706 q 924 547 924 633 l 924 145 q 880 29 924 65 q 736 -7 836 -7 l 517 -7 q 403 12 446 -7 q 343 70 360 31 l 343 -297 l 115 -297 m 343 183 l 696 183 q 696 183 696 183 q 696 183 696 183 l 696 517 q 696 517 696 517 q 696 517 696 517 l 343 517 l 343 183 z "},"q":{"ha":1022,"x_min":98,"x_max":908,"o":"m 98 152 l 98 554 q 142 670 98 635 q 286 706 186 706 l 506 706 q 619 688 576 706 q 679 629 663 669 l 679 699 l 908 699 l 908 -297 l 679 -297 l 679 70 q 619 12 663 31 q 506 -7 576 -7 l 286 -7 q 141 30 185 -7 q 98 152 98 67 m 326 183 q 326 183 326 183 q 326 183 326 183 l 679 183 l 679 519 l 326 519 q 326 519 326 519 q 326 519 326 519 l 326 183 z "},"r":{"ha":849,"x_min":115,"x_max":811,"o":"m 115 0 l 115 699 l 343 699 l 343 634 q 411 688 365 670 q 540 706 458 706 l 580 706 q 685 696 641 706 q 757 663 728 685 q 798 606 785 641 q 811 522 811 572 l 811 465 l 583 426 l 583 508 q 583 508 583 508 q 583 508 583 508 l 343 508 l 343 0 l 115 0 z "},"s":{"ha":935,"x_min":91,"x_max":844,"o":"m 91 176 l 303 215 l 303 149 q 303 149 303 149 q 303 149 303 149 l 629 149 q 629 149 629 149 q 629 149 629 149 l 629 269 q 629 269 629 269 q 629 269 629 269 l 286 269 q 152 302 201 269 q 104 429 104 335 l 104 556 q 159 677 104 647 q 296 706 215 706 l 656 706 q 785 676 737 706 q 833 563 833 647 l 833 531 l 621 493 l 621 551 q 621 551 621 551 q 621 551 621 551 l 319 551 q 319 551 319 551 q 319 551 319 551 l 319 437 q 319 437 319 437 q 319 437 319 437 l 660 437 q 793 410 743 437 q 844 290 844 383 l 844 147 q 795 22 844 51 q 660 -7 747 -7 l 273 -7 q 139 23 188 -7 q 91 142 91 52 l 91 176 z "},"t":{"ha":625,"x_min":46,"x_max":581,"o":"m 345 -7 q 200 29 243 -7 q 157 150 157 65 l 157 538 l 46 538 l 46 699 l 157 699 l 157 864 l 385 864 l 385 699 l 581 699 l 581 538 l 385 538 l 385 155 q 385 155 385 155 q 385 155 385 155 l 569 155 l 539 -7 l 345 -7 z "},"u":{"ha":980,"x_min":106,"x_max":874,"o":"m 106 137 l 106 699 l 335 699 l 335 189 q 335 189 335 189 q 335 189 335 189 l 645 189 q 645 189 645 189 q 645 189 645 189 l 645 699 l 874 699 l 874 137 q 828 22 874 49 q 703 -5 783 -5 l 276 -5 q 151 22 196 -5 q 106 137 106 49 z "},"v":{"ha":894,"x_min":3,"x_max":891,"o":"m 353 0 l 3 699 l 254 699 l 463 256 l 673 699 l 891 699 l 553 0 l 353 0 z "},"w":{"ha":1240,"x_min":3,"x_max":1238,"o":"m 269 0 l 3 699 l 240 699 l 389 265 l 535 699 l 732 699 l 882 265 l 1030 699 l 1238 699 l 969 0 l 765 0 l 622 414 l 482 0 l 269 0 z "},"x":{"ha":892,"x_min":3,"x_max":889,"o":"m 3 0 l 301 347 l 6 699 l 292 699 l 449 493 l 615 699 l 872 699 l 578 356 l 889 0 l 594 0 l 430 206 l 264 0 l 3 0 z "},"y":{"ha":874,"x_min":3,"x_max":872,"o":"m 58 -297 l 21 -117 l 262 -117 q 262 -117 262 -117 q 262 -117 262 -117 l 335 38 l 3 699 l 260 699 l 454 292 l 646 699 l 872 699 l 466 -147 q 425 -219 446 -190 q 376 -266 403 -249 q 310 -290 348 -283 q 219 -297 272 -297 l 58 -297 z "},"z":{"ha":827,"x_min":50,"x_max":777,"o":"m 50 0 l 50 88 l 435 531 l 431 519 l 92 519 l 92 699 l 773 699 l 773 612 l 388 165 l 392 180 l 777 180 l 777 0 l 50 0 z "},"&":{"ha":1195,"x_min":34,"x_max":1195,"o":"m 219 -7 q 143 5 177 -7 q 84 36 109 16 q 47 86 60 57 q 34 150 34 115 l 34 329 q 53 409 34 375 q 113 472 72 443 l 303 600 q 273 638 285 619 q 252 675 260 656 q 241 717 244 694 q 238 766 238 739 l 238 793 q 289 933 238 883 q 435 982 340 982 l 658 982 q 813 933 757 982 q 869 799 869 885 l 869 709 l 665 672 l 665 792 q 665 792 665 792 q 665 792 665 792 l 463 792 q 463 792 463 792 q 463 792 463 792 l 463 735 q 463 735 463 735 q 463 735 463 735 l 794 401 l 983 576 l 1120 438 l 933 265 l 1195 0 l 886 0 l 769 117 l 713 65 q 672 31 692 44 q 630 9 651 17 q 582 -3 608 1 q 522 -7 556 -7 l 219 -7 m 255 190 l 560 190 q 560 190 560 190 q 560 190 560 190 l 631 255 l 436 451 l 255 327 q 255 327 255 327 q 255 327 255 327 l 255 190 q 255 190 255 190 q 255 190 255 190 z "},"!":{"ha":551,"x_min":122,"x_max":430,"o":"m 140 82 l 140 140 q 153 212 140 199 q 227 225 166 225 l 323 225 q 398 213 385 225 q 410 139 410 200 l 410 82 q 398 8 410 20 q 323 -5 385 -5 l 227 -5 q 153 8 166 -5 q 140 82 140 20 m 183 321 l 122 972 l 430 972 l 368 321 l 183 321 z "},"¡":{"ha":551,"x_min":122,"x_max":430,"o":"m 410 613 l 410 555 q 398 482 410 494 q 324 469 385 469 l 228 469 q 153 482 167 469 q 140 556 140 494 l 140 613 q 153 686 140 674 q 228 699 167 699 l 324 699 q 398 686 385 699 q 410 613 410 674 m 368 374 l 430 -278 l 122 -278 l 183 374 l 368 374 z "},"?":{"ha":935,"x_min":67,"x_max":826,"o":"m 326 321 l 326 444 q 355 535 326 499 q 448 582 385 572 l 565 602 q 603 624 592 609 q 614 672 614 640 l 614 794 q 614 794 614 794 q 614 794 614 794 l 281 794 q 281 794 281 794 q 281 794 281 794 l 281 674 l 67 712 l 67 800 q 122 940 67 897 q 301 982 176 982 l 594 982 q 773 940 719 982 q 826 800 826 899 l 826 610 q 788 493 826 537 q 658 437 749 450 l 578 427 q 538 410 544 419 q 533 383 533 400 l 533 321 l 326 321 m 293 82 l 293 140 q 306 212 293 199 q 381 225 319 225 l 476 225 q 551 213 538 225 q 564 139 564 200 l 564 82 q 551 8 564 20 q 476 -5 538 -5 l 381 -5 q 306 8 319 -5 q 293 82 293 20 z "},"¿":{"ha":935,"x_min":108,"x_max":867,"o":"m 608 383 l 608 259 q 579 168 608 205 q 487 122 550 131 l 369 101 q 332 79 343 94 q 320 32 320 64 l 320 -90 q 320 -90 320 -90 q 320 -90 320 -90 l 653 -90 q 653 -90 653 -90 q 653 -90 653 -90 l 653 29 l 867 -8 l 867 -96 q 813 -236 867 -194 q 633 -278 759 -278 l 341 -278 q 161 -236 215 -278 q 108 -97 108 -194 l 108 94 q 146 210 108 167 q 276 267 185 254 l 356 277 q 397 294 391 285 q 402 322 402 304 l 402 383 l 608 383 m 641 622 l 641 565 q 628 492 641 504 q 554 479 616 479 l 458 479 q 384 492 397 479 q 371 565 371 504 l 371 622 q 384 696 371 683 q 458 709 397 709 l 554 709 q 628 696 616 709 q 641 622 641 683 z "},"(":{"ha":478,"x_min":86,"x_max":471,"o":"m 471 -178 l 315 -178 q 149 77 213 -80 q 86 419 86 233 q 103 598 86 513 q 150 760 119 684 q 222 901 180 837 q 315 1016 264 966 l 471 1016 q 394 898 428 965 q 338 756 361 832 q 303 594 315 679 q 291 419 291 509 q 303 245 291 330 q 338 83 315 160 q 394 -59 361 7 q 471 -178 428 -126 z "},")":{"ha":478,"x_min":7,"x_max":391,"o":"m 7 1016 l 163 1016 q 328 762 265 919 q 391 419 391 605 q 374 240 391 326 q 328 78 358 154 q 256 -62 298 2 q 163 -178 214 -127 l 7 -178 q 83 -60 50 -126 q 140 83 117 6 q 175 244 163 159 q 187 419 187 329 q 175 593 187 508 q 140 755 163 678 q 83 898 117 832 q 7 1016 50 965 z "},"[":{"ha":594,"x_min":135,"x_max":554,"o":"m 135 -178 l 135 1006 l 554 1006 l 554 824 l 346 824 l 346 3 l 554 3 l 554 -178 l 135 -178 z "},"]":{"ha":594,"x_min":40,"x_max":460,"o":"m 460 1006 l 460 -178 l 40 -178 l 40 3 l 249 3 l 249 824 l 40 824 l 40 1006 l 460 1006 z "},"{":{"ha":626,"x_min":67,"x_max":606,"o":"m 203 13 l 203 203 q 171 293 203 260 q 67 326 140 326 l 67 503 q 171 536 140 503 q 203 626 203 570 l 203 808 q 259 954 203 903 q 410 1006 315 1006 l 606 1006 l 606 824 l 499 824 q 433 806 453 824 q 414 747 414 787 l 414 609 q 378 482 414 531 q 275 415 342 433 q 378 347 342 396 q 414 220 414 298 l 414 81 q 433 22 414 41 q 499 3 453 3 l 606 3 l 606 -178 l 410 -178 q 259 -127 315 -178 q 203 13 203 -76 z "},"}":{"ha":626,"x_min":20,"x_max":559,"o":"m 424 815 l 424 625 q 455 535 424 568 q 559 501 487 501 l 559 325 q 455 291 487 325 q 424 201 424 258 l 424 19 q 367 -126 424 -75 q 217 -178 311 -178 l 20 -178 l 20 3 l 128 3 q 193 22 174 3 q 213 81 213 41 l 213 219 q 248 345 213 297 q 351 413 284 394 q 248 481 284 432 q 213 608 213 530 l 213 747 q 193 806 213 787 q 128 824 174 824 l 20 824 l 20 1006 l 217 1006 q 367 955 311 1006 q 424 815 424 904 z "},"*":{"ha":708,"x_min":122,"x_max":586,"o":"m 299 545 l 301 688 l 181 608 l 124 692 l 258 775 l 122 860 l 182 948 l 301 869 l 299 1010 l 409 1010 l 406 866 l 527 947 l 585 863 l 451 779 l 586 695 l 525 608 l 406 688 l 409 545 l 299 545 z "},"#":{"ha":793,"x_min":46,"x_max":740,"o":"m 46 202 l 74 395 l 688 395 l 660 202 l 46 202 m 99 578 l 126 771 l 740 771 l 713 578 l 99 578 m 125 0 l 263 972 l 408 972 l 270 0 l 125 0 m 378 0 l 516 972 l 661 972 l 524 0 l 378 0 z "},"%":{"ha":1703,"x_min":108,"x_max":1595,"o":"m 257 426 q 148 447 188 426 q 108 543 108 468 l 108 874 q 150 966 108 947 q 257 985 192 985 l 538 985 q 645 966 602 985 q 688 874 688 947 l 688 543 q 647 447 688 467 q 538 426 607 426 l 257 426 m 266 565 l 530 565 q 530 565 530 565 q 530 565 530 565 l 530 847 q 530 847 530 847 q 530 847 530 847 l 266 847 q 266 847 266 847 q 266 847 266 847 l 266 565 q 266 565 266 565 q 266 565 266 565 m 447 0 l 1089 972 l 1258 972 l 616 0 l 447 0 m 1165 -7 q 1055 14 1095 -7 q 1015 110 1015 35 l 1015 441 q 1057 532 1015 513 q 1165 551 1099 551 l 1445 551 q 1552 532 1510 551 q 1595 441 1595 513 l 1595 110 q 1555 14 1595 34 q 1445 -7 1515 -7 l 1165 -7 m 1173 131 l 1438 131 q 1438 131 1438 131 q 1438 131 1438 131 l 1438 413 q 1438 413 1438 413 q 1438 413 1438 413 l 1173 413 q 1173 413 1173 413 q 1173 413 1173 413 l 1173 131 q 1173 131 1173 131 q 1173 131 1173 131 z "},"‰":{"ha":2429,"x_min":108,"x_max":2322,"o":"m 257 426 q 148 447 188 426 q 108 543 108 468 l 108 874 q 150 966 108 947 q 257 985 192 985 l 538 985 q 645 966 602 985 q 688 874 688 947 l 688 543 q 647 447 688 467 q 538 426 607 426 l 257 426 m 266 565 l 530 565 q 530 565 530 565 q 530 565 530 565 l 530 847 q 530 847 530 847 q 530 847 530 847 l 266 847 q 266 847 266 847 q 266 847 266 847 l 266 565 q 266 565 266 565 q 266 565 266 565 m 447 0 l 1089 972 l 1258 972 l 616 0 l 447 0 m 1165 -7 q 1055 14 1095 -7 q 1015 110 1015 35 l 1015 441 q 1057 532 1015 513 q 1165 551 1099 551 l 1445 551 q 1552 532 1510 551 q 1595 441 1595 513 l 1595 110 q 1555 14 1595 34 q 1445 -7 1515 -7 l 1165 -7 m 1173 131 l 1438 131 q 1438 131 1438 131 q 1438 131 1438 131 l 1438 413 q 1438 413 1438 413 q 1438 413 1438 413 l 1173 413 q 1173 413 1173 413 q 1173 413 1173 413 l 1173 131 q 1173 131 1173 131 q 1173 131 1173 131 m 1891 -7 q 1781 14 1821 -7 q 1742 110 1742 35 l 1742 441 q 1784 532 1742 513 q 1891 551 1826 551 l 2171 551 q 2278 532 2235 551 q 2322 441 2322 513 l 2322 110 q 2281 14 2322 34 q 2171 -7 2241 -7 l 1891 -7 m 1899 131 l 2163 131 q 2163 131 2163 131 q 2163 131 2163 131 l 2163 413 q 2163 413 2163 413 q 2163 413 2163 413 l 1899 413 q 1899 413 1899 413 q 1899 413 1899 413 l 1899 131 q 1899 131 1899 131 q 1899 131 1899 131 z "},"/":{"ha":706,"x_min":60,"x_max":646,"o":"m 447 993 l 646 993 l 259 -69 l 60 -69 l 447 993 z "},"\\":{"ha":706,"x_min":60,"x_max":646,"o":"m 259 993 l 646 -69 l 447 -69 l 60 993 l 259 993 z "},"⁄":{"ha":112,"x_min":-350,"x_max":462,"o":"m -350 0 l 292 972 l 462 972 l -181 0 l -350 0 z "},"⁒":{"ha":1001,"x_min":53,"x_max":948,"o":"m 53 801 l 53 892 q 66 964 53 951 q 140 977 78 977 l 235 977 q 310 965 297 977 q 323 891 323 952 l 323 801 q 310 727 323 740 q 235 715 297 715 l 140 715 q 66 727 78 715 q 53 801 53 740 m 737 972 l 906 972 l 264 0 l 94 0 l 737 972 m 678 82 l 678 172 q 691 244 678 232 q 765 257 703 257 l 860 257 q 935 244 922 257 q 948 172 948 232 l 948 82 q 935 8 948 20 q 860 -5 922 -5 l 765 -5 q 690 8 703 -5 q 678 82 678 20 z "},"-":{"ha":710,"x_min":94,"x_max":615,"o":"m 94 516 l 615 516 l 615 322 l 94 322 l 94 516 z "},"‐":{"ha":710,"x_min":94,"x_max":615,"o":"m 94 516 l 615 516 l 615 322 l 94 322 l 94 516 z "},"–":{"ha":694,"x_min":0,"x_max":694,"o":"m 0 516 l 694 516 l 694 322 l 0 322 l 0 516 z "},"—":{"ha":1389,"x_min":0,"x_max":1389,"o":"m 0 516 l 1389 516 l 1389 322 l 0 322 l 0 516 z "},"_":{"ha":490,"x_min":0,"x_max":490,"o":"m 0 -233 l 0 -82 l 490 -82 l 490 -233 l 0 -233 z "},"̵":{"ha":710,"x_min":94,"x_max":615,"o":"m 94 516 l 615 516 l 615 322 l 94 322 l 94 516 z "},"|":{"ha":464,"x_min":135,"x_max":329,"o":"m 135 1056 l 329 1056 l 329 -333 l 135 -333 l 135 1056 z "},"¦":{"ha":464,"x_min":135,"x_max":329,"o":"m 135 1056 l 329 1056 l 329 500 l 135 500 l 135 1056 m 135 222 l 329 222 l 329 -333 l 135 -333 l 135 222 z "},"‖":{"ha":694,"x_min":135,"x_max":560,"o":"m 135 -333 l 135 1056 l 291 1056 l 291 -333 l 135 -333 m 403 -333 l 403 1056 l 560 1056 l 560 -333 l 403 -333 z "},"·":{"ha":487,"x_min":122,"x_max":366,"o":"m 122 378 l 122 449 q 134 523 122 510 q 208 535 147 535 l 278 535 q 353 523 340 535 q 366 449 366 510 l 366 378 q 353 304 366 317 q 278 291 340 291 l 208 291 q 134 303 147 291 q 122 378 122 316 z "},"•":{"ha":591,"x_min":135,"x_max":456,"o":"m 135 341 l 135 490 q 148 563 135 551 q 222 576 160 576 l 368 576 q 443 564 430 576 q 456 490 456 551 l 456 341 q 443 267 456 280 q 368 254 430 254 l 222 254 q 148 267 160 254 q 135 341 135 279 z "},"∙":{"ha":487,"x_min":122,"x_max":366,"o":"m 122 378 l 122 449 q 134 523 122 510 q 208 535 147 535 l 278 535 q 353 523 340 535 q 366 449 366 510 l 366 378 q 353 304 366 317 q 278 291 340 291 l 208 291 q 134 303 147 291 q 122 378 122 316 z "},".":{"ha":513,"x_min":122,"x_max":392,"o":"m 122 82 l 122 172 q 134 244 122 232 q 208 257 147 257 l 304 257 q 379 244 366 257 q 392 172 392 232 l 392 82 q 379 8 392 20 q 304 -5 366 -5 l 208 -5 q 134 8 147 -5 q 122 82 122 20 z "},"…":{"ha":1540,"x_min":122,"x_max":1418,"o":"m 122 82 l 122 172 q 134 244 122 232 q 208 257 147 257 l 304 257 q 379 244 366 257 q 392 172 392 232 l 392 82 q 379 8 392 20 q 304 -5 366 -5 l 208 -5 q 134 8 147 -5 q 122 82 122 20 m 635 82 l 635 172 q 648 244 635 232 q 722 257 660 257 l 817 257 q 892 244 879 257 q 905 172 905 232 l 905 82 q 892 8 905 20 q 817 -5 879 -5 l 722 -5 q 647 8 660 -5 q 635 82 635 20 m 1148 82 l 1148 172 q 1160 244 1148 232 q 1235 257 1173 257 l 1331 257 q 1405 244 1392 257 q 1418 172 1418 232 l 1418 82 q 1405 8 1418 20 q 1331 -5 1392 -5 l 1235 -5 q 1160 8 1173 -5 q 1148 82 1148 20 z "},",":{"ha":513,"x_min":122,"x_max":392,"o":"m 228 -219 l 140 -194 l 236 0 l 208 0 q 134 13 147 0 q 122 87 122 26 l 122 172 q 134 244 122 232 q 208 257 147 257 l 305 257 q 379 244 367 257 q 392 172 392 232 l 392 87 q 386 34 392 55 q 364 -11 380 14 l 228 -219 z "},":":{"ha":513,"x_min":122,"x_max":392,"o":"m 122 82 l 122 158 q 123 205 122 188 q 134 230 125 222 q 160 241 143 239 q 208 243 178 243 l 304 243 q 352 241 335 243 q 378 230 369 239 q 389 205 387 222 q 392 157 392 188 l 392 82 q 390 34 392 51 q 378 8 388 17 q 352 -3 369 -1 q 304 -5 335 -5 l 208 -5 q 160 -3 178 -5 q 134 8 143 -1 q 123 34 125 17 q 122 82 122 51 m 122 545 l 122 621 q 123 668 122 651 q 134 693 125 685 q 160 704 143 702 q 208 706 178 706 l 304 706 q 352 704 335 706 q 378 693 369 702 q 389 668 387 685 q 392 620 392 651 l 392 545 q 390 497 392 515 q 378 471 388 480 q 352 460 369 462 q 304 458 335 458 l 208 458 q 160 460 178 458 q 134 471 143 462 q 123 497 125 480 q 122 545 122 515 z "},";":{"ha":513,"x_min":122,"x_max":392,"o":"m 140 -192 l 244 17 l 383 19 l 228 -217 l 140 -192 m 122 89 l 122 157 q 134 230 122 217 q 208 243 147 243 l 304 243 q 379 231 366 243 q 392 157 392 218 l 392 89 q 379 15 392 27 q 304 2 366 2 l 208 2 q 134 15 147 2 q 122 89 122 27 m 122 545 l 122 621 q 134 693 122 681 q 208 706 147 706 l 304 706 q 379 694 366 706 q 392 620 392 681 l 392 545 q 379 471 392 484 q 304 458 366 458 l 208 458 q 134 471 147 458 q 122 545 122 483 z "},"'":{"ha":492,"x_min":122,"x_max":371,"o":"m 122 848 l 122 926 q 131 997 122 987 q 190 1008 140 1008 l 302 1008 q 362 997 353 1008 q 371 926 371 987 l 371 848 l 303 569 l 189 569 l 122 848 z "},"\"":{"ha":863,"x_min":122,"x_max":741,"o":"m 122 868 l 122 947 q 131 1017 122 1007 q 190 1028 140 1028 l 302 1028 q 362 1017 353 1028 q 371 947 371 1007 l 371 868 l 303 590 l 189 590 l 122 868 m 492 868 l 492 947 q 501 1017 492 1007 q 560 1028 510 1028 l 672 1028 q 732 1017 723 1028 q 741 947 741 1007 l 741 868 l 674 590 l 560 590 l 492 868 z "},"‘":{"ha":513,"x_min":122,"x_max":392,"o":"m 285 1041 l 373 1016 l 276 822 l 305 822 q 379 810 367 822 q 392 735 392 797 l 392 651 q 379 578 392 591 q 305 565 366 565 l 208 565 q 134 578 147 565 q 122 651 122 590 l 122 735 q 127 788 122 767 q 149 833 133 808 l 285 1041 z "},"’":{"ha":513,"x_min":122,"x_max":392,"o":"m 228 563 l 140 588 l 236 782 l 208 782 q 134 795 147 782 q 122 869 122 808 l 122 953 q 134 1026 122 1014 q 208 1039 147 1039 l 305 1039 q 379 1027 367 1039 q 392 953 392 1015 l 392 869 q 386 816 392 837 q 364 771 380 796 l 228 563 z "},"‚":{"ha":513,"x_min":122,"x_max":392,"o":"m 228 -219 l 140 -194 l 236 0 l 208 0 q 134 13 147 0 q 122 87 122 26 l 122 172 q 134 244 122 232 q 208 257 147 257 l 305 257 q 379 244 367 257 q 392 172 392 232 l 392 87 q 386 34 392 55 q 364 -11 380 14 l 228 -219 z "},"“":{"ha":905,"x_min":122,"x_max":783,"o":"m 285 1041 l 373 1016 l 276 822 l 305 822 q 379 810 367 822 q 392 735 392 797 l 392 651 q 379 578 392 591 q 305 565 366 565 l 208 565 q 134 578 147 565 q 122 651 122 590 l 122 735 q 127 788 122 767 q 149 833 133 808 l 285 1041 m 676 1041 l 765 1016 l 669 822 l 697 822 q 771 810 758 822 q 783 735 783 797 l 783 651 q 771 578 783 591 q 697 565 758 565 l 600 565 q 526 578 538 565 q 513 651 513 590 l 513 735 q 519 788 513 767 q 541 833 525 808 l 676 1041 z "},"”":{"ha":905,"x_min":122,"x_max":783,"o":"m 228 563 l 140 588 l 236 782 l 208 782 q 134 795 147 782 q 122 869 122 808 l 122 953 q 134 1026 122 1014 q 208 1039 147 1039 l 305 1039 q 379 1027 367 1039 q 392 953 392 1015 l 392 869 q 386 816 392 837 q 364 771 380 796 l 228 563 m 620 563 l 532 588 l 628 782 l 600 782 q 526 795 538 782 q 513 869 513 808 l 513 953 q 526 1026 513 1014 q 600 1039 539 1039 l 697 1039 q 771 1027 758 1039 q 783 953 783 1015 l 783 869 q 777 816 783 837 q 756 771 772 796 l 620 563 z "},"„":{"ha":905,"x_min":122,"x_max":783,"o":"m 228 -219 l 140 -194 l 236 0 l 208 0 q 134 13 147 0 q 122 87 122 26 l 122 172 q 134 244 122 232 q 208 257 147 257 l 305 257 q 379 244 367 257 q 392 172 392 232 l 392 87 q 386 34 392 55 q 364 -11 380 14 l 228 -219 m 620 -219 l 532 -194 l 628 0 l 600 0 q 526 13 538 0 q 513 87 513 26 l 513 172 q 526 244 513 232 q 600 257 539 257 l 697 257 q 771 244 758 257 q 783 172 783 232 l 783 87 q 777 34 783 55 q 756 -11 772 14 l 620 -219 z "},"ʼ":{"ha":513,"x_min":122,"x_max":392,"o":"m 228 563 l 140 588 l 236 782 l 208 782 q 134 795 147 782 q 122 869 122 808 l 122 953 q 134 1026 122 1014 q 208 1039 147 1039 l 305 1039 q 379 1027 367 1039 q 392 953 392 1015 l 392 869 q 386 816 392 837 q 364 771 380 796 l 228 563 z "},"′":{"ha":448,"x_min":101,"x_max":351,"o":"m 149 926 q 164 973 158 956 q 179 997 170 989 q 202 1006 188 1005 q 242 1008 217 1008 l 289 1008 q 345 997 340 1008 q 333 926 351 987 l 156 569 l 101 569 l 149 926 z "},"″":{"ha":897,"x_min":101,"x_max":799,"o":"m 149 926 q 164 973 158 956 q 179 997 170 989 q 202 1006 188 1005 q 242 1008 217 1008 l 289 1008 q 345 997 340 1008 q 333 926 351 987 l 156 569 l 101 569 l 149 926 m 597 926 q 613 973 606 956 q 628 997 619 989 q 651 1006 637 1005 q 690 1008 665 1008 l 737 1008 q 793 997 788 1008 q 781 926 799 987 l 603 569 l 549 569 l 597 926 z "},"ʹ":{"ha":448,"x_min":101,"x_max":351,"o":"m 149 926 q 164 973 158 956 q 179 997 170 989 q 202 1006 188 1005 q 242 1008 217 1008 l 289 1008 q 345 997 340 1008 q 333 926 351 987 l 156 569 l 101 569 l 149 926 z "},"ʺ":{"ha":897,"x_min":101,"x_max":799,"o":"m 149 926 q 164 973 158 956 q 179 997 170 989 q 202 1006 188 1005 q 242 1008 217 1008 l 289 1008 q 345 997 340 1008 q 333 926 351 987 l 156 569 l 101 569 l 149 926 m 597 926 q 613 973 606 956 q 628 997 619 989 q 651 1006 637 1005 q 690 1008 665 1008 l 737 1008 q 793 997 788 1008 q 781 926 799 987 l 603 569 l 549 569 l 597 926 z "},"‹":{"ha":434,"x_min":46,"x_max":390,"o":"m 215 90 l 46 350 l 215 609 l 390 609 l 220 350 l 390 90 l 215 90 z "},"›":{"ha":434,"x_min":44,"x_max":388,"o":"m 219 609 l 388 350 l 219 90 l 44 90 l 214 350 l 44 609 l 219 609 z "},"«":{"ha":729,"x_min":46,"x_max":685,"o":"m 215 90 l 46 350 l 215 609 l 390 609 l 220 350 l 390 90 l 215 90 m 510 90 l 341 350 l 510 609 l 685 609 l 515 350 l 685 90 l 510 90 z "},"»":{"ha":729,"x_min":44,"x_max":683,"o":"m 513 609 l 683 350 l 513 90 l 339 90 l 508 350 l 339 609 l 513 609 m 219 609 l 388 350 l 219 90 l 44 90 l 214 350 l 44 609 l 219 609 z "},"ʻ":{"ha":513,"x_min":122,"x_max":392,"o":"m 285 1041 l 373 1016 l 276 822 l 305 822 q 379 810 367 822 q 392 735 392 797 l 392 651 q 379 578 392 591 q 305 565 366 565 l 208 565 q 134 578 147 565 q 122 651 122 590 l 122 735 q 127 788 122 767 q 149 833 133 808 l 285 1041 z "},"̒":{"ha":0,"x_min":-99,"x_max":99,"o":"m 21 1108 l 85 1090 l 15 944 l 35 944 q 90 935 81 944 q 99 879 99 925 l 99 819 q 90 764 99 774 q 35 755 81 755 l -34 755 q -90 764 -81 755 q -99 819 -99 774 l -99 879 q -97 914 -99 899 q -90 936 -95 928 l 21 1108 z "},"̦":{"ha":0,"x_min":-99,"x_max":99,"o":"m -21 -441 l -85 -423 l -15 -277 l -35 -277 q -90 -267 -81 -277 q -99 -212 -99 -258 l -99 -152 q -90 -97 -99 -106 q -35 -87 -81 -87 l 34 -87 q 90 -97 81 -87 q 99 -152 99 -106 l 99 -212 q 97 -246 99 -232 q 90 -269 95 -260 l -21 -441 z "},"´":{"ha":521,"x_min":35,"x_max":486,"o":"m 35 756 l 249 1006 l 486 1006 l 237 756 l 35 756 z "},"́":{"ha":0,"x_min":-169,"x_max":283,"o":"m -169 756 l 46 1006 l 283 1006 l 33 756 l -169 756 z "},"˝":{"ha":853,"x_min":69,"x_max":783,"o":"m 69 756 l 257 1006 l 458 1006 l 242 756 l 69 756 m 394 756 l 581 1006 l 783 1006 l 567 756 l 394 756 z "},"̋":{"ha":0,"x_min":-264,"x_max":450,"o":"m -264 756 l -77 1006 l 125 1006 l -92 756 l -264 756 m 61 756 l 248 1006 l 450 1006 l 233 756 l 61 756 z "},"`":{"ha":521,"x_min":35,"x_max":486,"o":"m 285 756 l 35 1006 l 272 1006 l 486 756 l 285 756 z "},"̀":{"ha":0,"x_min":-283,"x_max":169,"o":"m -33 756 l -283 1006 l -46 1006 l 169 756 l -33 756 z "},"̏":{"ha":0,"x_min":-450,"x_max":264,"o":"m 92 756 l -125 1006 l 77 1006 l 264 756 l 92 756 m -233 756 l -450 1006 l -248 1006 l -61 756 l -233 756 z "},"^":{"ha":712,"x_min":7,"x_max":705,"o":"m 7 590 l 278 972 l 433 972 l 705 590 l 508 590 l 353 856 l 199 590 l 7 590 z "},"ˆ":{"ha":640,"x_min":35,"x_max":606,"o":"m 35 756 l 243 1006 l 398 1006 l 606 756 l 408 756 l 318 894 l 227 756 l 35 756 z "},"̂":{"ha":0,"x_min":-285,"x_max":285,"o":"m -285 756 l -76 1006 l 78 1006 l 285 756 l 88 756 l -2 894 l -92 756 l -285 756 z "},"ˇ":{"ha":640,"x_min":35,"x_max":606,"o":"m 242 754 l 35 1003 l 232 1003 l 322 867 l 413 1003 l 606 1003 l 397 754 l 242 754 z "},"̌":{"ha":0,"x_min":-285,"x_max":286,"o":"m -77 754 l -285 1003 l -87 1003 l 3 867 l 94 1003 l 286 1003 l 78 754 l -77 754 z "},"~":{"ha":1001,"x_min":88,"x_max":913,"o":"m 88 326 q 129 423 102 384 q 191 485 156 462 q 268 519 226 509 q 352 529 309 529 q 441 516 399 529 q 520 487 483 503 q 592 458 558 472 q 656 445 626 445 q 690 450 674 445 q 719 464 706 455 q 742 487 733 474 q 755 518 751 501 l 913 490 q 872 393 899 432 q 809 330 844 353 q 733 296 774 306 q 649 286 692 286 q 560 300 601 286 q 480 329 518 313 q 409 358 442 344 q 344 372 375 372 q 310 367 326 372 q 281 352 294 362 q 259 330 268 343 q 246 299 250 316 l 88 326 z "},"˜":{"ha":663,"x_min":35,"x_max":628,"o":"m 35 798 q 105 940 53 899 q 224 981 157 981 q 288 972 258 981 q 341 952 317 963 q 388 933 366 942 q 430 924 410 924 q 469 938 453 924 q 492 981 486 951 l 628 957 q 558 816 610 858 q 439 774 507 774 q 376 783 405 774 q 322 802 347 792 q 276 822 297 813 q 234 831 254 831 q 194 817 210 831 q 172 774 178 803 l 35 798 z "},"̃":{"ha":0,"x_min":-297,"x_max":297,"o":"m -297 798 q -227 940 -278 899 q -108 981 -175 981 q -44 972 -74 981 q 10 952 -15 963 q 56 933 35 942 q 98 924 78 924 q 138 938 122 924 q 160 981 154 951 l 297 957 q 227 816 278 858 q 108 774 175 774 q 44 783 74 774 q -10 802 15 792 q -56 822 -35 813 q -98 831 -78 831 q -138 817 -122 831 q -160 774 -154 803 l -297 798 z "},"¨":{"ha":535,"x_min":20,"x_max":515,"o":"m 87 788 q 29 797 38 788 q 20 855 20 806 l 20 910 q 29 967 20 958 q 87 976 38 976 l 145 976 q 202 967 194 976 q 211 910 211 958 l 211 855 q 202 797 211 806 q 145 788 194 788 l 87 788 m 391 788 q 333 797 342 788 q 324 855 324 806 l 324 910 q 333 967 324 958 q 391 976 342 976 l 449 976 q 507 967 498 976 q 515 910 515 958 l 515 855 q 507 797 515 806 q 449 788 498 788 l 391 788 z "},"̈":{"ha":0,"x_min":-248,"x_max":248,"o":"m -181 788 q -239 797 -230 788 q -248 855 -248 806 l -248 910 q -239 967 -248 958 q -181 976 -230 976 l -123 976 q -65 967 -74 976 q -56 910 -56 958 l -56 855 q -65 797 -56 806 q -123 788 -74 788 l -181 788 m 123 788 q 65 797 74 788 q 56 855 56 806 l 56 910 q 65 967 56 958 q 123 976 74 976 l 181 976 q 239 967 230 976 q 248 910 248 958 l 248 855 q 239 797 248 806 q 181 788 230 788 l 123 788 z "},"̤":{"ha":0,"x_min":-248,"x_max":248,"o":"m -181 -272 q -239 -262 -230 -272 q -248 -205 -248 -253 l -248 -149 q -239 -93 -248 -101 q -181 -84 -230 -84 l -123 -84 q -65 -93 -74 -84 q -56 -149 -56 -101 l -56 -205 q -65 -262 -56 -253 q -123 -272 -74 -272 l -181 -272 m 123 -272 q 65 -262 74 -272 q 56 -205 56 -253 l 56 -149 q 65 -93 56 -101 q 123 -84 74 -84 l 181 -84 q 239 -93 230 -84 q 248 -149 248 -101 l 248 -205 q 239 -262 248 -253 q 181 -272 230 -272 l 123 -272 z "},"¯":{"ha":530,"x_min":20,"x_max":510,"o":"m 20 817 l 20 951 l 510 951 l 510 817 l 20 817 z "},"̄":{"ha":0,"x_min":-245,"x_max":245,"o":"m -245 817 l -245 951 l 245 951 l 245 817 l -245 817 z "},"̱":{"ha":0,"x_min":-245,"x_max":245,"o":"m -245 -215 l -245 -81 l 245 -81 l 245 -215 l -245 -215 z "},"¸":{"ha":306,"x_min":20,"x_max":286,"o":"m 139 -304 q 73 -295 102 -304 q 20 -269 44 -286 l 51 -214 q 74 -223 58 -219 q 106 -226 90 -226 q 141 -215 128 -226 q 154 -184 154 -204 q 141 -154 154 -164 q 107 -144 128 -144 q 77 -147 92 -144 q 47 -155 62 -149 l 117 0 l 184 0 l 153 -69 q 210 -77 185 -69 q 252 -99 235 -85 q 277 -134 269 -113 q 286 -181 286 -154 q 275 -235 286 -212 q 244 -274 264 -258 q 198 -297 225 -289 q 139 -304 171 -304 z "},"̧":{"ha":0,"x_min":-135,"x_max":131,"o":"m -17 -304 q -81 -296 -52 -304 q -135 -269 -110 -287 l -105 -214 q -81 -223 -97 -219 q -51 -226 -65 -226 q -14 -215 -27 -226 q -1 -184 -1 -204 q -14 -155 -1 -165 q -51 -144 -27 -144 q -79 -147 -64 -144 q -110 -155 -94 -150 l -33 10 l 0 10 l 33 10 l -3 -69 q 97 -99 63 -70 q 131 -181 131 -127 q 92 -272 131 -240 q -17 -304 53 -304 z "},"˚":{"ha":347,"x_min":20,"x_max":327,"o":"m 174 751 q 94 756 124 751 q 48 777 64 762 q 26 818 31 792 q 20 888 20 845 q 26 958 20 931 q 48 1000 31 985 q 94 1020 64 1015 q 174 1025 124 1025 q 252 1020 222 1025 q 299 1000 282 1015 q 321 958 315 985 q 327 888 327 931 q 321 818 327 845 q 299 777 315 792 q 252 756 282 762 q 174 751 222 751 m 174 841 q 212 851 203 841 q 221 888 221 861 q 212 925 221 915 q 174 935 203 935 q 134 925 142 935 q 126 888 126 915 q 134 851 126 861 q 174 841 142 841 z "},"̊":{"ha":0,"x_min":-153,"x_max":153,"o":"m 0 751 q -79 756 -49 751 q -126 777 -109 762 q -148 818 -142 792 q -153 888 -153 845 q -148 958 -153 931 q -126 1000 -142 985 q -79 1020 -109 1015 q 0 1025 -49 1025 q 79 1020 49 1025 q 125 1000 109 1015 q 148 958 142 985 q 153 888 153 931 q 148 818 153 845 q 125 777 142 792 q 79 756 109 762 q 0 751 49 751 m 0 841 q 39 851 31 841 q 47 888 47 861 q 39 925 47 915 q 0 935 31 935 q -39 925 -31 935 q -47 888 -47 915 q -39 851 -47 861 q 0 841 -31 841 z "},"˘":{"ha":478,"x_min":20,"x_max":458,"o":"m 240 765 q 130 776 172 765 q 63 812 87 786 q 29 882 38 838 q 20 990 20 925 l 150 990 q 153 940 150 960 q 167 909 157 920 q 194 893 177 898 q 240 888 212 888 q 284 893 267 888 q 311 909 301 898 q 324 940 321 920 q 328 990 328 960 l 458 990 q 449 882 458 925 q 416 812 440 838 q 349 776 392 786 q 240 765 307 765 z "},"̆":{"ha":0,"x_min":-219,"x_max":219,"o":"m 1 765 q -110 776 -67 765 q -177 812 -153 786 q -210 882 -201 838 q -219 990 -219 925 l -89 990 q -85 940 -89 960 q -72 909 -82 920 q -44 893 -62 898 q 1 888 -27 888 q 45 893 28 888 q 72 909 62 898 q 85 940 82 920 q 89 990 89 960 l 219 990 q 210 882 219 925 q 177 812 201 838 q 110 776 153 786 q 1 765 68 765 z "},"̮":{"ha":0,"x_min":-219,"x_max":218,"o":"m 0 -294 q -111 -283 -68 -294 q -178 -247 -153 -273 q -211 -178 -202 -221 q -219 -69 -219 -135 l -90 -69 q -86 -119 -90 -100 q -73 -150 -83 -139 q -45 -166 -62 -161 q 0 -171 -28 -171 q 44 -166 27 -171 q 71 -150 61 -161 q 85 -119 81 -139 q 88 -69 88 -100 l 218 -69 q 209 -178 218 -135 q 176 -247 201 -221 q 110 -283 152 -273 q 0 -294 67 -294 z "},"̑":{"ha":0,"x_min":-219,"x_max":219,"o":"m -219 765 l -89 765 q -85 815 -89 796 q -72 846 -82 835 q -44 861 -62 857 q 1 866 -27 866 q 45 861 28 866 q 72 846 62 857 q 85 815 82 835 q 89 765 89 796 l 219 765 q 210 874 219 831 q 177 942 201 917 q 110 979 153 968 q 1 990 68 990 q -110 979 -67 990 q -177 942 -153 968 q -210 874 -201 917 q -219 765 -219 831 z "},"˙":{"ha":238,"x_min":20,"x_max":217,"o":"m 87 792 q 29 800 38 792 q 20 857 20 809 l 20 915 q 29 971 20 963 q 87 979 38 979 l 151 979 q 209 971 200 979 q 217 915 217 963 l 217 857 q 209 800 217 809 q 151 792 200 792 l 87 792 z "},"̇":{"ha":0,"x_min":-99,"x_max":99,"o":"m -32 792 q -90 800 -81 792 q -99 857 -99 809 l -99 915 q -90 971 -99 963 q -32 979 -81 979 l 32 979 q 90 971 81 979 q 99 915 99 963 l 99 857 q 90 800 99 809 q 32 792 81 792 l -32 792 z "},"̣":{"ha":0,"x_min":-99,"x_max":99,"o":"m -32 -258 q -90 -250 -81 -258 q -99 -193 -99 -241 l -99 -136 q -90 -79 -99 -87 q -32 -71 -81 -71 l 32 -71 q 90 -79 81 -71 q 99 -136 99 -87 l 99 -193 q 90 -250 99 -241 q 32 -258 81 -258 l -32 -258 z "},"˛":{"ha":402,"x_min":20,"x_max":382,"o":"m 201 -299 q 72 -266 123 -299 q 20 -163 20 -233 q 51 -68 20 -111 q 135 0 81 -24 l 307 0 q 229 -30 259 -6 q 199 -90 199 -54 q 224 -135 199 -122 q 283 -149 249 -149 q 333 -143 308 -149 q 382 -127 358 -137 l 353 -267 q 281 -291 320 -283 q 201 -299 242 -299 z "},"̨":{"ha":0,"x_min":-181,"x_max":181,"o":"m -1 -299 q -130 -266 -78 -299 q -181 -163 -181 -233 q -150 -68 -181 -111 q -67 0 -119 -24 l 106 0 q 28 -30 58 -6 q -2 -90 -2 -54 q 23 -135 -2 -122 q 82 -149 47 -149 q 132 -143 107 -149 q 181 -127 157 -137 l 151 -267 q 80 -291 119 -283 q -1 -299 41 -299 z "},"̉":{"ha":0,"x_min":-144,"x_max":148,"o":"m -65 764 q -21 794 -39 777 q -3 835 -3 812 q -16 870 -3 858 q -50 883 -28 883 q -81 878 -67 883 q -105 868 -94 874 l -144 944 q -80 982 -115 968 q -1 995 -44 995 q 107 963 67 995 q 148 878 148 930 q 122 812 148 841 q 56 764 95 783 l -65 764 z "},"̛":{"ha":0,"x_min":-7,"x_max":260,"o":"m -7 601 l -7 699 l 0 699 q 71 722 49 699 q 92 797 92 744 q 90 843 92 816 q 82 901 88 869 l 244 932 q 256 850 252 888 q 260 784 260 813 q 247 701 260 735 q 202 645 233 667 q 122 614 171 624 q 0 601 72 603 l -7 601 z "},"$":{"ha":1153,"x_min":79,"x_max":1067,"o":"m 507 -114 l 507 9 l 330 9 q 225 18 272 9 q 146 49 178 26 q 96 113 113 72 q 79 219 79 154 l 79 262 l 313 298 l 313 208 q 313 208 313 208 q 313 208 313 208 l 507 208 l 507 392 l 351 392 q 246 401 292 392 q 167 433 199 410 q 117 498 134 456 q 100 603 100 539 l 100 761 q 118 864 100 824 q 170 925 137 903 q 250 955 203 947 q 352 963 297 963 l 507 963 l 507 1086 l 667 1086 l 667 963 l 801 963 q 903 956 857 963 q 983 926 950 948 q 1034 864 1016 903 q 1053 762 1053 825 l 1053 716 l 818 681 l 818 769 q 818 769 818 769 q 818 769 818 769 l 667 769 l 667 590 l 814 590 q 917 583 871 590 q 997 553 963 575 q 1048 492 1030 531 q 1067 390 1067 453 l 1067 219 q 1049 114 1067 155 q 999 49 1032 72 q 920 18 967 26 q 814 9 873 9 l 667 9 l 667 -114 l 507 -114 m 507 590 l 507 769 l 334 769 q 334 769 334 769 q 334 769 334 769 l 334 590 q 334 590 334 590 q 334 590 334 590 l 507 590 m 667 208 l 832 208 q 832 208 832 208 q 832 208 832 208 l 832 392 q 832 392 832 392 q 832 392 832 392 l 667 392 l 667 208 z "},"€":{"ha":1238,"x_min":115,"x_max":1152,"o":"m 476 -10 q 284 36 344 -10 q 224 201 224 83 l 224 338 l 115 338 l 115 435 l 224 435 l 224 521 l 115 521 l 115 618 l 224 618 l 224 779 q 286 937 224 892 q 476 982 347 982 l 894 982 q 1085 937 1023 982 q 1147 779 1147 892 l 1147 709 l 901 670 l 901 788 q 901 788 901 788 q 901 788 901 788 l 470 788 q 470 788 470 788 q 470 788 470 788 l 470 618 l 872 618 l 846 521 l 470 521 l 470 435 l 822 435 l 797 338 l 470 338 l 470 184 q 470 184 470 184 q 470 184 470 184 l 906 184 q 906 184 906 184 q 906 184 906 184 l 906 318 l 1152 276 l 1152 201 q 1092 36 1152 83 q 899 -10 1031 -10 l 476 -10 z "},"¢":{"ha":971,"x_min":98,"x_max":897,"o":"m 432 -69 l 432 97 l 290 97 q 141 134 185 97 q 98 257 98 170 l 98 658 q 143 775 98 740 q 290 810 188 810 l 432 810 l 432 972 l 554 972 l 554 810 l 703 810 q 850 775 806 810 q 894 658 894 740 l 894 582 l 666 540 l 666 623 q 666 623 666 623 q 666 623 666 623 l 554 623 l 554 285 l 669 285 q 669 285 669 285 q 669 285 669 285 l 669 374 l 897 327 l 897 257 q 853 134 897 170 q 705 97 810 97 l 554 97 l 554 -69 l 432 -69 m 432 623 l 326 623 q 326 623 326 623 q 326 623 326 623 l 326 285 q 326 285 326 285 q 326 285 326 285 l 432 285 l 432 623 z "},"£":{"ha":1228,"x_min":31,"x_max":1149,"o":"m 31 0 l 31 194 l 166 194 q 219 210 203 194 q 235 263 235 226 l 235 393 l 103 393 l 103 521 l 235 521 l 235 765 q 301 930 235 878 q 502 982 367 982 l 887 982 q 1078 937 1016 982 q 1140 779 1140 892 l 1140 713 l 894 668 l 894 719 q 877 772 894 756 q 824 788 861 788 l 551 788 q 499 771 516 788 q 481 719 481 754 l 481 521 l 760 521 l 735 393 l 480 393 l 480 343 q 471 261 478 298 q 449 194 463 224 l 834 194 q 887 210 871 194 q 903 263 903 226 l 903 336 l 1149 288 l 1149 211 q 1089 46 1149 92 q 896 0 1028 0 l 31 0 z "},"¤":{"ha":1159,"x_min":28,"x_max":1131,"o":"m 119 -33 l 28 57 l 179 207 q 167 245 171 224 q 163 291 163 265 l 163 693 q 167 736 163 717 q 178 771 170 755 l 28 920 l 119 1010 l 289 840 q 318 844 303 842 q 351 845 333 845 l 808 845 q 841 844 826 845 q 870 840 856 842 l 1040 1010 l 1131 920 l 981 771 q 992 736 989 755 q 996 693 996 717 l 996 291 q 992 244 996 265 q 981 207 988 224 l 1131 57 l 1040 -33 l 870 137 q 841 133 856 135 q 808 132 826 132 l 351 132 q 318 133 333 132 q 289 137 303 135 l 119 -33 m 392 319 l 767 319 q 767 319 767 319 q 767 319 767 319 l 767 658 q 767 658 767 658 q 767 658 767 658 l 392 658 q 392 658 392 658 q 392 658 392 658 l 392 319 q 392 319 392 319 q 392 319 392 319 z "},"¥":{"ha":1156,"x_min":0,"x_max":1156,"o":"m 465 0 l 465 251 l 203 251 l 203 362 l 465 362 l 465 420 l 465 420 l 203 420 l 203 531 l 371 531 l 0 972 l 326 972 l 596 620 l 866 972 l 1156 972 l 799 531 l 954 531 l 954 420 l 710 420 l 710 362 l 954 362 l 954 251 l 710 251 l 710 0 l 465 0 z "},"₡":{"ha":1174,"x_min":115,"x_max":1089,"o":"m 474 -114 l 392 -114 l 560 1086 l 642 1086 l 474 -114 m 627 -114 l 546 -114 l 714 1086 l 795 1086 l 627 -114 m 115 765 q 177 923 115 878 q 367 968 239 968 l 831 968 q 1022 923 960 968 q 1083 765 1083 878 l 1083 648 l 842 603 l 842 758 q 842 758 842 758 q 842 758 842 758 l 358 758 q 358 758 358 758 q 358 758 358 758 l 358 214 q 358 214 358 214 q 358 214 358 214 l 847 214 q 847 214 847 214 q 847 214 847 214 l 847 388 l 1089 340 l 1089 215 q 1028 50 1089 97 q 835 4 968 4 l 367 4 q 175 50 235 4 q 115 215 115 97 l 115 765 z "},"₣":{"ha":1080,"x_min":55,"x_max":1031,"o":"m 135 0 l 135 165 l 55 165 l 55 292 l 135 292 l 135 972 l 1031 972 l 1031 763 l 381 763 l 381 579 l 743 579 l 743 369 l 381 369 l 381 292 l 618 292 l 618 165 l 381 165 l 381 0 l 135 0 z "},"₤":{"ha":1228,"x_min":31,"x_max":1149,"o":"m 31 0 l 31 194 l 166 194 q 219 210 203 194 q 235 263 235 226 l 235 765 q 301 930 235 878 q 502 982 367 982 l 887 982 q 1078 937 1016 982 q 1140 779 1140 892 l 1140 713 l 894 668 l 894 719 q 877 772 894 756 q 824 788 861 788 l 551 788 q 499 771 516 788 q 481 719 481 754 l 481 362 q 466 240 481 294 q 419 148 451 186 q 341 90 388 110 q 230 69 294 69 l 31 0 m 31 0 l 31 194 l 834 194 q 887 210 871 194 q 903 263 903 226 l 903 336 l 1149 288 l 1149 211 q 1089 46 1149 92 q 896 0 1028 0 l 31 0 m 103 488 l 103 599 l 761 599 l 739 488 l 103 488 m 103 318 l 103 429 l 761 429 l 739 318 l 103 318 z "},"₦":{"ha":1230,"x_min":59,"x_max":1170,"o":"m 59 526 l 59 638 l 1170 638 l 1170 526 l 59 526 m 59 310 l 59 421 l 1170 421 l 1170 310 l 59 310 m 135 0 l 135 972 l 321 972 l 867 363 l 867 972 l 1095 972 l 1095 0 l 908 0 l 363 604 l 363 0 l 135 0 z "},"₧":{"ha":1823,"x_min":135,"x_max":1731,"o":"m 135 0 l 135 972 l 456 972 q 639 933 569 972 q 709 769 709 894 l 709 526 q 644 377 709 422 q 456 333 579 333 l 381 333 l 381 0 l 135 0 m 381 542 l 399 542 q 447 555 431 542 q 463 603 463 568 l 463 701 q 447 748 463 733 q 399 763 431 763 l 381 763 l 381 542 m 1388 -8 q 1259 20 1306 -8 q 1213 140 1213 48 l 1213 175 l 1431 215 l 1431 148 q 1431 148 1431 148 q 1431 148 1431 148 l 1513 148 q 1513 148 1513 148 q 1513 148 1513 148 l 1513 269 q 1513 269 1513 269 q 1513 269 1513 269 l 1403 269 q 1274 300 1321 269 q 1228 423 1228 331 l 1228 565 q 1277 680 1228 653 q 1405 707 1326 707 l 1544 707 q 1673 681 1624 707 q 1722 566 1722 654 l 1722 531 l 1506 493 l 1506 551 q 1506 551 1506 551 q 1506 551 1506 551 l 1442 551 q 1442 551 1442 551 q 1442 551 1442 551 l 1442 437 q 1442 437 1442 437 q 1442 437 1442 437 l 1554 437 q 1682 411 1633 437 q 1731 296 1731 386 l 1731 140 q 1684 20 1731 48 q 1554 -8 1638 -8 l 1388 -8 m 1019 -8 q 875 28 918 -8 q 832 149 832 64 l 832 538 l 763 538 l 763 699 l 832 699 l 832 864 l 1060 864 l 1060 699 l 1171 699 l 1171 538 l 1060 538 l 1060 153 q 1060 153 1060 153 q 1060 153 1060 153 l 1165 153 l 1134 -8 l 1019 -8 z "},"₩":{"ha":1481,"x_min":7,"x_max":1474,"o":"m 51 431 l 51 542 l 1431 542 l 1431 431 l 51 431 m 338 0 l 7 972 l 279 972 l 462 384 l 650 972 l 848 972 l 1038 381 l 1228 972 l 1474 972 l 1140 0 l 929 0 l 738 576 l 548 0 l 338 0 z "},"₫":{"ha":1151,"x_min":91,"x_max":1080,"o":"m 732 0 l 732 70 q 672 12 715 31 q 558 -7 629 -7 l 279 -7 q 134 30 178 -7 q 91 152 91 67 l 91 485 q 135 601 91 565 q 279 637 179 637 l 558 637 q 672 618 629 637 q 732 560 715 599 l 732 724 l 397 724 l 397 883 l 732 883 l 732 972 l 960 972 l 960 883 l 1080 883 l 1080 724 l 960 724 l 960 0 l 732 0 m 732 449 l 319 449 q 319 449 319 449 q 319 449 319 449 l 319 181 q 319 181 319 181 q 319 181 319 181 l 732 181 l 732 449 m 960 -94 l 960 -253 l 121 -253 l 121 -94 l 960 -94 z "},"₭":{"ha":1228,"x_min":-6,"x_max":1228,"o":"m -6 428 l -6 564 l 961 564 l 961 428 l -6 428 m 135 0 l 135 972 l 381 972 l 381 532 l 340 512 l 825 972 l 1132 972 l 635 512 l 635 524 l 1228 0 l 868 0 l 328 490 l 381 462 l 381 0 l 135 0 z "},"₱":{"ha":1203,"x_min":108,"x_max":1126,"o":"m 174 0 l 174 547 l 108 547 l 108 606 l 174 606 l 174 661 l 108 661 l 108 721 l 174 721 l 174 972 l 776 972 q 970 926 899 972 q 1042 742 1042 881 l 1042 721 l 1126 721 l 1110 661 l 1042 661 l 1042 606 l 1126 606 l 1110 547 l 1042 547 l 1042 519 q 1025 414 1042 456 q 975 345 1008 372 q 892 308 942 319 q 776 297 842 297 l 419 297 l 419 0 l 174 0 m 419 721 l 797 721 l 797 722 q 779 765 797 751 q 731 779 762 779 l 419 779 l 419 721 m 419 490 l 731 490 q 779 502 762 490 q 797 545 797 515 l 797 547 l 419 547 l 419 490 m 419 606 l 797 606 l 797 661 l 419 661 l 419 606 z "},"₲":{"ha":1248,"x_min":115,"x_max":1139,"o":"m 543 -7 l 367 -7 q 175 39 235 -7 q 115 204 115 85 l 115 776 q 177 934 115 890 q 367 979 239 979 l 543 979 l 543 1086 l 692 1086 l 692 979 l 882 979 q 1073 934 1011 979 q 1135 776 1135 890 l 1135 715 l 889 665 l 889 773 q 889 773 889 773 q 889 773 889 773 l 692 773 l 692 199 l 893 199 q 893 199 893 199 q 893 199 893 199 l 893 376 l 778 376 l 778 572 l 1139 572 l 1139 204 q 1078 39 1139 85 q 886 -7 1018 -7 l 692 -7 l 692 -114 l 543 -114 l 543 -7 m 543 199 l 543 773 l 361 773 q 361 773 361 773 q 361 773 361 773 l 361 199 q 361 199 361 199 q 361 199 361 199 l 543 199 z "},"₵":{"ha":1174,"x_min":115,"x_max":1089,"o":"m 517 -114 l 517 10 l 367 10 q 175 56 235 10 q 115 221 115 103 l 115 760 q 177 918 115 873 q 367 963 239 963 l 517 963 l 517 1086 l 687 1086 l 687 963 l 831 963 q 1022 918 960 963 q 1084 760 1084 873 l 1084 656 l 838 611 l 838 748 q 838 748 838 748 q 838 748 838 748 l 687 748 l 687 224 l 843 224 q 843 224 843 224 q 843 224 843 224 l 843 379 l 1089 331 l 1089 221 q 1028 56 1089 102 q 835 10 968 10 l 687 10 l 687 -114 l 517 -114 m 361 224 l 517 224 l 517 748 l 361 748 q 361 748 361 748 q 361 748 361 748 l 361 224 q 361 224 361 224 q 361 224 361 224 z "},"₹":{"ha":1150,"x_min":77,"x_max":1101,"o":"m 681 0 l 78 376 l 78 514 l 512 514 q 561 527 545 514 q 578 575 578 540 l 578 599 l 77 599 l 77 727 l 578 727 l 578 773 q 562 819 578 804 q 515 834 547 833 l 78 834 l 78 972 l 1101 972 l 1074 834 l 814 834 q 820 805 818 821 q 822 769 822 789 l 822 727 l 1101 727 l 1076 599 l 822 599 l 822 572 q 806 483 822 520 q 759 423 790 447 q 682 388 728 399 q 576 376 636 377 l 448 376 l 1097 0 l 681 0 z "},"₺":{"ha":1203,"x_min":81,"x_max":1133,"o":"m 247 0 l 247 432 l 81 372 l 81 483 l 247 543 l 247 601 l 81 541 l 81 652 l 247 713 l 247 972 l 493 972 l 493 802 l 733 890 l 733 778 l 493 691 l 493 633 l 733 720 l 733 609 l 493 522 l 493 210 l 617 210 q 732 226 683 210 q 815 276 782 242 q 863 367 847 311 q 879 502 879 423 l 1133 455 q 1096 250 1133 336 q 991 109 1059 165 q 828 26 923 53 q 618 0 733 0 l 247 0 z "},"₼":{"ha":1245,"x_min":84,"x_max":1160,"o":"m 84 0 l 84 553 q 151 724 84 684 q 335 764 219 764 l 499 764 l 499 933 l 745 979 l 745 764 l 908 764 q 1014 756 967 764 q 1093 724 1060 747 q 1143 660 1126 701 q 1160 553 1160 619 l 1160 0 l 915 0 l 915 541 q 915 541 915 541 q 915 541 915 541 l 745 541 l 745 81 l 499 35 l 499 541 l 330 541 q 330 541 330 541 q 330 541 330 541 l 330 0 l 84 0 z "},"₽":{"ha":1155,"x_min":42,"x_max":1102,"o":"m 149 0 l 149 153 l 42 153 l 42 342 l 149 342 l 149 412 l 42 412 l 42 601 l 149 601 l 149 972 l 849 972 q 1032 933 962 972 q 1102 769 1102 894 l 1102 601 q 1085 513 1102 549 q 1037 454 1069 476 q 958 422 1005 431 q 849 412 910 412 l 394 412 l 394 342 l 883 342 l 883 153 l 394 153 l 394 0 l 149 0 m 394 601 l 790 601 q 840 614 823 601 q 856 662 856 627 l 856 722 q 840 768 856 753 q 790 783 823 783 l 394 783 l 394 601 z "},"₮":{"ha":1026,"x_min":20,"x_max":1006,"o":"m 390 0 l 390 238 l 187 165 l 187 276 l 390 349 l 390 408 l 187 335 l 187 447 l 390 519 l 390 754 l 20 754 l 20 972 l 1006 972 l 1006 754 l 635 754 l 635 608 l 839 681 l 839 569 l 635 497 l 635 438 l 839 511 l 839 400 l 635 327 l 635 0 l 390 0 z "},"₴":{"ha":1242,"x_min":78,"x_max":1165,"o":"m 1165 448 l 1165 337 l 387 337 q 387 337 387 337 q 387 337 387 337 l 387 184 q 387 184 387 184 q 387 184 387 184 l 876 184 q 876 184 876 184 q 876 184 876 184 l 876 262 l 1110 226 l 1110 200 q 1043 30 1110 70 q 859 -10 976 -10 l 405 -10 q 299 -2 347 -10 q 219 28 252 6 q 170 90 187 50 q 153 194 153 131 l 153 218 q 161 286 153 258 q 185 337 169 315 l 78 337 l 78 448 l 1165 448 m 78 531 l 78 642 l 855 642 q 855 642 855 642 q 855 642 855 642 l 855 788 q 855 788 855 788 q 855 788 855 788 l 401 788 q 401 788 401 788 q 401 788 401 788 l 401 717 l 167 752 l 167 781 q 185 883 167 844 q 236 944 203 922 q 316 974 269 967 q 419 982 363 982 l 837 982 q 939 974 892 982 q 1019 945 985 967 q 1070 885 1052 924 q 1089 784 1089 847 l 1089 766 q 1081 695 1089 725 q 1058 642 1074 665 l 1165 642 l 1165 531 l 78 531 z "},"₸":{"ha":1235,"x_min":77,"x_max":1158,"o":"m 1158 688 l 1158 511 l 741 511 l 741 0 l 495 0 l 495 511 l 77 511 l 77 688 l 1158 688 m 1158 972 l 1158 794 l 77 794 l 77 972 l 1158 972 z "},"₪":{"ha":1715,"x_min":135,"x_max":1581,"o":"m 535 0 l 535 654 l 781 654 l 781 223 l 1335 223 q 1335 223 1335 223 q 1335 223 1335 223 l 1335 972 l 1581 972 l 1581 210 q 1513 40 1581 80 q 1328 0 1446 0 l 535 0 m 135 0 l 135 972 l 928 972 q 1034 964 987 972 q 1113 932 1081 956 q 1163 868 1146 909 q 1181 762 1181 827 l 1181 313 l 935 313 l 935 749 q 935 749 935 749 q 935 749 935 749 l 381 749 l 381 0 l 135 0 z "},"₾":{"ha":1296,"x_min":115,"x_max":1180,"o":"m 115 0 l 115 194 l 265 194 q 226 256 239 218 q 213 345 213 293 l 213 765 q 278 930 213 878 q 478 982 343 982 l 927 982 q 1118 937 1056 982 q 1180 779 1180 892 l 1180 545 l 935 500 l 935 719 q 918 772 935 756 q 865 788 902 788 l 527 788 q 475 771 492 788 q 458 719 458 754 l 458 281 q 479 216 457 238 q 545 194 501 194 l 1180 194 l 1180 0 l 115 0 m 527 500 l 527 1086 l 665 1086 l 665 500 l 527 500 m 727 500 l 727 1086 l 865 1086 l 865 500 l 727 500 z "},"฿":{"ha":1070,"x_min":135,"x_max":989,"o":"m 135 0 l 135 972 l 728 972 q 832 962 786 972 q 911 926 878 951 q 960 858 943 901 q 978 751 978 815 l 978 694 q 946 571 978 619 q 848 499 914 523 q 955 422 922 476 q 989 283 989 367 l 989 222 q 972 115 989 158 q 923 46 955 72 q 844 10 890 21 q 740 0 798 0 l 135 0 m 362 197 l 690 197 q 741 211 724 197 q 758 257 758 226 l 758 338 q 741 385 758 372 q 690 399 724 399 l 362 399 l 362 197 m 362 590 l 682 590 q 733 604 716 590 q 750 652 750 617 l 750 716 q 733 762 750 747 q 682 777 716 777 l 362 777 l 362 590 m 472 -114 l 472 1086 l 631 1086 l 631 -114 l 472 -114 z "},"₿":{"ha":1070,"x_min":135,"x_max":989,"o":"m 324 -113 l 324 197 l 479 197 l 479 -113 l 324 -113 m 554 -113 l 554 197 l 710 197 l 710 -113 l 554 -113 m 135 0 l 135 972 l 728 972 q 832 962 786 972 q 911 926 878 951 q 960 858 943 901 q 978 751 978 815 l 978 694 q 946 571 978 619 q 848 499 914 523 q 955 422 922 476 q 989 283 989 367 l 989 222 q 972 115 989 158 q 923 46 955 72 q 844 10 890 21 q 740 0 798 0 l 135 0 m 381 197 l 676 197 q 727 211 710 197 q 744 257 744 226 l 744 338 q 727 385 744 372 q 676 399 710 399 l 381 399 l 381 197 m 381 590 l 668 590 q 719 604 702 590 q 735 652 735 617 l 735 716 q 719 762 735 747 q 668 777 702 777 l 381 777 l 381 590 m 324 777 l 324 1086 l 479 1086 l 479 777 l 324 777 m 554 777 l 554 1086 l 710 1086 l 710 777 l 554 777 z "},"§":{"ha":1048,"x_min":103,"x_max":953,"o":"m 316 -97 q 187 -68 233 -97 q 140 53 140 -40 l 140 86 l 353 125 l 353 58 q 353 58 353 58 q 353 58 353 58 l 681 58 q 681 58 681 58 q 681 58 681 58 l 681 196 q 681 196 681 196 q 681 196 681 196 l 280 196 q 150 227 197 196 q 103 349 103 258 l 103 533 q 108 578 103 558 q 121 614 113 599 q 142 639 130 628 q 170 657 154 650 q 168 672 169 665 q 168 688 168 680 l 168 830 q 217 945 168 918 q 345 972 267 972 l 715 972 q 844 944 795 972 q 893 828 893 917 l 893 801 l 681 755 l 681 817 q 681 817 681 817 q 681 817 681 817 l 383 817 q 383 817 383 817 q 383 817 383 817 l 383 690 q 383 690 383 690 q 383 690 383 690 l 775 690 q 904 658 855 690 q 953 537 953 627 l 953 370 q 949 324 953 344 q 938 287 945 303 q 919 259 930 271 q 893 238 908 247 q 895 224 894 231 q 895 210 895 217 l 895 51 q 849 -69 895 -41 q 718 -97 802 -97 l 316 -97 m 318 351 l 738 351 q 738 351 738 351 q 738 351 738 351 l 738 535 q 738 535 738 535 q 738 535 738 535 l 318 535 q 318 535 318 535 q 318 535 318 535 l 318 351 q 318 351 318 351 q 318 351 318 351 z "},"ℓ":{"ha":862,"x_min":115,"x_max":747,"o":"m 115 285 l 115 440 l 524 553 q 524 553 524 553 q 524 553 524 553 l 524 844 q 524 844 524 844 q 524 844 524 844 l 411 844 q 411 844 411 844 q 411 844 411 844 l 411 152 q 411 152 411 152 q 411 152 411 152 l 658 152 l 626 -10 l 413 -10 q 239 34 294 -10 q 185 181 185 78 l 185 826 q 242 960 185 915 q 406 1006 299 1006 l 530 1006 q 691 959 635 1006 q 747 822 747 912 l 747 606 q 729 525 747 559 q 680 467 712 492 q 604 426 649 443 q 505 393 560 408 l 115 285 z "},"π":{"ha":1126,"x_min":115,"x_max":1019,"o":"m 226 0 l 226 538 l 115 538 l 115 699 l 1019 699 l 1019 538 l 908 538 l 908 162 q 908 162 908 162 q 908 162 908 162 l 1019 162 l 986 0 l 876 0 q 730 44 780 0 q 680 185 680 88 l 680 512 l 453 512 l 453 0 l 226 0 z "},"¶":{"ha":900,"x_min":53,"x_max":765,"o":"m 765 0 l 687 0 l 687 884 l 598 884 l 598 0 l 519 0 l 519 333 l 306 333 q 198 342 245 333 q 118 375 151 352 q 69 434 86 397 q 53 522 53 470 l 53 769 q 123 933 53 894 q 306 972 194 972 l 765 972 l 765 0 z "},"†":{"ha":739,"x_min":20,"x_max":719,"o":"m 279 -149 l 279 449 l 20 449 l 20 609 l 279 609 l 279 903 l 460 903 l 460 609 l 719 609 l 719 449 l 460 449 l 460 -149 l 279 -149 z "},"‡":{"ha":739,"x_min":20,"x_max":719,"o":"m 279 -149 l 279 99 l 20 99 l 20 259 l 279 259 l 279 495 l 20 495 l 20 655 l 279 655 l 279 903 l 460 903 l 460 655 l 719 655 l 719 495 l 460 495 l 460 259 l 719 259 l 719 99 l 460 99 l 460 -149 l 279 -149 z "},"�":{"ha":1390,"x_min":165,"x_max":1225,"o":"m 616 159 q 623 114 616 121 q 667 107 629 107 l 708 107 q 751 114 745 107 q 758 159 758 121 l 758 199 q 751 242 758 236 q 708 249 745 249 l 667 249 q 623 242 629 249 q 616 199 616 236 l 616 159 m 635 324 l 740 324 l 740 370 q 750 397 740 386 q 783 413 761 407 l 827 422 q 910 459 886 435 q 935 529 935 483 l 935 647 q 901 736 935 710 q 786 763 867 763 l 611 763 q 497 735 531 763 q 463 647 463 708 l 463 590 l 568 569 l 568 658 l 830 658 l 830 575 q 819 529 830 544 q 783 509 808 515 l 726 496 q 658 463 681 485 q 635 405 635 440 l 635 324 m 694 -44 l 165 486 l 694 1016 l 1225 486 l 694 -44 z "},"@":{"ha":1358,"x_min":115,"x_max":1242,"o":"m 115 63 l 115 667 q 182 823 115 787 q 353 858 248 858 l 1003 858 q 1100 851 1056 858 q 1175 823 1144 844 q 1225 764 1207 801 q 1242 667 1242 727 l 1242 272 q 1189 125 1242 164 q 1047 87 1136 87 l 965 87 q 839 118 890 87 q 787 188 787 149 q 738 126 775 143 q 652 110 700 110 l 516 110 q 411 137 443 110 q 379 226 379 164 l 379 500 q 411 585 379 559 q 516 612 444 612 l 663 612 q 743 593 713 612 q 787 548 774 575 l 787 607 l 971 607 l 971 268 q 983 233 971 244 q 1019 222 995 222 l 1036 222 q 1073 234 1061 222 q 1085 276 1085 247 l 1085 650 q 1065 702 1085 682 q 980 722 1044 722 l 375 722 q 301 708 329 722 q 273 650 273 694 l 273 79 q 292 23 273 44 q 375 0 311 2 l 1094 0 l 1094 -136 l 353 -136 q 179 -98 242 -136 q 115 63 115 -60 m 565 256 q 565 256 565 256 q 565 256 565 256 l 787 256 q 787 256 787 256 q 787 256 787 256 l 787 465 l 565 465 q 565 465 565 465 q 565 465 565 465 l 565 256 z "},"©":{"ha":1270,"x_min":115,"x_max":1143,"o":"m 342 383 l 342 596 q 386 714 342 678 q 534 749 431 749 l 733 749 q 880 714 836 749 q 924 597 924 679 l 924 571 l 724 530 l 724 581 q 724 581 724 581 q 724 581 724 581 l 542 581 q 542 581 542 581 q 542 581 542 581 l 542 391 q 542 391 542 391 q 542 391 542 391 l 726 391 q 726 391 726 391 q 726 391 726 391 l 726 447 l 926 403 l 926 383 q 883 260 926 297 q 735 223 840 223 l 533 223 q 385 260 428 223 q 342 383 342 297 m 115 754 q 184 918 115 879 q 367 957 253 957 l 890 957 q 1074 919 1005 957 q 1143 754 1143 881 l 1143 226 q 1076 56 1143 97 q 890 15 1009 15 l 367 15 q 182 57 249 15 q 115 226 115 98 l 115 754 m 250 756 l 250 226 q 275 156 250 178 q 367 133 300 133 l 890 133 q 983 156 957 133 q 1008 226 1008 178 l 1008 756 q 983 818 1008 798 q 890 839 958 839 l 367 839 q 282 823 314 839 q 250 756 250 807 z "},"®":{"ha":580,"x_min":49,"x_max":531,"o":"m 49 732 l 49 981 q 75 1054 49 1028 q 149 1079 101 1079 l 430 1079 q 504 1054 478 1079 q 531 981 531 1028 l 531 732 q 504 658 531 684 q 430 633 478 633 l 149 633 q 75 658 101 633 q 49 732 49 684 m 99 978 l 99 735 q 113 693 99 708 q 153 678 126 678 l 429 678 q 468 693 457 678 q 480 735 480 708 l 480 978 q 467 1020 480 1006 q 426 1034 453 1034 l 153 1034 q 113 1020 126 1034 q 99 978 99 1006 m 162 972 l 360 972 q 407 962 390 972 q 425 920 425 951 l 425 859 q 410 823 425 831 q 367 815 394 815 l 367 815 l 446 736 l 349 736 l 275 813 l 240 813 l 240 736 l 162 736 l 162 972 m 240 871 l 333 871 q 344 874 340 871 q 347 883 347 876 l 347 898 q 344 907 347 904 q 333 910 340 910 l 240 910 l 240 871 z "},"™":{"ha":797,"x_min":20,"x_max":769,"o":"m 392 708 l 392 1000 l 474 1000 l 582 851 l 685 1000 l 769 1000 l 769 708 l 676 708 l 676 871 l 575 726 l 472 868 l 472 708 l 392 708 m 134 708 l 134 921 l 20 921 l 20 1000 l 342 1000 l 342 921 l 228 921 l 228 708 l 134 708 z "},"ª":{"ha":689,"x_min":68,"x_max":609,"o":"m 190 542 q 102 562 135 542 q 68 644 68 583 l 68 722 q 108 801 68 783 q 200 819 147 819 l 442 819 l 442 894 q 442 894 442 894 q 442 894 442 894 l 246 894 q 246 894 246 894 q 246 894 246 894 l 246 861 l 78 892 l 78 909 q 112 990 78 970 q 199 1010 145 1010 l 487 1010 q 575 991 542 1010 q 609 906 609 971 l 609 547 l 442 547 l 442 615 q 396 557 430 573 q 319 542 363 542 l 190 542 m 235 648 q 235 648 235 648 q 235 648 235 648 l 442 648 l 442 721 l 235 721 q 235 721 235 721 q 235 721 235 721 l 235 648 z "},"º":{"ha":698,"x_min":74,"x_max":624,"o":"m 74 649 l 74 908 q 103 986 74 962 q 200 1010 133 1010 l 498 1010 q 595 986 565 1010 q 624 908 624 962 l 624 649 q 595 567 624 592 q 498 542 567 542 l 200 542 q 103 567 132 542 q 74 649 74 592 m 241 675 q 241 675 241 675 q 241 675 241 675 l 457 675 q 457 675 457 675 q 457 675 457 675 l 457 877 q 457 877 457 877 q 457 877 457 877 l 241 877 q 241 877 241 877 q 241 877 241 877 l 241 675 z "},"°":{"ha":453,"x_min":49,"x_max":404,"o":"m 49 851 l 49 954 q 78 1032 49 1008 q 175 1057 108 1057 l 278 1057 q 374 1032 344 1057 q 404 954 404 1008 l 404 851 q 375 769 404 794 q 278 744 346 744 l 175 744 q 78 769 108 744 q 49 851 49 794 m 178 856 q 178 856 178 856 q 178 856 178 856 l 275 856 q 275 856 275 856 q 275 856 275 856 l 275 945 q 275 945 275 945 q 275 945 275 945 l 178 945 q 178 945 178 945 q 178 945 178 945 l 178 856 z "},"<":{"ha":1001,"x_min":88,"x_max":913,"o":"m 913 0 l 88 329 l 88 482 l 913 811 l 913 642 l 327 407 l 913 172 l 913 0 z "},">":{"ha":1001,"x_min":88,"x_max":913,"o":"m 88 811 l 913 482 l 913 329 l 88 0 l 88 169 l 674 404 l 88 640 l 88 811 z "},"≥":{"ha":1001,"x_min":88,"x_max":913,"o":"m 88 0 l 88 161 l 913 161 l 913 0 l 88 0 m 88 263 l 88 433 l 726 643 l 726 592 l 88 802 l 88 972 l 913 694 l 913 542 l 88 263 z "},"≤":{"ha":1001,"x_min":88,"x_max":913,"o":"m 913 263 l 88 541 l 88 693 l 913 972 l 913 802 l 355 617 l 913 433 l 913 263 m 88 0 l 88 161 l 913 161 l 913 0 l 88 0 z "},"=":{"ha":1001,"x_min":88,"x_max":913,"o":"m 88 477 l 88 638 l 913 638 l 913 477 l 88 477 m 88 177 l 88 338 l 913 338 l 913 177 l 88 177 z "},"≈":{"ha":1001,"x_min":88,"x_max":913,"o":"m 812 672 l 913 551 q 809 476 868 508 q 667 444 750 444 q 567 459 612 444 q 484 490 523 473 q 408 520 444 506 q 333 534 372 534 q 248 512 283 534 q 189 468 212 490 l 88 589 q 191 664 132 632 q 334 695 251 695 q 433 681 389 695 q 517 651 478 667 q 593 620 556 634 q 667 606 629 606 q 753 627 717 606 q 812 672 788 649 m 812 338 l 913 218 q 809 143 868 175 q 667 111 750 111 q 567 125 612 111 q 484 156 523 140 q 408 187 444 173 q 333 201 372 201 q 248 179 283 201 q 189 135 212 157 l 88 256 q 191 330 132 299 q 334 362 251 362 q 433 348 389 362 q 517 317 478 334 q 593 286 556 301 q 667 272 629 272 q 753 294 717 272 q 812 338 788 316 z "},"≠":{"ha":1001,"x_min":88,"x_max":913,"o":"m 88 338 l 388 338 l 439 477 l 88 477 l 88 638 l 498 638 l 560 811 l 736 811 l 673 638 l 913 638 l 913 477 l 614 477 l 563 338 l 913 338 l 913 177 l 505 177 l 440 0 l 265 0 l 329 177 l 88 177 l 88 338 z "},"µ":{"ha":997,"x_min":115,"x_max":882,"o":"m 115 -297 l 115 699 l 341 699 l 341 183 q 341 183 341 183 q 341 183 341 183 l 656 183 q 656 183 656 183 q 656 183 656 183 l 656 699 l 882 699 l 882 0 l 656 0 l 656 104 q 592 19 638 40 q 487 -2 546 -2 l 451 -2 q 355 14 390 -2 q 306 60 319 31 l 306 -265 l 115 -297 z "},"¬":{"ha":1001,"x_min":88,"x_max":913,"o":"m 913 177 l 738 177 l 738 477 l 88 477 l 88 638 l 913 638 l 913 177 z "},"+":{"ha":1001,"x_min":88,"x_max":913,"o":"m 913 488 l 913 327 l 588 327 l 588 0 l 413 0 l 413 327 l 88 327 l 88 488 l 413 488 l 413 811 l 588 811 l 588 488 l 913 488 z "},"−":{"ha":1001,"x_min":88,"x_max":913,"o":"m 88 327 l 88 488 l 913 488 l 913 327 l 88 327 z "},"±":{"ha":1001,"x_min":88,"x_max":913,"o":"m 413 263 l 413 537 l 88 537 l 88 698 l 413 698 l 413 972 l 588 972 l 588 698 l 913 698 l 913 537 l 588 537 l 588 263 l 413 263 m 88 0 l 88 161 l 913 161 l 913 0 l 88 0 z "},"×":{"ha":1001,"x_min":142,"x_max":858,"o":"m 257 51 l 143 165 l 387 408 l 142 652 l 256 766 l 501 522 l 744 766 l 858 652 l 615 408 l 858 165 l 744 51 l 501 294 l 257 51 z "},"÷":{"ha":1001,"x_min":88,"x_max":913,"o":"m 475 28 q 413 39 424 28 q 402 102 402 51 l 402 158 q 413 219 402 208 q 475 231 424 231 l 526 231 q 589 219 577 231 q 600 158 600 208 l 600 102 q 589 39 600 51 q 526 28 577 28 l 475 28 m 88 327 l 88 488 l 913 488 l 913 327 l 88 327 m 475 583 q 413 594 424 583 q 402 656 402 605 l 402 712 q 413 774 402 763 q 475 785 424 785 l 526 785 q 589 774 577 785 q 600 712 600 763 l 600 656 q 589 594 600 605 q 526 583 577 583 l 475 583 z "},"∕":{"ha":112,"x_min":-350,"x_max":462,"o":"m -350 0 l 292 972 l 462 972 l -181 0 l -350 0 z "},"⟨":{"ha":550,"x_min":46,"x_max":506,"o":"m 336 0 l 46 486 l 336 972 l 506 972 l 215 486 l 506 0 l 336 0 z "},"⟩":{"ha":550,"x_min":44,"x_max":503,"o":"m 214 972 l 503 486 l 214 0 l 44 0 l 334 486 l 44 972 l 214 972 z "},"Æ":{"ha":1817,"x_min":0,"x_max":1740,"o":"m 0 0 l 577 972 l 1726 972 l 1726 766 l 1059 766 l 1059 594 l 1458 594 l 1458 399 l 1059 399 l 1059 206 l 1740 206 l 1740 0 l 813 0 l 813 196 l 390 196 l 275 0 l 0 0 m 497 383 l 813 383 l 813 763 l 719 763 l 497 383 z "},"Œ":{"ha":1941,"x_min":115,"x_max":1863,"o":"m 367 0 q 261 7 308 0 q 182 36 215 15 q 133 98 150 58 q 115 201 115 137 l 115 779 q 134 880 115 842 q 185 939 152 918 q 265 966 218 959 q 367 972 311 972 l 1849 972 l 1849 773 l 1183 773 l 1183 594 l 1581 594 l 1581 399 l 1183 399 l 1183 199 l 1863 199 l 1863 0 l 367 0 m 937 199 l 937 773 l 361 773 q 361 773 361 773 q 361 773 361 773 l 361 199 q 361 199 361 199 q 361 199 361 199 l 937 199 z "},"ẞ":{"ha":1258,"x_min":125,"x_max":1205,"o":"m 125 0 l 125 779 q 195 943 125 904 q 377 982 265 982 l 915 982 q 1055 965 996 982 q 1144 895 1114 947 l 923 565 l 952 565 q 1055 556 1008 565 q 1135 526 1101 548 q 1186 464 1168 503 q 1205 362 1205 425 l 1205 204 q 1138 34 1205 74 q 952 -7 1072 -7 l 524 -7 l 524 192 l 959 192 q 959 192 959 192 q 959 192 959 192 l 959 369 q 959 369 959 369 q 959 369 959 369 l 642 369 l 642 520 l 815 784 q 815 784 815 784 q 815 784 815 784 l 371 784 q 371 784 371 784 q 371 784 371 784 l 371 0 l 125 0 z "},"Ð":{"ha":1288,"x_min":62,"x_max":1215,"o":"m 135 0 l 135 401 l 62 401 l 62 574 l 135 574 l 135 972 l 736 972 q 927 942 840 972 q 1078 852 1015 913 q 1178 700 1142 792 q 1215 486 1215 609 q 1177 263 1215 356 q 1074 113 1139 171 q 922 27 1010 54 q 736 0 835 0 l 135 0 m 381 210 l 694 210 q 811 225 761 210 q 894 274 861 240 q 944 361 928 308 q 961 492 961 415 q 944 618 961 567 q 893 702 927 669 q 810 748 860 734 q 694 763 760 763 l 381 763 l 381 574 l 596 574 l 596 401 l 381 401 l 381 210 z "},"Þ":{"ha":1159,"x_min":115,"x_max":1061,"o":"m 115 0 l 115 972 l 360 972 l 360 822 l 808 822 q 991 783 921 822 q 1061 619 1061 744 l 1061 370 q 996 221 1061 265 q 808 176 931 176 l 360 176 l 360 0 l 115 0 m 360 390 l 753 390 q 802 403 785 390 q 819 451 819 416 l 819 545 q 802 592 819 577 q 753 607 785 607 l 360 607 l 360 390 z "},"Ə":{"ha":1248,"x_min":108,"x_max":1132,"o":"m 362 -7 q 169 40 230 -7 q 108 204 108 86 l 108 574 l 886 574 l 886 773 q 886 773 886 773 q 886 773 886 773 l 358 773 q 358 773 358 773 q 358 773 358 773 l 358 665 l 113 715 l 113 776 q 175 934 113 890 q 366 979 237 979 l 881 979 q 1070 934 1009 979 q 1132 776 1132 890 l 1132 204 q 1072 39 1132 85 q 881 -7 1013 -7 l 362 -7 m 354 378 l 354 199 q 354 199 354 199 q 354 199 354 199 l 886 199 q 886 199 886 199 q 886 199 886 199 l 886 378 l 354 378 z "},"Ŋ":{"ha":1319,"x_min":135,"x_max":1185,"o":"m 135 0 l 135 972 l 321 972 l 957 363 l 957 972 l 1185 972 l 1185 -106 q 1172 -206 1185 -168 q 1134 -264 1160 -243 q 1070 -291 1109 -284 q 978 -297 1031 -297 l 694 -297 l 655 -117 l 964 -117 q 964 -117 964 -117 q 964 -117 964 -117 l 964 31 l 363 604 l 363 0 l 135 0 z "},"æ":{"ha":1495,"x_min":91,"x_max":1397,"o":"m 269 -7 q 194 -1 226 -7 q 138 22 161 6 q 103 66 115 38 q 91 140 91 95 l 91 285 q 104 358 91 331 q 140 401 117 386 q 196 422 164 416 q 269 427 228 427 l 630 427 l 630 544 q 630 544 630 544 q 630 544 630 544 l 330 544 q 330 544 330 544 q 330 544 330 544 l 330 487 l 103 524 l 103 557 q 116 630 103 601 q 153 675 129 658 q 209 699 176 692 q 281 706 242 706 l 627 706 q 725 691 683 706 q 789 644 767 676 q 859 692 813 678 q 965 706 906 706 l 1219 706 q 1292 700 1259 706 q 1348 679 1324 694 q 1384 636 1371 663 q 1397 564 1397 608 l 1397 279 l 858 279 l 858 155 q 858 155 858 155 q 858 155 858 155 l 1165 155 q 1165 155 1165 155 q 1165 155 1165 155 l 1165 221 l 1392 183 l 1392 149 q 1380 73 1392 103 q 1345 25 1367 43 q 1290 0 1322 8 q 1215 -7 1257 -7 l 869 -7 q 770 9 813 -7 q 704 58 727 24 q 640 9 682 24 q 542 -7 599 -7 l 269 -7 m 319 155 l 630 155 q 630 155 630 155 q 630 155 630 155 l 630 278 l 319 278 q 319 278 319 278 q 319 278 319 278 l 319 155 q 319 155 319 155 q 319 155 319 155 m 858 428 l 1169 428 l 1169 544 q 1169 544 1169 544 q 1169 544 1169 544 l 858 544 q 858 544 858 544 q 858 544 858 544 l 858 428 z "},"œ":{"ha":1502,"x_min":98,"x_max":1404,"o":"m 276 -7 q 201 -1 233 -7 q 145 22 168 6 q 110 66 122 38 q 98 140 98 95 l 98 557 q 111 630 98 601 q 147 675 124 658 q 203 699 171 692 q 276 706 235 706 l 588 706 q 686 692 645 706 q 750 646 728 678 q 819 693 774 679 q 926 706 865 706 l 1226 706 q 1299 700 1266 706 q 1355 679 1331 694 q 1391 636 1378 663 q 1404 564 1404 608 l 1404 279 l 865 279 l 865 155 q 865 155 865 155 q 865 155 865 155 l 1172 155 q 1172 155 1172 155 q 1172 155 1172 155 l 1172 221 l 1399 183 l 1399 149 q 1386 73 1399 103 q 1352 25 1374 43 q 1297 0 1329 8 q 1222 -7 1264 -7 l 915 -7 q 814 8 856 -7 q 749 56 772 23 q 686 8 728 23 q 588 -7 645 -7 l 276 -7 m 1176 428 l 1176 544 q 1176 544 1176 544 q 1176 544 1176 544 l 865 544 q 865 544 865 544 q 865 544 865 544 l 865 428 l 1176 428 m 326 155 q 326 155 326 155 q 326 155 326 155 l 637 155 q 637 155 637 155 q 637 155 637 155 l 637 544 q 637 544 637 544 q 637 544 637 544 l 326 544 q 326 544 326 544 q 326 544 326 544 l 326 155 z "},"ß":{"ha":992,"x_min":106,"x_max":901,"o":"m 106 0 l 106 860 q 150 977 106 941 q 294 1013 194 1013 l 683 1013 q 827 977 783 1013 q 871 860 871 941 l 871 792 q 857 709 871 742 q 810 658 842 676 q 877 618 853 647 q 901 526 901 588 l 901 140 q 854 21 901 49 q 724 -7 807 -7 l 433 -7 l 433 181 l 672 181 q 672 181 672 181 q 672 181 672 181 l 672 512 q 672 512 672 512 q 672 512 672 512 l 469 512 l 469 699 l 643 699 q 643 699 643 699 q 643 699 643 699 l 643 851 q 643 851 643 851 q 643 851 643 851 l 335 851 q 335 851 335 851 q 335 851 335 851 l 335 0 l 106 0 z "},"ð":{"ha":1010,"x_min":98,"x_max":910,"o":"m 286 -7 q 141 30 185 -7 q 98 152 98 67 l 98 534 q 142 650 98 615 q 286 686 186 686 l 624 686 q 590 744 610 717 q 544 797 570 772 l 287 733 l 263 828 l 444 873 q 348 918 399 898 q 235 953 297 938 l 428 1017 q 551 983 493 1005 q 661 927 610 960 l 887 984 l 910 889 l 753 849 q 866 662 825 774 q 906 392 906 550 l 907 152 q 864 30 907 67 q 719 -7 821 -7 l 286 -7 m 669 499 l 326 499 q 326 499 326 499 q 326 499 326 499 l 326 181 q 326 181 326 181 q 326 181 326 181 l 678 181 q 678 181 678 181 q 678 181 678 181 l 678 398 q 676 450 678 425 q 669 499 674 475 z "},"þ":{"ha":1022,"x_min":115,"x_max":924,"o":"m 115 -297 l 115 1010 l 343 1010 l 343 629 q 403 688 360 669 q 517 706 446 706 l 736 706 q 881 669 838 706 q 924 547 924 633 l 924 145 q 880 29 924 65 q 736 -7 836 -7 l 517 -7 q 403 12 446 -7 q 343 70 360 31 l 343 -297 l 115 -297 m 343 183 l 696 183 q 696 183 696 183 q 696 183 696 183 l 696 517 q 696 517 696 517 q 696 517 696 517 l 343 517 l 343 183 z "},"ə":{"ha":993,"x_min":98,"x_max":895,"o":"m 895 515 l 895 162 q 844 35 895 78 q 682 -7 793 -7 l 317 -7 q 151 36 205 -7 q 98 164 98 78 l 98 419 l 667 419 l 667 544 q 667 544 667 544 q 667 544 667 544 l 326 544 q 326 544 326 544 q 326 544 326 544 l 326 475 l 98 515 l 98 522 q 154 664 98 622 q 339 706 210 706 l 668 706 q 841 663 786 706 q 895 515 895 619 m 667 274 l 326 274 l 326 155 q 326 155 326 155 q 326 155 326 155 l 667 155 q 667 155 667 155 q 667 155 667 155 l 667 274 z "},"ŋ":{"ha":994,"x_min":115,"x_max":879,"o":"m 115 0 l 115 699 l 343 699 l 343 634 q 411 688 365 670 q 540 706 458 706 l 648 706 q 825 663 771 706 q 879 522 879 620 l 879 -106 q 867 -206 879 -168 q 829 -264 854 -243 q 765 -291 803 -284 q 672 -297 726 -297 l 497 -297 l 460 -117 l 651 -117 q 651 -117 651 -117 q 651 -117 651 -117 l 651 508 q 651 508 651 508 q 651 508 651 508 l 343 508 l 343 0 l 115 0 z "},"À":{"ha":1219,"x_min":0,"x_max":1219,"o":"m 0 0 l 500 972 l 714 972 l 1219 0 l 931 0 l 833 196 l 363 196 l 262 0 l 0 0 m 459 383 l 742 383 l 602 661 l 459 383 m 547 1034 l 301 1250 l 583 1250 l 776 1034 l 547 1034 z "},"Á":{"ha":1219,"x_min":0,"x_max":1219,"o":"m 0 0 l 500 972 l 714 972 l 1219 0 l 931 0 l 833 196 l 363 196 l 262 0 l 0 0 m 459 383 l 742 383 l 602 661 l 459 383 m 444 1034 l 638 1250 l 919 1250 l 674 1034 l 444 1034 z "},"Â":{"ha":1219,"x_min":0,"x_max":1219,"o":"m 0 0 l 500 972 l 714 972 l 1219 0 l 931 0 l 833 196 l 363 196 l 262 0 l 0 0 m 459 383 l 742 383 l 602 661 l 459 383 m 303 1034 l 505 1250 l 718 1250 l 918 1034 l 699 1034 l 608 1158 l 518 1034 l 303 1034 z "},"Ã":{"ha":1219,"x_min":0,"x_max":1219,"o":"m 0 0 l 500 972 l 714 972 l 1219 0 l 931 0 l 833 196 l 363 196 l 262 0 l 0 0 m 459 383 l 742 383 l 602 661 l 459 383 m 304 1072 q 333 1159 313 1123 q 378 1218 352 1195 q 436 1252 405 1241 q 503 1263 468 1263 q 566 1255 537 1263 q 620 1237 595 1247 q 666 1219 644 1227 q 708 1211 688 1211 q 748 1222 731 1211 q 770 1263 765 1233 l 916 1238 q 888 1152 907 1188 q 842 1093 869 1116 q 784 1058 816 1069 q 718 1047 752 1047 q 655 1055 683 1047 q 601 1073 626 1063 q 554 1091 576 1083 q 513 1099 533 1099 q 473 1088 489 1099 q 450 1047 456 1076 l 304 1072 z "},"Ä":{"ha":1219,"x_min":0,"x_max":1219,"o":"m 0 0 l 500 972 l 714 972 l 1219 0 l 931 0 l 833 196 l 363 196 l 262 0 l 0 0 m 459 383 l 742 383 l 602 661 l 459 383 m 414 1047 q 356 1056 365 1047 q 347 1114 347 1065 l 347 1178 q 356 1234 347 1226 q 414 1243 365 1243 l 485 1243 q 543 1234 534 1243 q 552 1178 552 1226 l 552 1114 q 543 1056 552 1065 q 485 1047 534 1047 l 414 1047 m 735 1047 q 677 1056 686 1047 q 669 1114 669 1065 l 669 1178 q 677 1234 669 1226 q 735 1243 686 1243 l 806 1243 q 864 1234 856 1243 q 873 1178 873 1226 l 873 1114 q 864 1056 873 1065 q 806 1047 856 1047 l 735 1047 z "},"Å":{"ha":1219,"x_min":0,"x_max":1219,"o":"m 0 0 l 500 972 l 714 972 l 1219 0 l 931 0 l 833 196 l 363 196 l 262 0 l 0 0 m 459 383 l 742 383 l 602 661 l 459 383 m 610 1020 q 526 1026 558 1020 q 475 1048 493 1032 q 451 1092 458 1063 q 445 1166 445 1120 q 451 1240 445 1212 q 475 1284 458 1268 q 526 1305 493 1299 q 610 1310 558 1310 q 695 1305 663 1310 q 745 1284 728 1299 q 769 1240 763 1268 q 775 1166 775 1212 q 769 1092 775 1120 q 745 1048 763 1063 q 695 1026 728 1032 q 610 1020 663 1020 m 610 1116 q 649 1126 640 1116 q 658 1166 658 1137 q 649 1205 658 1194 q 610 1215 640 1215 q 571 1205 579 1215 q 563 1166 563 1194 q 571 1126 563 1137 q 610 1116 579 1116 z "},"Ç":{"ha":1174,"x_min":115,"x_max":1089,"o":"m 115 779 q 177 937 115 892 q 367 982 239 982 l 831 982 q 1022 937 960 982 q 1083 779 1083 892 l 1083 648 l 838 603 l 838 768 q 838 768 838 768 q 838 768 838 768 l 361 768 q 361 768 361 768 q 361 768 361 768 l 361 204 q 361 204 361 204 q 361 204 361 204 l 843 204 q 843 204 843 204 q 843 204 843 204 l 843 388 l 1089 340 l 1089 201 q 1028 36 1089 83 q 835 -10 968 -10 l 367 -10 q 175 36 235 -10 q 115 201 115 83 l 115 779 m 584 -314 q 520 -306 549 -314 q 466 -279 492 -297 l 497 -224 q 520 -233 505 -229 q 550 -236 536 -236 q 587 -225 574 -236 q 600 -194 600 -214 q 588 -164 600 -174 q 551 -154 575 -154 q 522 -157 538 -154 q 492 -165 507 -160 l 568 1 l 635 1 l 599 -78 q 698 -108 664 -80 q 732 -191 732 -137 q 693 -282 732 -249 q 584 -314 655 -314 z "},"È":{"ha":1139,"x_min":135,"x_max":1062,"o":"m 135 0 l 135 972 l 1048 972 l 1048 766 l 381 766 l 381 594 l 780 594 l 780 399 l 381 399 l 381 206 l 1062 206 l 1062 0 l 135 0 m 534 1034 l 289 1250 l 572 1250 l 765 1034 l 534 1034 z "},"É":{"ha":1139,"x_min":135,"x_max":1062,"o":"m 135 0 l 135 972 l 1048 972 l 1048 766 l 381 766 l 381 594 l 780 594 l 780 399 l 381 399 l 381 206 l 1062 206 l 1062 0 l 135 0 m 432 1034 l 625 1250 l 908 1250 l 663 1034 l 432 1034 z "},"Ê":{"ha":1139,"x_min":135,"x_max":1062,"o":"m 135 0 l 135 972 l 1048 972 l 1048 766 l 381 766 l 381 594 l 780 594 l 780 399 l 381 399 l 381 206 l 1062 206 l 1062 0 l 135 0 m 292 1034 l 493 1250 l 706 1250 l 906 1034 l 687 1034 l 597 1158 l 506 1034 l 292 1034 z "},"Ë":{"ha":1139,"x_min":135,"x_max":1062,"o":"m 135 0 l 135 972 l 1048 972 l 1048 766 l 381 766 l 381 594 l 780 594 l 780 399 l 381 399 l 381 206 l 1062 206 l 1062 0 l 135 0 m 402 1047 q 344 1056 353 1047 q 335 1114 335 1065 l 335 1178 q 344 1234 335 1226 q 402 1243 353 1243 l 473 1243 q 531 1234 522 1243 q 540 1178 540 1226 l 540 1114 q 531 1056 540 1065 q 473 1047 522 1047 l 402 1047 m 723 1047 q 665 1056 674 1047 q 656 1114 656 1065 l 656 1178 q 665 1234 656 1226 q 723 1243 674 1243 l 794 1243 q 852 1234 843 1243 q 861 1178 861 1226 l 861 1114 q 852 1056 861 1065 q 794 1047 843 1047 l 723 1047 z "},"Ì":{"ha":515,"x_min":-52,"x_max":424,"o":"m 135 0 l 135 972 l 381 972 l 381 0 l 135 0 m 194 1034 l -52 1250 l 231 1250 l 424 1034 l 194 1034 z "},"Í":{"ha":515,"x_min":92,"x_max":567,"o":"m 135 0 l 135 972 l 381 972 l 381 0 l 135 0 m 92 1034 l 285 1250 l 567 1250 l 322 1034 l 92 1034 z "},"Î":{"ha":515,"x_min":-49,"x_max":566,"o":"m 135 0 l 135 972 l 381 972 l 381 0 l 135 0 m -49 1034 l 152 1250 l 365 1250 l 566 1034 l 347 1034 l 256 1158 l 165 1034 l -49 1034 z "},"Ï":{"ha":515,"x_min":-5,"x_max":521,"o":"m 135 0 l 135 972 l 381 972 l 381 0 l 135 0 m 61 1047 q 4 1056 13 1047 q -5 1114 -5 1065 l -5 1178 q 4 1234 -5 1226 q 61 1243 13 1243 l 133 1243 q 190 1234 181 1243 q 199 1178 199 1226 l 199 1114 q 190 1056 199 1065 q 133 1047 181 1047 l 61 1047 m 383 1047 q 325 1056 334 1047 q 316 1114 316 1065 l 316 1178 q 325 1234 316 1226 q 383 1243 334 1243 l 454 1243 q 512 1234 503 1243 q 521 1178 521 1226 l 521 1114 q 512 1056 521 1065 q 454 1047 503 1047 l 383 1047 z "},"Ñ":{"ha":1319,"x_min":135,"x_max":1185,"o":"m 135 0 l 135 972 l 321 972 l 957 363 l 957 972 l 1185 972 l 1185 0 l 999 0 l 363 604 l 363 0 l 135 0 m 353 1072 q 382 1159 363 1123 q 428 1218 401 1195 q 486 1252 454 1241 q 552 1263 518 1263 q 615 1255 586 1263 q 669 1237 644 1247 q 716 1219 694 1227 q 758 1211 738 1211 q 798 1222 781 1211 q 819 1263 814 1233 l 966 1238 q 938 1152 957 1188 q 892 1093 918 1116 q 833 1058 865 1069 q 767 1047 801 1047 q 704 1055 733 1047 q 650 1073 675 1063 q 603 1091 625 1083 q 562 1099 582 1099 q 522 1088 538 1099 q 500 1047 506 1076 l 353 1072 z "},"Ò":{"ha":1298,"x_min":115,"x_max":1183,"o":"m 115 779 q 185 943 115 904 q 367 982 255 982 l 929 982 q 1113 943 1042 982 q 1183 779 1183 904 l 1183 201 q 1116 31 1183 72 q 929 -10 1049 -10 l 367 -10 q 182 31 248 -10 q 115 201 115 72 l 115 779 m 361 764 l 361 208 q 361 208 361 208 q 361 208 361 208 l 937 208 q 937 208 937 208 q 937 208 937 208 l 937 764 q 937 764 937 764 q 937 764 937 764 l 361 764 q 361 764 361 764 q 361 764 361 764 m 584 1044 l 339 1260 l 622 1260 l 815 1044 l 584 1044 z "},"Ó":{"ha":1298,"x_min":115,"x_max":1183,"o":"m 115 779 q 185 943 115 904 q 367 982 255 982 l 929 982 q 1113 943 1042 982 q 1183 779 1183 904 l 1183 201 q 1116 31 1183 72 q 929 -10 1049 -10 l 367 -10 q 182 31 248 -10 q 115 201 115 72 l 115 779 m 361 764 l 361 208 q 361 208 361 208 q 361 208 361 208 l 937 208 q 937 208 937 208 q 937 208 937 208 l 937 764 q 937 764 937 764 q 937 764 937 764 l 361 764 q 361 764 361 764 q 361 764 361 764 m 482 1044 l 675 1260 l 958 1260 l 713 1044 l 482 1044 z "},"Ô":{"ha":1298,"x_min":115,"x_max":1183,"o":"m 115 779 q 185 943 115 904 q 367 982 255 982 l 929 982 q 1113 943 1042 982 q 1183 779 1183 904 l 1183 201 q 1116 31 1183 72 q 929 -10 1049 -10 l 367 -10 q 182 31 248 -10 q 115 201 115 72 l 115 779 m 361 764 l 361 208 q 361 208 361 208 q 361 208 361 208 l 937 208 q 937 208 937 208 q 937 208 937 208 l 937 764 q 937 764 937 764 q 937 764 937 764 l 361 764 q 361 764 361 764 q 361 764 361 764 m 342 1044 l 543 1260 l 756 1260 l 956 1044 l 737 1044 l 647 1167 l 556 1044 l 342 1044 z "},"Õ":{"ha":1298,"x_min":115,"x_max":1183,"o":"m 115 779 q 185 943 115 904 q 367 982 255 982 l 929 982 q 1113 943 1042 982 q 1183 779 1183 904 l 1183 201 q 1116 31 1183 72 q 929 -10 1049 -10 l 367 -10 q 182 31 248 -10 q 115 201 115 72 l 115 779 m 361 764 l 361 208 q 361 208 361 208 q 361 208 361 208 l 937 208 q 937 208 937 208 q 937 208 937 208 l 937 764 q 937 764 937 764 q 937 764 937 764 l 361 764 q 361 764 361 764 q 361 764 361 764 m 342 1082 q 371 1169 351 1133 q 417 1228 390 1205 q 475 1261 443 1251 q 541 1272 506 1272 q 604 1264 575 1272 q 658 1247 633 1256 q 705 1229 683 1237 q 746 1221 726 1221 q 786 1232 769 1221 q 808 1272 803 1243 l 954 1248 q 926 1162 945 1198 q 880 1102 906 1126 q 822 1068 853 1079 q 756 1056 790 1056 q 692 1065 722 1056 q 639 1082 663 1073 q 592 1100 614 1092 q 551 1108 570 1108 q 511 1097 527 1108 q 488 1057 494 1086 l 342 1082 z "},"Ö":{"ha":1298,"x_min":115,"x_max":1183,"o":"m 115 779 q 185 943 115 904 q 367 982 255 982 l 929 982 q 1113 943 1042 982 q 1183 779 1183 904 l 1183 201 q 1116 31 1183 72 q 929 -10 1049 -10 l 367 -10 q 182 31 248 -10 q 115 201 115 72 l 115 779 m 361 764 l 361 208 q 361 208 361 208 q 361 208 361 208 l 937 208 q 937 208 937 208 q 937 208 937 208 l 937 764 q 937 764 937 764 q 937 764 937 764 l 361 764 q 361 764 361 764 q 361 764 361 764 m 452 1057 q 394 1066 403 1057 q 385 1124 385 1074 l 385 1188 q 394 1244 385 1235 q 452 1253 403 1253 l 524 1253 q 581 1244 572 1253 q 590 1188 590 1235 l 590 1124 q 581 1066 590 1074 q 524 1057 572 1057 l 452 1057 m 773 1057 q 716 1066 724 1057 q 707 1124 707 1074 l 707 1188 q 716 1244 707 1235 q 773 1253 724 1253 l 844 1253 q 902 1244 893 1253 q 911 1188 911 1235 l 911 1124 q 902 1066 911 1074 q 844 1057 893 1057 l 773 1057 z "},"Ø":{"ha":1456,"x_min":115,"x_max":1341,"o":"m 195 779 q 265 943 195 904 q 447 982 334 982 l 1008 982 q 1192 943 1122 982 q 1262 779 1262 904 l 1262 201 q 1195 31 1262 72 q 1008 -10 1128 -10 l 447 -10 q 261 31 327 -10 q 195 201 195 72 l 195 779 m 441 768 l 441 204 q 441 204 441 204 q 441 204 441 204 l 1016 204 q 1016 204 1016 204 q 1016 204 1016 204 l 1016 768 q 1016 768 1016 768 q 1016 768 1016 768 l 441 768 q 441 768 441 768 q 441 768 441 768 m 197 -42 l 115 53 l 1260 1014 l 1341 919 l 197 -42 z "},"Ù":{"ha":1226,"x_min":125,"x_max":1101,"o":"m 125 972 l 371 972 l 371 213 q 371 213 371 213 q 371 213 371 213 l 855 213 q 855 213 855 213 q 855 213 855 213 l 855 972 l 1101 972 l 1101 201 q 1033 30 1101 70 q 848 -10 966 -10 l 376 -10 q 272 -1 319 -10 q 192 30 225 7 q 142 94 160 53 q 125 201 125 135 l 125 972 m 549 1034 l 303 1250 l 586 1250 l 779 1034 l 549 1034 z "},"Ú":{"ha":1226,"x_min":125,"x_max":1101,"o":"m 125 972 l 371 972 l 371 213 q 371 213 371 213 q 371 213 371 213 l 855 213 q 855 213 855 213 q 855 213 855 213 l 855 972 l 1101 972 l 1101 201 q 1033 30 1101 70 q 848 -10 966 -10 l 376 -10 q 272 -1 319 -10 q 192 30 225 7 q 142 94 160 53 q 125 201 125 135 l 125 972 m 447 1034 l 640 1250 l 922 1250 l 677 1034 l 447 1034 z "},"Û":{"ha":1226,"x_min":125,"x_max":1101,"o":"m 125 972 l 371 972 l 371 213 q 371 213 371 213 q 371 213 371 213 l 855 213 q 855 213 855 213 q 855 213 855 213 l 855 972 l 1101 972 l 1101 201 q 1033 30 1101 70 q 848 -10 966 -10 l 376 -10 q 272 -1 319 -10 q 192 30 225 7 q 142 94 160 53 q 125 201 125 135 l 125 972 m 306 1034 l 508 1250 l 720 1250 l 921 1034 l 701 1034 l 611 1158 l 521 1034 l 306 1034 z "},"Ü":{"ha":1226,"x_min":125,"x_max":1101,"o":"m 125 972 l 371 972 l 371 213 q 371 213 371 213 q 371 213 371 213 l 855 213 q 855 213 855 213 q 855 213 855 213 l 855 972 l 1101 972 l 1101 201 q 1033 30 1101 70 q 848 -10 966 -10 l 376 -10 q 272 -1 319 -10 q 192 30 225 7 q 142 94 160 53 q 125 201 125 135 l 125 972 m 417 1047 q 359 1056 368 1047 q 350 1114 350 1065 l 350 1178 q 359 1234 350 1226 q 417 1243 368 1243 l 488 1243 q 545 1234 537 1243 q 554 1178 554 1226 l 554 1114 q 545 1056 554 1065 q 488 1047 537 1047 l 417 1047 m 738 1047 q 680 1056 689 1047 q 672 1114 672 1065 l 672 1178 q 680 1234 672 1226 q 738 1243 689 1243 l 809 1243 q 867 1234 858 1243 q 876 1178 876 1226 l 876 1114 q 867 1056 876 1065 q 809 1047 858 1047 l 738 1047 z "},"Ý":{"ha":1156,"x_min":0,"x_max":1156,"o":"m 465 0 l 465 420 l 0 972 l 326 972 l 596 620 l 866 972 l 1156 972 l 710 422 l 710 0 l 465 0 m 412 1034 l 605 1250 l 888 1250 l 642 1034 l 412 1034 z "},"Ÿ":{"ha":1156,"x_min":0,"x_max":1156,"o":"m 465 0 l 465 420 l 0 972 l 326 972 l 596 620 l 866 972 l 1156 972 l 710 422 l 710 0 l 465 0 m 382 1047 q 324 1056 333 1047 q 315 1114 315 1065 l 315 1178 q 324 1234 315 1226 q 382 1243 333 1243 l 453 1243 q 511 1234 502 1243 q 520 1178 520 1226 l 520 1114 q 511 1056 520 1065 q 453 1047 502 1047 l 382 1047 m 703 1047 q 645 1056 654 1047 q 637 1114 637 1065 l 637 1178 q 645 1234 637 1226 q 703 1243 654 1243 l 774 1243 q 832 1234 824 1243 q 841 1178 841 1226 l 841 1114 q 832 1056 841 1065 q 774 1047 824 1047 l 703 1047 z "},"Ž":{"ha":1047,"x_min":55,"x_max":982,"o":"m 55 0 l 55 95 l 604 767 l 607 760 l 115 760 l 115 972 l 978 972 l 978 877 l 429 206 l 426 212 l 982 212 l 982 0 l 55 0 m 456 1034 l 256 1250 l 476 1250 l 566 1126 l 656 1250 l 871 1250 l 669 1034 l 456 1034 z "},"à":{"ha":985,"x_min":91,"x_max":878,"o":"m 272 -7 q 140 23 190 -7 q 91 145 91 52 l 91 272 q 152 389 91 362 q 292 417 213 417 l 650 417 l 650 541 q 650 541 650 541 q 650 541 650 541 l 333 541 q 333 541 333 541 q 333 541 333 541 l 333 487 l 105 528 l 105 557 q 155 677 105 649 q 286 706 205 706 l 697 706 q 828 678 778 706 q 878 554 878 649 l 878 0 l 650 0 l 650 104 q 581 17 632 40 q 464 -7 531 -7 l 272 -7 m 322 149 q 322 149 322 149 q 322 149 322 149 l 650 149 l 650 269 l 322 269 q 322 269 322 269 q 322 269 322 269 l 322 149 m 463 761 l 213 1010 l 450 1010 l 665 761 l 463 761 z "},"á":{"ha":985,"x_min":91,"x_max":878,"o":"m 272 -7 q 140 23 190 -7 q 91 145 91 52 l 91 272 q 152 389 91 362 q 292 417 213 417 l 650 417 l 650 541 q 650 541 650 541 q 650 541 650 541 l 333 541 q 333 541 333 541 q 333 541 333 541 l 333 487 l 105 528 l 105 557 q 155 677 105 649 q 286 706 205 706 l 697 706 q 828 678 778 706 q 878 554 878 649 l 878 0 l 650 0 l 650 104 q 581 17 632 40 q 464 -7 531 -7 l 272 -7 m 322 149 q 322 149 322 149 q 322 149 322 149 l 650 149 l 650 269 l 322 269 q 322 269 322 269 q 322 269 322 269 l 322 149 m 326 756 l 541 1006 l 778 1006 l 528 756 l 326 756 z "},"â":{"ha":985,"x_min":91,"x_max":878,"o":"m 272 -7 q 140 23 190 -7 q 91 145 91 52 l 91 272 q 152 389 91 362 q 292 417 213 417 l 650 417 l 650 541 q 650 541 650 541 q 650 541 650 541 l 333 541 q 333 541 333 541 q 333 541 333 541 l 333 487 l 105 528 l 105 557 q 155 677 105 649 q 286 706 205 706 l 697 706 q 828 678 778 706 q 878 554 878 649 l 878 0 l 650 0 l 650 104 q 581 17 632 40 q 464 -7 531 -7 l 272 -7 m 322 149 q 322 149 322 149 q 322 149 322 149 l 650 149 l 650 269 l 322 269 q 322 269 322 269 q 322 269 322 269 l 322 149 m 210 761 l 419 1010 l 574 1010 l 781 761 l 584 761 l 494 899 l 403 761 l 210 761 z "},"ã":{"ha":985,"x_min":91,"x_max":878,"o":"m 272 -7 q 140 23 190 -7 q 91 145 91 52 l 91 272 q 152 389 91 362 q 292 417 213 417 l 650 417 l 650 541 q 650 541 650 541 q 650 541 650 541 l 333 541 q 333 541 333 541 q 333 541 333 541 l 333 487 l 105 528 l 105 557 q 155 677 105 649 q 286 706 205 706 l 697 706 q 828 678 778 706 q 878 554 878 649 l 878 0 l 650 0 l 650 104 q 581 17 632 40 q 464 -7 531 -7 l 272 -7 m 322 149 q 322 149 322 149 q 322 149 322 149 l 650 149 l 650 269 l 322 269 q 322 269 322 269 q 322 269 322 269 l 322 149 m 199 803 q 269 945 217 904 q 388 985 321 985 q 451 977 422 985 q 505 957 480 968 q 552 938 530 947 q 593 929 574 929 q 633 943 617 929 q 656 985 650 956 l 792 962 q 722 821 774 863 q 603 779 671 779 q 540 788 569 779 q 486 807 510 797 q 439 827 461 818 q 398 836 417 836 q 358 822 374 836 q 335 779 341 808 l 199 803 z "},"ä":{"ha":985,"x_min":91,"x_max":878,"o":"m 272 -7 q 140 23 190 -7 q 91 145 91 52 l 91 272 q 152 389 91 362 q 292 417 213 417 l 650 417 l 650 541 q 650 541 650 541 q 650 541 650 541 l 333 541 q 333 541 333 541 q 333 541 333 541 l 333 487 l 105 528 l 105 557 q 155 677 105 649 q 286 706 205 706 l 697 706 q 828 678 778 706 q 878 554 878 649 l 878 0 l 650 0 l 650 104 q 581 17 632 40 q 464 -7 531 -7 l 272 -7 m 322 149 q 322 149 322 149 q 322 149 322 149 l 650 149 l 650 269 l 322 269 q 322 269 322 269 q 322 269 322 269 l 322 149 m 315 789 q 257 798 265 789 q 248 856 248 807 l 248 910 q 257 967 248 959 q 315 976 265 976 l 372 976 q 430 967 422 976 q 439 910 439 959 l 439 856 q 430 798 439 807 q 372 789 422 789 l 315 789 m 618 789 q 561 798 569 789 q 552 856 552 807 l 552 910 q 561 967 552 959 q 618 976 569 976 l 676 976 q 734 967 726 976 q 743 910 743 959 l 743 856 q 734 798 743 807 q 676 789 726 789 l 618 789 z "},"å":{"ha":985,"x_min":91,"x_max":878,"o":"m 272 -7 q 140 23 190 -7 q 91 145 91 52 l 91 272 q 152 389 91 362 q 292 417 213 417 l 650 417 l 650 541 q 650 541 650 541 q 650 541 650 541 l 333 541 q 333 541 333 541 q 333 541 333 541 l 333 487 l 105 528 l 105 557 q 155 677 105 649 q 286 706 205 706 l 697 706 q 828 678 778 706 q 878 554 878 649 l 878 0 l 650 0 l 650 104 q 581 17 632 40 q 464 -7 531 -7 l 272 -7 m 322 149 q 322 149 322 149 q 322 149 322 149 l 650 149 l 650 269 l 322 269 q 322 269 322 269 q 322 269 322 269 l 322 149 m 495 751 q 416 756 446 751 q 369 777 386 762 q 348 818 353 792 q 342 888 342 845 q 348 958 342 931 q 369 1000 353 985 q 416 1020 386 1015 q 495 1025 446 1025 q 574 1020 544 1025 q 621 1000 604 1015 q 643 958 638 985 q 649 888 649 931 q 643 818 649 845 q 621 777 638 792 q 574 756 604 762 q 495 751 544 751 m 496 841 q 534 851 526 841 q 543 888 543 861 q 534 925 543 915 q 496 935 526 935 q 456 925 465 935 q 448 888 448 915 q 456 851 448 861 q 496 841 465 841 z "},"ç":{"ha":971,"x_min":98,"x_max":897,"o":"m 98 153 l 98 553 q 143 671 98 635 q 290 706 188 706 l 703 706 q 850 671 807 706 q 894 554 894 636 l 894 478 l 666 435 l 666 519 q 666 519 666 519 q 666 519 666 519 l 326 519 q 326 519 326 519 q 326 519 326 519 l 326 181 q 326 181 326 181 q 326 181 326 181 l 669 181 q 669 181 669 181 q 669 181 669 181 l 669 270 l 897 223 l 897 153 q 853 30 897 66 q 705 -7 810 -7 l 290 -7 q 141 30 185 -7 q 98 153 98 66 m 480 -304 q 416 -296 445 -304 q 362 -269 388 -287 l 392 -214 q 416 -223 401 -219 q 446 -226 432 -226 q 483 -215 470 -226 q 496 -184 496 -204 q 483 -155 496 -165 q 447 -144 471 -144 q 418 -147 433 -144 q 388 -155 403 -150 l 464 10 l 497 10 l 531 10 l 494 -69 q 594 -99 560 -70 q 628 -181 628 -127 q 589 -272 628 -240 q 480 -304 551 -304 z "},"è":{"ha":993,"x_min":98,"x_max":895,"o":"m 98 184 l 98 538 q 149 664 98 622 q 312 706 201 706 l 676 706 q 842 664 788 706 q 895 535 895 621 l 895 280 l 326 280 l 326 155 q 326 155 326 155 q 326 155 326 155 l 667 155 q 667 155 667 155 q 667 155 667 155 l 667 224 l 895 185 l 895 177 q 839 35 895 77 q 654 -7 783 -7 l 325 -7 q 152 37 207 -7 q 98 184 98 81 m 326 425 l 667 425 l 667 544 q 667 544 667 544 q 667 544 667 544 l 326 544 q 326 544 326 544 q 326 544 326 544 l 326 425 m 461 761 l 212 1010 l 449 1010 l 663 761 l 461 761 z "},"é":{"ha":993,"x_min":98,"x_max":895,"o":"m 98 184 l 98 538 q 149 664 98 622 q 312 706 201 706 l 676 706 q 842 664 788 706 q 895 535 895 621 l 895 280 l 326 280 l 326 155 q 326 155 326 155 q 326 155 326 155 l 667 155 q 667 155 667 155 q 667 155 667 155 l 667 224 l 895 185 l 895 177 q 839 35 895 77 q 654 -7 783 -7 l 325 -7 q 152 37 207 -7 q 98 184 98 81 m 326 425 l 667 425 l 667 544 q 667 544 667 544 q 667 544 667 544 l 326 544 q 326 544 326 544 q 326 544 326 544 l 326 425 m 325 756 l 540 1006 l 776 1006 l 527 756 l 325 756 z "},"ê":{"ha":993,"x_min":98,"x_max":895,"o":"m 98 184 l 98 538 q 149 664 98 622 q 312 706 201 706 l 676 706 q 842 664 788 706 q 895 535 895 621 l 895 280 l 326 280 l 326 155 q 326 155 326 155 q 326 155 326 155 l 667 155 q 667 155 667 155 q 667 155 667 155 l 667 224 l 895 185 l 895 177 q 839 35 895 77 q 654 -7 783 -7 l 325 -7 q 152 37 207 -7 q 98 184 98 81 m 326 425 l 667 425 l 667 544 q 667 544 667 544 q 667 544 667 544 l 326 544 q 326 544 326 544 q 326 544 326 544 l 326 425 m 209 761 l 417 1010 l 572 1010 l 780 761 l 583 761 l 492 899 l 401 761 l 209 761 z "},"ë":{"ha":993,"x_min":98,"x_max":895,"o":"m 98 184 l 98 538 q 149 664 98 622 q 312 706 201 706 l 676 706 q 842 664 788 706 q 895 535 895 621 l 895 280 l 326 280 l 326 155 q 326 155 326 155 q 326 155 326 155 l 667 155 q 667 155 667 155 q 667 155 667 155 l 667 224 l 895 185 l 895 177 q 839 35 895 77 q 654 -7 783 -7 l 325 -7 q 152 37 207 -7 q 98 184 98 81 m 326 425 l 667 425 l 667 544 q 667 544 667 544 q 667 544 667 544 l 326 544 q 326 544 326 544 q 326 544 326 544 l 326 425 m 313 789 q 255 798 264 789 q 247 856 247 807 l 247 910 q 255 967 247 959 q 313 976 264 976 l 372 976 q 429 967 420 976 q 438 910 438 959 l 438 856 q 429 798 438 807 q 372 789 420 789 l 313 789 m 617 789 q 559 798 568 789 q 551 856 551 807 l 551 910 q 559 967 551 959 q 617 976 568 976 l 675 976 q 733 967 724 976 q 742 910 742 959 l 742 856 q 733 798 742 807 q 675 789 724 789 l 617 789 z "},"ì":{"ha":458,"x_min":-53,"x_max":398,"o":"m 115 0 l 115 699 l 343 699 l 343 0 l 115 0 m 197 761 l -53 1010 l 183 1010 l 398 761 l 197 761 z "},"í":{"ha":458,"x_min":60,"x_max":512,"o":"m 115 0 l 115 699 l 343 699 l 343 0 l 115 0 m 60 756 l 274 1006 l 512 1006 l 262 756 l 60 756 z "},"î":{"ha":458,"x_min":-56,"x_max":515,"o":"m 115 0 l 115 699 l 343 699 l 343 0 l 115 0 m -56 761 l 152 1010 l 307 1010 l 515 761 l 317 761 l 227 899 l 136 761 l -56 761 z "},"ï":{"ha":458,"x_min":-19,"x_max":476,"o":"m 115 0 l 115 699 l 343 699 l 343 0 l 115 0 m 48 789 q -10 798 -1 789 q -19 856 -19 807 l -19 910 q -10 967 -19 959 q 48 976 -1 976 l 106 976 q 164 967 155 976 q 173 910 173 959 l 173 856 q 164 798 173 807 q 106 789 155 789 l 48 789 m 352 789 q 294 798 303 789 q 285 856 285 807 l 285 910 q 294 967 285 959 q 352 976 303 976 l 410 976 q 468 967 459 976 q 476 910 476 959 l 476 856 q 468 798 476 807 q 410 789 459 789 l 352 789 z "},"ñ":{"ha":985,"x_min":115,"x_max":879,"o":"m 115 0 l 115 699 l 343 699 l 343 634 q 411 688 365 670 q 540 706 458 706 l 648 706 q 825 663 771 706 q 879 522 879 620 l 879 0 l 651 0 l 651 508 q 651 508 651 508 q 651 508 651 508 l 343 508 l 343 0 l 115 0 m 200 810 q 270 952 218 911 q 390 992 322 992 q 453 984 424 992 q 507 964 482 975 q 553 945 531 953 q 595 936 575 936 q 635 950 618 936 q 658 992 651 963 l 794 969 q 724 828 776 870 q 605 786 672 786 q 541 795 570 786 q 488 814 513 803 q 441 834 463 825 q 399 843 419 843 q 359 829 376 843 q 337 786 343 815 l 200 810 z "},"ò":{"ha":1005,"x_min":98,"x_max":907,"o":"m 98 152 l 98 554 q 142 670 98 635 q 286 706 186 706 l 719 706 q 863 670 819 706 q 907 554 907 635 l 907 152 q 864 30 907 67 q 719 -7 821 -7 l 286 -7 q 141 30 185 -7 q 98 152 98 67 m 326 181 q 326 181 326 181 q 326 181 326 181 l 678 181 q 678 181 678 181 q 678 181 678 181 l 678 519 q 678 519 678 519 q 678 519 678 519 l 326 519 q 326 519 326 519 q 326 519 326 519 l 326 181 m 469 761 l 219 1010 l 457 1010 l 672 761 l 469 761 z "},"ó":{"ha":1005,"x_min":98,"x_max":907,"o":"m 98 152 l 98 554 q 142 670 98 635 q 286 706 186 706 l 719 706 q 863 670 819 706 q 907 554 907 635 l 907 152 q 864 30 907 67 q 719 -7 821 -7 l 286 -7 q 141 30 185 -7 q 98 152 98 67 m 326 181 q 326 181 326 181 q 326 181 326 181 l 678 181 q 678 181 678 181 q 678 181 678 181 l 678 519 q 678 519 678 519 q 678 519 678 519 l 326 519 q 326 519 326 519 q 326 519 326 519 l 326 181 m 333 756 l 548 1006 l 785 1006 l 535 756 l 333 756 z "},"ô":{"ha":1005,"x_min":98,"x_max":907,"o":"m 98 152 l 98 554 q 142 670 98 635 q 286 706 186 706 l 719 706 q 863 670 819 706 q 907 554 907 635 l 907 152 q 864 30 907 67 q 719 -7 821 -7 l 286 -7 q 141 30 185 -7 q 98 152 98 67 m 326 181 q 326 181 326 181 q 326 181 326 181 l 678 181 q 678 181 678 181 q 678 181 678 181 l 678 519 q 678 519 678 519 q 678 519 678 519 l 326 519 q 326 519 326 519 q 326 519 326 519 l 326 181 m 217 761 l 426 1010 l 581 1010 l 788 761 l 591 761 l 501 899 l 410 761 l 217 761 z "},"õ":{"ha":1005,"x_min":98,"x_max":907,"o":"m 98 152 l 98 554 q 142 670 98 635 q 286 706 186 706 l 719 706 q 863 670 819 706 q 907 554 907 635 l 907 152 q 864 30 907 67 q 719 -7 821 -7 l 286 -7 q 141 30 185 -7 q 98 152 98 67 m 326 181 q 326 181 326 181 q 326 181 326 181 l 678 181 q 678 181 678 181 q 678 181 678 181 l 678 519 q 678 519 678 519 q 678 519 678 519 l 326 519 q 326 519 326 519 q 326 519 326 519 l 326 181 m 206 803 q 276 945 224 904 q 395 985 328 985 q 458 977 429 985 q 512 957 487 968 q 559 938 537 947 q 600 929 581 929 q 640 943 624 929 q 663 985 657 956 l 799 962 q 729 821 781 863 q 610 779 677 779 q 547 788 576 779 q 493 807 517 797 q 446 827 468 818 q 405 836 424 836 q 365 822 381 836 q 342 779 348 808 l 206 803 z "},"ö":{"ha":1005,"x_min":98,"x_max":907,"o":"m 98 152 l 98 554 q 142 670 98 635 q 286 706 186 706 l 719 706 q 863 670 819 706 q 907 554 907 635 l 907 152 q 864 30 907 67 q 719 -7 821 -7 l 286 -7 q 141 30 185 -7 q 98 152 98 67 m 326 181 q 326 181 326 181 q 326 181 326 181 l 678 181 q 678 181 678 181 q 678 181 678 181 l 678 519 q 678 519 678 519 q 678 519 678 519 l 326 519 q 326 519 326 519 q 326 519 326 519 l 326 181 m 321 789 q 264 798 272 789 q 255 856 255 807 l 255 910 q 264 967 255 959 q 321 976 272 976 l 379 976 q 437 967 428 976 q 446 910 446 959 l 446 856 q 437 798 446 807 q 379 789 428 789 l 321 789 m 625 789 q 568 798 576 789 q 559 856 559 807 l 559 910 q 568 967 559 959 q 625 976 576 976 l 683 976 q 741 967 733 976 q 750 910 750 959 l 750 856 q 741 798 750 807 q 683 789 733 789 l 625 789 z "},"ø":{"ha":1094,"x_min":98,"x_max":997,"o":"m 142 152 l 142 554 q 186 670 142 635 q 330 706 230 706 l 763 706 q 907 670 863 706 q 951 554 951 635 l 951 152 q 908 30 951 67 q 763 -7 865 -7 l 330 -7 q 185 30 229 -7 q 142 152 142 67 m 366 175 q 366 175 366 175 q 366 175 366 175 l 726 175 q 726 175 726 175 q 726 175 726 175 l 726 521 q 726 521 726 521 q 726 521 726 521 l 366 521 q 366 521 366 521 q 366 521 366 521 l 366 175 m 171 -42 l 98 44 l 253 176 l 289 201 l 735 583 l 767 601 l 924 736 l 997 651 l 838 515 l 806 497 l 358 113 l 322 87 l 171 -42 z "},"ù":{"ha":980,"x_min":106,"x_max":874,"o":"m 106 137 l 106 699 l 335 699 l 335 189 q 335 189 335 189 q 335 189 335 189 l 645 189 q 645 189 645 189 q 645 189 645 189 l 645 699 l 874 699 l 874 137 q 828 22 874 49 q 703 -5 783 -5 l 276 -5 q 151 22 196 -5 q 106 137 106 49 m 458 761 l 208 1010 l 444 1010 l 659 761 l 458 761 z "},"ú":{"ha":980,"x_min":106,"x_max":874,"o":"m 106 137 l 106 699 l 335 699 l 335 189 q 335 189 335 189 q 335 189 335 189 l 645 189 q 645 189 645 189 q 645 189 645 189 l 645 699 l 874 699 l 874 137 q 828 22 874 49 q 703 -5 783 -5 l 276 -5 q 151 22 196 -5 q 106 137 106 49 m 321 756 l 535 1006 l 773 1006 l 523 756 l 321 756 z "},"û":{"ha":980,"x_min":106,"x_max":874,"o":"m 106 137 l 106 699 l 335 699 l 335 189 q 335 189 335 189 q 335 189 335 189 l 645 189 q 645 189 645 189 q 645 189 645 189 l 645 699 l 874 699 l 874 137 q 828 22 874 49 q 703 -5 783 -5 l 276 -5 q 151 22 196 -5 q 106 137 106 49 m 205 761 l 413 1010 l 568 1010 l 776 761 l 578 761 l 488 899 l 397 761 l 205 761 z "},"ü":{"ha":980,"x_min":106,"x_max":874,"o":"m 106 137 l 106 699 l 335 699 l 335 189 q 335 189 335 189 q 335 189 335 189 l 645 189 q 645 189 645 189 q 645 189 645 189 l 645 699 l 874 699 l 874 137 q 828 22 874 49 q 703 -5 783 -5 l 276 -5 q 151 22 196 -5 q 106 137 106 49 m 309 789 q 251 798 260 789 q 242 856 242 807 l 242 910 q 251 967 242 959 q 309 976 260 976 l 367 976 q 425 967 416 976 q 433 910 433 959 l 433 856 q 425 798 433 807 q 367 789 416 789 l 309 789 m 613 789 q 555 798 564 789 q 547 856 547 807 l 547 910 q 555 967 547 959 q 613 976 564 976 l 672 976 q 729 967 720 976 q 738 910 738 959 l 738 856 q 729 798 738 807 q 672 789 720 789 l 613 789 z "},"ý":{"ha":874,"x_min":3,"x_max":872,"o":"m 58 -297 l 21 -117 l 262 -117 q 262 -117 262 -117 q 262 -117 262 -117 l 335 38 l 3 699 l 260 699 l 454 292 l 646 699 l 872 699 l 466 -147 q 425 -219 446 -190 q 376 -266 403 -249 q 310 -290 348 -283 q 219 -297 272 -297 l 58 -297 m 268 756 l 483 1006 l 719 1006 l 470 756 l 268 756 z "},"ÿ":{"ha":874,"x_min":3,"x_max":872,"o":"m 58 -297 l 21 -117 l 262 -117 q 262 -117 262 -117 q 262 -117 262 -117 l 335 38 l 3 699 l 260 699 l 454 292 l 646 699 l 872 699 l 466 -147 q 425 -219 446 -190 q 376 -266 403 -249 q 310 -290 348 -283 q 219 -297 272 -297 l 58 -297 m 256 789 q 198 798 207 789 q 190 856 190 807 l 190 910 q 198 967 190 959 q 256 976 207 976 l 314 976 q 372 967 363 976 q 381 910 381 959 l 381 856 q 372 798 381 807 q 314 789 363 789 l 256 789 m 560 789 q 502 798 511 789 q 494 856 494 807 l 494 910 q 502 967 494 959 q 560 976 511 976 l 618 976 q 676 967 667 976 q 685 910 685 959 l 685 856 q 676 798 685 807 q 618 789 667 789 l 560 789 z "},"ž":{"ha":827,"x_min":50,"x_max":777,"o":"m 50 0 l 50 88 l 435 531 l 431 519 l 92 519 l 92 699 l 773 699 l 773 612 l 388 165 l 392 180 l 777 180 l 777 0 l 50 0 m 338 759 l 130 1008 l 327 1008 l 417 872 l 508 1008 l 701 1008 l 492 759 l 338 759 z "},"Ā":{"ha":1219,"x_min":0,"x_max":1219,"o":"m 0 0 l 500 972 l 714 972 l 1219 0 l 931 0 l 833 196 l 363 196 l 262 0 l 0 0 m 459 383 l 742 383 l 602 661 l 459 383 m 365 1071 l 365 1223 l 855 1223 l 855 1071 l 365 1071 z "},"Ă":{"ha":1219,"x_min":0,"x_max":1219,"o":"m 0 0 l 500 972 l 714 972 l 1219 0 l 931 0 l 833 196 l 363 196 l 262 0 l 0 0 m 459 383 l 742 383 l 602 661 l 459 383 m 610 1037 q 490 1047 538 1037 q 414 1083 442 1058 q 375 1150 386 1108 q 364 1256 364 1192 l 513 1256 q 518 1211 513 1228 q 535 1184 524 1194 q 565 1170 546 1174 q 610 1167 583 1167 q 656 1170 638 1167 q 685 1184 674 1174 q 701 1211 697 1194 q 706 1256 706 1228 l 856 1256 q 845 1150 856 1192 q 806 1083 834 1108 q 731 1047 778 1058 q 610 1037 683 1037 z "},"Ą":{"ha":1219,"x_min":0,"x_max":1219,"o":"m 0 0 l 500 972 l 714 972 l 1219 0 l 931 0 l 833 196 l 363 196 l 262 0 l 0 0 m 459 383 l 742 383 l 602 661 l 459 383 m 1003 -299 q 861 -266 918 -299 q 804 -163 804 -233 q 838 -68 804 -111 q 931 0 872 -24 l 1119 0 q 1034 -30 1067 -6 q 1001 -90 1001 -54 q 1028 -135 1001 -122 q 1094 -149 1055 -149 q 1149 -143 1121 -149 q 1203 -127 1176 -137 l 1171 -267 q 1091 -291 1134 -283 q 1003 -299 1049 -299 z "},"Ć":{"ha":1174,"x_min":115,"x_max":1089,"o":"m 115 779 q 177 937 115 892 q 367 982 239 982 l 831 982 q 1022 937 960 982 q 1083 779 1083 892 l 1083 648 l 838 603 l 838 768 q 838 768 838 768 q 838 768 838 768 l 361 768 q 361 768 361 768 q 361 768 361 768 l 361 204 q 361 204 361 204 q 361 204 361 204 l 843 204 q 843 204 843 204 q 843 204 843 204 l 843 388 l 1089 340 l 1089 201 q 1028 36 1089 83 q 835 -10 968 -10 l 367 -10 q 175 36 235 -10 q 115 201 115 83 l 115 779 m 433 1044 l 626 1260 l 908 1260 l 663 1044 l 433 1044 z "},"Ĉ":{"ha":1174,"x_min":115,"x_max":1089,"o":"m 115 779 q 177 937 115 892 q 367 982 239 982 l 831 982 q 1022 937 960 982 q 1083 779 1083 892 l 1083 648 l 838 603 l 838 768 q 838 768 838 768 q 838 768 838 768 l 361 768 q 361 768 361 768 q 361 768 361 768 l 361 204 q 361 204 361 204 q 361 204 361 204 l 843 204 q 843 204 843 204 q 843 204 843 204 l 843 388 l 1089 340 l 1089 201 q 1028 36 1089 83 q 835 -10 968 -10 l 367 -10 q 175 36 235 -10 q 115 201 115 83 l 115 779 m 292 1044 l 494 1260 l 706 1260 l 907 1044 l 688 1044 l 597 1167 l 507 1044 l 292 1044 z "},"Ċ":{"ha":1174,"x_min":115,"x_max":1089,"o":"m 115 779 q 177 937 115 892 q 367 982 239 982 l 831 982 q 1022 937 960 982 q 1083 779 1083 892 l 1083 648 l 838 603 l 838 768 q 838 768 838 768 q 838 768 838 768 l 361 768 q 361 768 361 768 q 361 768 361 768 l 361 204 q 361 204 361 204 q 361 204 361 204 l 843 204 q 843 204 843 204 q 843 204 843 204 l 843 388 l 1089 340 l 1089 201 q 1028 36 1089 83 q 835 -10 968 -10 l 367 -10 q 175 36 235 -10 q 115 201 115 83 l 115 779 m 566 1067 q 506 1076 515 1067 q 497 1137 497 1085 l 497 1196 q 506 1256 497 1247 q 566 1265 515 1265 l 632 1265 q 692 1256 683 1265 q 701 1196 701 1247 l 701 1137 q 692 1076 701 1085 q 632 1067 683 1067 l 566 1067 z "},"Č":{"ha":1174,"x_min":115,"x_max":1089,"o":"m 115 779 q 177 937 115 892 q 367 982 239 982 l 831 982 q 1022 937 960 982 q 1083 779 1083 892 l 1083 648 l 838 603 l 838 768 q 838 768 838 768 q 838 768 838 768 l 361 768 q 361 768 361 768 q 361 768 361 768 l 361 204 q 361 204 361 204 q 361 204 361 204 l 843 204 q 843 204 843 204 q 843 204 843 204 l 843 388 l 1089 340 l 1089 201 q 1028 36 1089 83 q 835 -10 968 -10 l 367 -10 q 175 36 235 -10 q 115 201 115 83 l 115 779 m 490 1044 l 290 1260 l 510 1260 l 600 1136 l 690 1260 l 905 1260 l 703 1044 l 490 1044 z "},"Ď":{"ha":1288,"x_min":135,"x_max":1215,"o":"m 381 210 l 694 210 q 811 225 761 210 q 894 274 861 240 q 944 361 928 308 q 961 492 961 415 q 944 618 961 567 q 893 702 927 669 q 810 748 860 734 q 694 763 760 763 l 381 763 l 381 210 m 135 0 l 135 972 l 736 972 q 927 942 840 972 q 1078 852 1015 913 q 1178 700 1142 792 q 1215 486 1215 609 q 1177 263 1215 356 q 1074 113 1139 171 q 922 27 1010 54 q 736 0 835 0 l 135 0 m 472 1034 l 271 1250 l 490 1250 l 581 1126 l 672 1250 l 886 1250 l 685 1034 l 472 1034 z "},"Đ":{"ha":1288,"x_min":62,"x_max":1215,"o":"m 135 0 l 135 401 l 62 401 l 62 574 l 135 574 l 135 972 l 736 972 q 927 942 840 972 q 1078 852 1015 913 q 1178 700 1142 792 q 1215 486 1215 609 q 1177 263 1215 356 q 1074 113 1139 171 q 922 27 1010 54 q 736 0 835 0 l 135 0 m 381 210 l 694 210 q 811 225 761 210 q 894 274 861 240 q 944 361 928 308 q 961 492 961 415 q 944 618 961 567 q 893 702 927 669 q 810 748 860 734 q 694 763 760 763 l 381 763 l 381 574 l 596 574 l 596 401 l 381 401 l 381 210 z "},"Ē":{"ha":1139,"x_min":135,"x_max":1062,"o":"m 135 0 l 135 972 l 1048 972 l 1048 766 l 381 766 l 381 594 l 780 594 l 780 399 l 381 399 l 381 206 l 1062 206 l 1062 0 l 135 0 m 353 1071 l 353 1223 l 843 1223 l 843 1071 l 353 1071 z "},"Ĕ":{"ha":1139,"x_min":135,"x_max":1062,"o":"m 135 0 l 135 972 l 1048 972 l 1048 766 l 381 766 l 381 594 l 780 594 l 780 399 l 381 399 l 381 206 l 1062 206 l 1062 0 l 135 0 m 598 1037 q 477 1047 525 1037 q 402 1083 430 1058 q 363 1150 374 1108 q 352 1256 352 1192 l 501 1256 q 506 1211 501 1228 q 523 1184 511 1194 q 553 1170 534 1174 q 598 1167 572 1167 q 643 1170 625 1167 q 673 1184 662 1174 q 690 1211 685 1194 q 694 1256 694 1228 l 844 1256 q 833 1150 844 1192 q 794 1083 822 1108 q 719 1047 766 1058 q 598 1037 672 1037 z "},"Ė":{"ha":1139,"x_min":135,"x_max":1062,"o":"m 135 0 l 135 972 l 1048 972 l 1048 766 l 381 766 l 381 594 l 780 594 l 780 399 l 381 399 l 381 206 l 1062 206 l 1062 0 l 135 0 m 565 1058 q 505 1067 514 1058 q 496 1127 496 1076 l 496 1186 q 505 1246 496 1237 q 565 1255 514 1255 l 631 1255 q 691 1246 682 1255 q 701 1186 701 1237 l 701 1127 q 691 1067 701 1076 q 631 1058 682 1058 l 565 1058 z "},"Ę":{"ha":1139,"x_min":135,"x_max":1144,"o":"m 135 0 l 135 972 l 1048 972 l 1048 766 l 381 766 l 381 594 l 780 594 l 780 399 l 381 399 l 381 206 l 1062 206 l 1062 0 l 135 0 m 945 -299 q 803 -266 860 -299 q 746 -163 746 -233 q 780 -68 746 -111 q 872 0 814 -24 l 1061 0 q 976 -30 1008 -6 q 943 -90 943 -54 q 970 -135 943 -122 q 1035 -149 997 -149 q 1090 -143 1063 -149 q 1144 -127 1118 -137 l 1113 -267 q 1033 -291 1076 -283 q 945 -299 990 -299 z "},"Ě":{"ha":1139,"x_min":135,"x_max":1062,"o":"m 135 0 l 135 972 l 1048 972 l 1048 766 l 381 766 l 381 594 l 780 594 l 780 399 l 381 399 l 381 206 l 1062 206 l 1062 0 l 135 0 m 490 1034 l 290 1250 l 509 1250 l 599 1126 l 690 1250 l 904 1250 l 703 1034 l 490 1034 z "},"Ĝ":{"ha":1248,"x_min":115,"x_max":1139,"o":"m 115 779 q 177 937 115 892 q 367 982 239 982 l 882 982 q 1073 937 1011 982 q 1135 779 1135 892 l 1135 715 l 889 665 l 889 776 q 889 776 889 776 q 889 776 889 776 l 361 776 q 361 776 361 776 q 361 776 361 776 l 361 197 q 361 197 361 197 q 361 197 361 197 l 893 197 q 893 197 893 197 q 893 197 893 197 l 893 376 l 625 376 l 625 572 l 1139 572 l 1139 201 q 1078 36 1139 83 q 886 -10 1018 -10 l 367 -10 q 175 36 235 -10 q 115 201 115 83 l 115 779 m 318 1041 l 519 1257 l 732 1257 l 933 1041 l 713 1041 l 623 1165 l 533 1041 l 318 1041 z "},"Ğ":{"ha":1248,"x_min":115,"x_max":1139,"o":"m 115 779 q 177 937 115 892 q 367 982 239 982 l 882 982 q 1073 937 1011 982 q 1135 779 1135 892 l 1135 715 l 889 665 l 889 776 q 889 776 889 776 q 889 776 889 776 l 361 776 q 361 776 361 776 q 361 776 361 776 l 361 197 q 361 197 361 197 q 361 197 361 197 l 893 197 q 893 197 893 197 q 893 197 893 197 l 893 376 l 625 376 l 625 572 l 1139 572 l 1139 201 q 1078 36 1139 83 q 886 -10 1018 -10 l 367 -10 q 175 36 235 -10 q 115 201 115 83 l 115 779 m 624 1044 q 504 1054 551 1044 q 428 1090 456 1065 q 389 1157 400 1115 q 378 1263 378 1199 l 528 1263 q 533 1218 528 1235 q 549 1191 538 1201 q 579 1177 560 1181 q 624 1174 598 1174 q 670 1177 651 1174 q 700 1191 688 1181 q 716 1218 711 1201 q 721 1263 721 1235 l 870 1263 q 859 1157 870 1199 q 820 1090 848 1115 q 745 1054 792 1065 q 624 1044 698 1044 z "},"Ġ":{"ha":1248,"x_min":115,"x_max":1139,"o":"m 115 779 q 177 937 115 892 q 367 982 239 982 l 882 982 q 1073 937 1011 982 q 1135 779 1135 892 l 1135 715 l 889 665 l 889 776 q 889 776 889 776 q 889 776 889 776 l 361 776 q 361 776 361 776 q 361 776 361 776 l 361 197 q 361 197 361 197 q 361 197 361 197 l 893 197 q 893 197 893 197 q 893 197 893 197 l 893 376 l 625 376 l 625 572 l 1139 572 l 1139 201 q 1078 36 1139 83 q 886 -10 1018 -10 l 367 -10 q 175 36 235 -10 q 115 201 115 83 l 115 779 m 592 1065 q 531 1074 540 1065 q 522 1134 522 1083 l 522 1193 q 531 1253 522 1244 q 592 1262 540 1262 l 658 1262 q 718 1253 708 1262 q 727 1193 727 1244 l 727 1134 q 718 1074 727 1083 q 658 1065 708 1065 l 592 1065 z "},"Ģ":{"ha":1248,"x_min":115,"x_max":1139,"o":"m 115 779 q 177 937 115 892 q 367 982 239 982 l 882 982 q 1073 937 1011 982 q 1135 779 1135 892 l 1135 715 l 889 665 l 889 776 q 889 776 889 776 q 889 776 889 776 l 361 776 q 361 776 361 776 q 361 776 361 776 l 361 197 q 361 197 361 197 q 361 197 361 197 l 893 197 q 893 197 893 197 q 893 197 893 197 l 893 376 l 625 376 l 625 572 l 1139 572 l 1139 201 q 1078 36 1139 83 q 886 -10 1018 -10 l 367 -10 q 175 36 235 -10 q 115 201 115 83 l 115 779 m 606 -448 l 541 -430 l 613 -283 l 592 -283 q 537 -274 546 -283 q 528 -218 528 -265 l 528 -159 q 537 -104 528 -113 q 592 -94 546 -94 l 661 -94 q 716 -104 707 -94 q 726 -159 726 -113 l 726 -218 q 724 -253 726 -239 q 716 -276 722 -267 l 606 -448 z "},"Ǧ":{"ha":1248,"x_min":115,"x_max":1139,"o":"m 115 779 q 177 937 115 892 q 367 982 239 982 l 882 982 q 1073 937 1011 982 q 1135 779 1135 892 l 1135 715 l 889 665 l 889 776 q 889 776 889 776 q 889 776 889 776 l 361 776 q 361 776 361 776 q 361 776 361 776 l 361 197 q 361 197 361 197 q 361 197 361 197 l 893 197 q 893 197 893 197 q 893 197 893 197 l 893 376 l 625 376 l 625 572 l 1139 572 l 1139 201 q 1078 36 1139 83 q 886 -10 1018 -10 l 367 -10 q 175 36 235 -10 q 115 201 115 83 l 115 779 m 516 1041 l 316 1257 l 535 1257 l 626 1133 l 716 1257 l 931 1257 l 729 1041 l 516 1041 z "},"Ĥ":{"ha":1315,"x_min":135,"x_max":1180,"o":"m 135 0 l 135 972 l 381 972 l 381 615 l 934 615 l 934 972 l 1180 972 l 1180 0 l 934 0 l 934 397 l 381 397 l 381 0 l 135 0 m 351 1034 l 552 1250 l 765 1250 l 965 1034 l 746 1034 l 656 1158 l 565 1034 l 351 1034 z "},"Ħ":{"ha":1384,"x_min":100,"x_max":1284,"o":"m 169 0 l 169 972 l 415 972 l 415 580 l 969 580 l 969 972 l 1215 972 l 1215 0 l 969 0 l 969 397 l 415 397 l 415 0 l 169 0 m 1284 642 l 100 642 l 100 816 l 1284 816 l 1284 642 z "},"Ĩ":{"ha":515,"x_min":-49,"x_max":564,"o":"m 135 0 l 135 972 l 381 972 l 381 0 l 135 0 m -49 1072 q -20 1159 -40 1123 q 26 1218 -1 1195 q 84 1252 52 1241 q 150 1263 116 1263 q 214 1255 185 1263 q 267 1237 242 1247 q 314 1219 292 1227 q 356 1211 335 1211 q 395 1222 379 1211 q 417 1263 412 1233 l 564 1238 q 535 1152 555 1188 q 490 1093 516 1116 q 432 1058 463 1069 q 365 1047 400 1047 q 302 1055 331 1047 q 248 1073 273 1063 q 202 1091 224 1083 q 160 1099 180 1099 q 120 1088 137 1099 q 98 1047 103 1076 l -49 1072 z "},"Ī":{"ha":515,"x_min":13,"x_max":503,"o":"m 135 0 l 135 972 l 381 972 l 381 0 l 135 0 m 13 1071 l 13 1223 l 503 1223 l 503 1071 l 13 1071 z "},"Ĭ":{"ha":515,"x_min":12,"x_max":503,"o":"m 135 0 l 135 972 l 381 972 l 381 0 l 135 0 m 258 1037 q 137 1047 185 1037 q 61 1083 90 1058 q 23 1150 33 1108 q 12 1256 12 1192 l 160 1256 q 166 1211 160 1228 q 182 1184 171 1194 q 212 1170 194 1174 q 258 1167 231 1167 q 303 1170 285 1167 q 333 1184 322 1174 q 349 1211 344 1194 q 353 1256 353 1228 l 503 1256 q 492 1150 503 1192 q 453 1083 481 1108 q 378 1047 426 1058 q 258 1037 331 1037 z "},"Į":{"ha":515,"x_min":8,"x_max":407,"o":"m 135 0 l 135 972 l 381 972 l 381 0 l 135 0 m 208 -299 q 65 -266 122 -299 q 8 -163 8 -233 q 42 -68 8 -111 q 135 0 76 -24 l 324 0 q 238 -30 271 -6 q 206 -90 206 -54 q 232 -135 206 -122 q 298 -149 259 -149 q 353 -143 325 -149 q 407 -127 381 -137 l 374 -267 q 295 -291 338 -283 q 208 -299 253 -299 z "},"İ":{"ha":515,"x_min":135,"x_max":381,"o":"m 135 0 l 135 972 l 381 972 l 381 0 l 135 0 m 224 1058 q 165 1067 174 1058 q 156 1127 156 1076 l 156 1186 q 165 1246 156 1237 q 224 1255 174 1255 l 291 1255 q 351 1246 342 1255 q 360 1186 360 1237 l 360 1127 q 351 1067 360 1076 q 291 1058 342 1058 l 224 1058 z "},"Ĵ":{"ha":1099,"x_min":70,"x_max":1160,"o":"m 974 972 l 974 193 q 912 35 974 80 q 722 -10 851 -10 l 324 -10 q 132 35 194 -10 q 70 193 70 80 l 70 417 l 316 467 l 316 204 q 316 204 316 204 q 316 204 316 204 l 728 204 q 728 204 728 204 q 728 204 728 204 l 728 972 l 974 972 m 545 1051 l 747 1267 l 960 1267 l 1160 1051 l 941 1051 l 851 1174 l 760 1051 l 545 1051 z "},"Ķ":{"ha":1228,"x_min":135,"x_max":1228,"o":"m 1132 972 l 635 512 l 635 524 l 1228 0 l 868 0 l 328 490 l 381 490 l 381 0 l 135 0 l 135 972 l 381 972 l 381 512 l 340 512 l 825 972 l 1132 972 m 642 -441 l 578 -423 l 649 -277 l 628 -277 q 573 -267 583 -277 q 564 -212 564 -258 l 564 -152 q 573 -97 564 -106 q 628 -87 583 -87 l 697 -87 q 753 -97 744 -87 q 763 -152 763 -106 l 763 -212 q 760 -246 763 -232 q 753 -269 758 -260 l 642 -441 z "},"Ĺ":{"ha":999,"x_min":92,"x_max":980,"o":"m 135 0 l 135 972 l 381 972 l 381 218 l 980 218 l 980 0 l 135 0 m 92 1034 l 285 1250 l 567 1250 l 322 1034 l 92 1034 z "},"Ļ":{"ha":999,"x_min":135,"x_max":980,"o":"m 135 0 l 135 972 l 381 972 l 381 218 l 980 218 l 980 0 l 135 0 m 536 -441 l 472 -423 l 543 -277 l 522 -277 q 467 -267 476 -277 q 458 -212 458 -258 l 458 -152 q 467 -97 458 -106 q 522 -87 476 -87 l 592 -87 q 647 -97 638 -87 q 656 -152 656 -106 l 656 -212 q 655 -246 656 -232 q 647 -269 653 -260 l 536 -441 z "},"Ľ":{"ha":999,"x_min":135,"x_max":980,"o":"m 135 0 l 135 972 l 381 972 l 381 218 l 980 218 l 980 0 l 135 0 m 674 745 l 709 972 l 884 972 l 838 774 l 674 745 z "},"Ŀ":{"ha":999,"x_min":135,"x_max":980,"o":"m 135 0 l 135 972 l 381 972 l 381 218 l 980 218 l 980 0 l 135 0 m 656 477 l 656 536 q 665 596 656 587 q 724 605 674 605 l 791 605 q 851 596 842 605 q 860 536 860 587 l 860 477 q 851 417 860 426 q 791 408 842 408 l 724 408 q 665 417 674 408 q 656 477 656 426 z "},"Ł":{"ha":1000,"x_min":44,"x_max":980,"o":"m 135 0 l 135 339 l 44 306 l 44 417 l 135 450 l 135 972 l 381 972 l 381 540 l 696 655 l 696 544 l 381 428 l 381 218 l 980 218 l 980 0 l 135 0 z "},"Ń":{"ha":1319,"x_min":135,"x_max":1185,"o":"m 135 0 l 135 972 l 321 972 l 957 363 l 957 972 l 1185 972 l 1185 0 l 999 0 l 363 604 l 363 0 l 135 0 m 494 1034 l 687 1250 l 969 1250 l 724 1034 l 494 1034 z "},"Ņ":{"ha":1319,"x_min":135,"x_max":1185,"o":"m 135 0 l 135 972 l 321 972 l 957 363 l 957 972 l 1185 972 l 1185 0 l 999 0 l 363 604 l 363 0 l 135 0 m 639 -441 l 574 -423 l 645 -277 l 625 -277 q 570 -267 579 -277 q 560 -212 560 -258 l 560 -152 q 570 -97 560 -106 q 625 -87 579 -87 l 694 -87 q 750 -97 740 -87 q 759 -152 759 -106 l 759 -212 q 757 -246 759 -232 q 749 -269 755 -260 l 639 -441 z "},"Ň":{"ha":1319,"x_min":135,"x_max":1185,"o":"m 135 0 l 135 972 l 321 972 l 957 363 l 957 972 l 1185 972 l 1185 0 l 999 0 l 363 604 l 363 0 l 135 0 m 551 1034 l 351 1250 l 570 1250 l 660 1126 l 751 1250 l 966 1250 l 765 1034 l 551 1034 z "},"Ō":{"ha":1298,"x_min":115,"x_max":1183,"o":"m 115 779 q 185 943 115 904 q 367 982 255 982 l 929 982 q 1113 943 1042 982 q 1183 779 1183 904 l 1183 201 q 1116 31 1183 72 q 929 -10 1049 -10 l 367 -10 q 182 31 248 -10 q 115 201 115 72 l 115 779 m 361 764 l 361 208 q 361 208 361 208 q 361 208 361 208 l 937 208 q 937 208 937 208 q 937 208 937 208 l 937 764 q 937 764 937 764 q 937 764 937 764 l 361 764 q 361 764 361 764 q 361 764 361 764 m 403 1081 l 403 1233 l 893 1233 l 893 1081 l 403 1081 z "},"Ŏ":{"ha":1298,"x_min":115,"x_max":1183,"o":"m 115 779 q 185 943 115 904 q 367 982 255 982 l 929 982 q 1113 943 1042 982 q 1183 779 1183 904 l 1183 201 q 1116 31 1183 72 q 929 -10 1049 -10 l 367 -10 q 182 31 248 -10 q 115 201 115 72 l 115 779 m 361 764 l 361 208 q 361 208 361 208 q 361 208 361 208 l 937 208 q 937 208 937 208 q 937 208 937 208 l 937 764 q 937 764 937 764 q 937 764 937 764 l 361 764 q 361 764 361 764 q 361 764 361 764 m 649 1047 q 527 1057 575 1047 q 452 1093 480 1067 q 413 1160 424 1118 q 402 1265 402 1202 l 551 1265 q 556 1221 551 1238 q 573 1194 561 1204 q 603 1180 584 1184 q 649 1176 622 1176 q 694 1180 676 1176 q 723 1194 712 1184 q 740 1221 735 1204 q 744 1265 744 1238 l 894 1265 q 883 1160 894 1202 q 844 1093 872 1118 q 769 1057 817 1067 q 649 1047 722 1047 z "},"Ő":{"ha":1298,"x_min":115,"x_max":1183,"o":"m 115 779 q 185 943 115 904 q 367 982 255 982 l 929 982 q 1113 943 1042 982 q 1183 779 1183 904 l 1183 201 q 1116 31 1183 72 q 929 -10 1049 -10 l 367 -10 q 182 31 248 -10 q 115 201 115 72 l 115 779 m 361 764 l 361 208 q 361 208 361 208 q 361 208 361 208 l 937 208 q 937 208 937 208 q 937 208 937 208 l 937 764 q 937 764 937 764 q 937 764 937 764 l 361 764 q 361 764 361 764 q 361 764 361 764 m 352 1044 l 520 1260 l 761 1260 l 549 1044 l 352 1044 m 751 1044 l 919 1260 l 1160 1260 l 947 1044 l 751 1044 z "},"Ǫ":{"ha":1298,"x_min":115,"x_max":1183,"o":"m 115 779 q 185 943 115 904 q 367 982 255 982 l 929 982 q 1113 943 1042 982 q 1183 779 1183 904 l 1183 201 q 1116 31 1183 72 q 929 -10 1049 -10 l 367 -10 q 182 31 248 -10 q 115 201 115 72 l 115 779 m 361 764 l 361 208 q 361 208 361 208 q 361 208 361 208 l 937 208 q 937 208 937 208 q 937 208 937 208 l 937 764 q 937 764 937 764 q 937 764 937 764 l 361 764 q 361 764 361 764 q 361 764 361 764 m 721 -299 q 578 -266 635 -299 q 522 -163 522 -233 q 556 -68 522 -111 q 649 0 590 -24 l 837 0 q 752 -30 784 -6 q 719 -90 719 -54 q 746 -135 719 -122 q 811 -149 772 -149 q 866 -143 839 -149 q 920 -127 894 -137 l 888 -267 q 809 -291 852 -283 q 721 -299 766 -299 z "},"Ŕ":{"ha":1193,"x_min":135,"x_max":1167,"o":"m 135 0 l 135 972 l 827 972 q 1010 933 940 972 q 1080 769 1080 894 l 1080 554 q 1024 412 1080 459 q 858 361 968 365 l 816 361 l 1167 0 l 854 0 l 519 349 l 381 349 l 381 0 l 135 0 m 381 554 l 771 554 q 820 567 803 554 q 836 615 836 581 l 836 701 q 820 748 836 733 q 771 763 803 763 l 381 763 l 381 554 m 441 1034 l 635 1250 l 917 1250 l 672 1034 l 441 1034 z "},"Ŗ":{"ha":1193,"x_min":135,"x_max":1167,"o":"m 135 0 l 135 972 l 827 972 q 1010 933 940 972 q 1080 769 1080 894 l 1080 554 q 1024 412 1080 459 q 858 361 968 365 l 816 361 l 1167 0 l 854 0 l 519 349 l 381 349 l 381 0 l 135 0 m 381 554 l 771 554 q 820 567 803 554 q 836 615 836 581 l 836 701 q 820 748 836 733 q 771 763 803 763 l 381 763 l 381 554 m 631 -441 l 566 -423 l 637 -277 l 617 -277 q 561 -267 571 -277 q 552 -212 552 -258 l 552 -152 q 561 -97 552 -106 q 617 -87 571 -87 l 685 -87 q 741 -97 732 -87 q 751 -152 751 -106 l 751 -212 q 749 -246 751 -232 q 741 -269 747 -260 l 631 -441 z "},"Ř":{"ha":1193,"x_min":135,"x_max":1167,"o":"m 135 0 l 135 972 l 827 972 q 1010 933 940 972 q 1080 769 1080 894 l 1080 554 q 1024 412 1080 459 q 858 361 968 365 l 816 361 l 1167 0 l 854 0 l 519 349 l 381 349 l 381 0 l 135 0 m 381 554 l 771 554 q 820 567 803 554 q 836 615 836 581 l 836 701 q 820 748 836 733 q 771 763 803 763 l 381 763 l 381 554 m 499 1034 l 299 1250 l 518 1250 l 608 1126 l 699 1250 l 913 1250 l 712 1034 l 499 1034 z "},"Ś":{"ha":1153,"x_min":79,"x_max":1067,"o":"m 79 262 l 313 298 l 313 188 q 313 188 313 188 q 313 188 313 188 l 832 188 q 832 188 832 188 q 832 188 832 188 l 832 392 q 832 392 832 392 q 832 392 832 392 l 351 392 q 246 401 292 392 q 167 433 199 410 q 117 498 134 456 q 100 603 100 539 l 100 780 q 118 883 100 843 q 170 944 137 922 q 250 974 203 967 q 352 982 297 982 l 801 982 q 903 974 857 982 q 983 944 950 967 q 1034 883 1016 922 q 1053 781 1053 844 l 1053 716 l 818 681 l 818 784 q 818 784 818 784 q 818 784 818 784 l 334 784 q 334 784 334 784 q 334 784 334 784 l 334 590 q 334 590 334 590 q 334 590 334 590 l 814 590 q 917 583 871 590 q 997 553 963 575 q 1048 492 1030 531 q 1067 390 1067 453 l 1067 201 q 999 30 1067 70 q 814 -10 932 -10 l 330 -10 q 225 -1 272 -10 q 146 30 178 7 q 96 94 113 53 q 79 200 79 135 l 79 262 m 407 1044 l 601 1260 l 883 1260 l 638 1044 l 407 1044 z "},"Ŝ":{"ha":1153,"x_min":79,"x_max":1067,"o":"m 79 262 l 313 298 l 313 188 q 313 188 313 188 q 313 188 313 188 l 832 188 q 832 188 832 188 q 832 188 832 188 l 832 392 q 832 392 832 392 q 832 392 832 392 l 351 392 q 246 401 292 392 q 167 433 199 410 q 117 498 134 456 q 100 603 100 539 l 100 780 q 118 883 100 843 q 170 944 137 922 q 250 974 203 967 q 352 982 297 982 l 801 982 q 903 974 857 982 q 983 944 950 967 q 1034 883 1016 922 q 1053 781 1053 844 l 1053 716 l 818 681 l 818 784 q 818 784 818 784 q 818 784 818 784 l 334 784 q 334 784 334 784 q 334 784 334 784 l 334 590 q 334 590 334 590 q 334 590 334 590 l 814 590 q 917 583 871 590 q 997 553 963 575 q 1048 492 1030 531 q 1067 390 1067 453 l 1067 201 q 999 30 1067 70 q 814 -10 932 -10 l 330 -10 q 225 -1 272 -10 q 146 30 178 7 q 96 94 113 53 q 79 200 79 135 l 79 262 m 267 1044 l 468 1260 l 681 1260 l 881 1044 l 663 1044 l 572 1167 l 481 1044 l 267 1044 z "},"Ş":{"ha":1153,"x_min":79,"x_max":1067,"o":"m 79 262 l 313 298 l 313 188 q 313 188 313 188 q 313 188 313 188 l 832 188 q 832 188 832 188 q 832 188 832 188 l 832 392 q 832 392 832 392 q 832 392 832 392 l 351 392 q 246 401 292 392 q 167 433 199 410 q 117 498 134 456 q 100 603 100 539 l 100 780 q 118 883 100 843 q 170 944 137 922 q 250 974 203 967 q 352 982 297 982 l 801 982 q 903 974 857 982 q 983 944 950 967 q 1034 883 1016 922 q 1053 781 1053 844 l 1053 716 l 818 681 l 818 784 q 818 784 818 784 q 818 784 818 784 l 334 784 q 334 784 334 784 q 334 784 334 784 l 334 590 q 334 590 334 590 q 334 590 334 590 l 814 590 q 917 583 871 590 q 997 553 963 575 q 1048 492 1030 531 q 1067 390 1067 453 l 1067 201 q 999 30 1067 70 q 814 -10 932 -10 l 330 -10 q 225 -1 272 -10 q 146 30 178 7 q 96 94 113 53 q 79 200 79 135 l 79 262 m 556 -314 q 492 -306 521 -314 q 438 -279 463 -297 l 468 -224 q 492 -233 476 -229 q 522 -236 508 -236 q 559 -225 546 -236 q 572 -194 572 -214 q 559 -164 572 -174 q 522 -154 546 -154 q 494 -157 509 -154 q 463 -165 478 -160 l 540 1 l 606 1 l 569 -78 q 669 -108 635 -80 q 703 -191 703 -137 q 664 -282 703 -249 q 556 -314 626 -314 z "},"Š":{"ha":1153,"x_min":79,"x_max":1067,"o":"m 79 262 l 313 298 l 313 188 q 313 188 313 188 q 313 188 313 188 l 832 188 q 832 188 832 188 q 832 188 832 188 l 832 392 q 832 392 832 392 q 832 392 832 392 l 351 392 q 246 401 292 392 q 167 433 199 410 q 117 498 134 456 q 100 603 100 539 l 100 780 q 118 883 100 843 q 170 944 137 922 q 250 974 203 967 q 352 982 297 982 l 801 982 q 903 974 857 982 q 983 944 950 967 q 1034 883 1016 922 q 1053 781 1053 844 l 1053 716 l 818 681 l 818 784 q 818 784 818 784 q 818 784 818 784 l 334 784 q 334 784 334 784 q 334 784 334 784 l 334 590 q 334 590 334 590 q 334 590 334 590 l 814 590 q 917 583 871 590 q 997 553 963 575 q 1048 492 1030 531 q 1067 390 1067 453 l 1067 201 q 999 30 1067 70 q 814 -10 932 -10 l 330 -10 q 225 -1 272 -10 q 146 30 178 7 q 96 94 113 53 q 79 200 79 135 l 79 262 m 465 1044 l 265 1260 l 484 1260 l 574 1136 l 665 1260 l 880 1260 l 678 1044 l 465 1044 z "},"Ţ":{"ha":1026,"x_min":20,"x_max":1006,"o":"m 390 0 l 390 754 l 20 754 l 20 972 l 1006 972 l 1006 754 l 635 754 l 635 0 l 390 0 m 496 -304 q 432 -296 460 -304 q 377 -269 403 -287 l 408 -214 q 432 -223 416 -219 q 462 -226 447 -226 q 498 -215 485 -226 q 511 -184 511 -204 q 499 -155 511 -165 q 462 -144 486 -144 q 434 -147 449 -144 q 403 -155 418 -150 l 479 10 l 547 10 l 510 -69 q 609 -99 575 -70 q 643 -181 643 -127 q 605 -272 643 -240 q 496 -304 566 -304 z "},"Ť":{"ha":1026,"x_min":20,"x_max":1006,"o":"m 390 0 l 390 754 l 20 754 l 20 972 l 1006 972 l 1006 754 l 635 754 l 635 0 l 390 0 m 404 1034 l 204 1250 l 424 1250 l 514 1126 l 604 1250 l 819 1250 l 617 1034 l 404 1034 z "},"Ŧ":{"ha":1026,"x_min":20,"x_max":1006,"o":"m 390 0 l 390 397 l 285 397 l 285 570 l 390 570 l 390 754 l 20 754 l 20 972 l 1006 972 l 1006 754 l 635 754 l 635 570 l 740 570 l 740 397 l 635 397 l 635 0 l 390 0 z "},"Ũ":{"ha":1226,"x_min":125,"x_max":1101,"o":"m 125 972 l 371 972 l 371 213 q 371 213 371 213 q 371 213 371 213 l 855 213 q 855 213 855 213 q 855 213 855 213 l 855 972 l 1101 972 l 1101 201 q 1033 30 1101 70 q 848 -10 966 -10 l 376 -10 q 272 -1 319 -10 q 192 30 225 7 q 142 94 160 53 q 125 201 125 135 l 125 972 m 307 1072 q 335 1159 316 1123 q 381 1218 355 1195 q 439 1252 408 1241 q 506 1263 471 1263 q 568 1255 540 1263 q 622 1237 597 1247 q 669 1219 647 1227 q 710 1211 691 1211 q 750 1222 734 1211 q 773 1263 767 1233 l 919 1238 q 890 1152 910 1188 q 844 1093 871 1116 q 786 1058 818 1069 q 720 1047 755 1047 q 657 1055 686 1047 q 603 1073 628 1063 q 557 1090 578 1082 q 515 1099 535 1099 q 475 1088 492 1099 q 453 1047 458 1076 l 307 1072 z "},"Ū":{"ha":1226,"x_min":125,"x_max":1101,"o":"m 125 972 l 371 972 l 371 213 q 371 213 371 213 q 371 213 371 213 l 855 213 q 855 213 855 213 q 855 213 855 213 l 855 972 l 1101 972 l 1101 201 q 1033 30 1101 70 q 848 -10 966 -10 l 376 -10 q 272 -1 319 -10 q 192 30 225 7 q 142 94 160 53 q 125 201 125 135 l 125 972 m 368 1071 l 368 1223 l 858 1223 l 858 1071 l 368 1071 z "},"Ŭ":{"ha":1226,"x_min":125,"x_max":1101,"o":"m 125 972 l 371 972 l 371 213 q 371 213 371 213 q 371 213 371 213 l 855 213 q 855 213 855 213 q 855 213 855 213 l 855 972 l 1101 972 l 1101 201 q 1033 30 1101 70 q 848 -10 966 -10 l 376 -10 q 272 -1 319 -10 q 192 30 225 7 q 142 94 160 53 q 125 201 125 135 l 125 972 m 613 1037 q 492 1047 540 1037 q 416 1083 444 1058 q 377 1150 388 1108 q 367 1256 367 1192 l 516 1256 q 521 1211 516 1228 q 537 1184 526 1194 q 567 1170 549 1174 q 613 1167 586 1167 q 658 1170 640 1167 q 688 1184 676 1174 q 704 1211 699 1194 q 709 1256 709 1228 l 858 1256 q 847 1150 858 1192 q 808 1083 836 1108 q 733 1047 781 1058 q 613 1037 686 1037 z "},"Ů":{"ha":1226,"x_min":125,"x_max":1101,"o":"m 125 972 l 371 972 l 371 213 q 371 213 371 213 q 371 213 371 213 l 855 213 q 855 213 855 213 q 855 213 855 213 l 855 972 l 1101 972 l 1101 201 q 1033 30 1101 70 q 848 -10 966 -10 l 376 -10 q 272 -1 319 -10 q 192 30 225 7 q 142 94 160 53 q 125 201 125 135 l 125 972 m 613 1020 q 528 1026 560 1020 q 478 1048 496 1032 q 454 1092 460 1063 q 448 1166 448 1120 q 454 1240 448 1212 q 478 1284 460 1268 q 528 1305 496 1299 q 613 1310 560 1310 q 698 1305 665 1310 q 748 1284 731 1299 q 772 1240 765 1268 q 778 1166 778 1212 q 772 1092 778 1120 q 748 1048 765 1063 q 698 1026 731 1032 q 613 1020 665 1020 m 613 1116 q 652 1126 643 1116 q 660 1166 660 1137 q 652 1205 660 1194 q 613 1215 643 1215 q 574 1205 582 1215 q 565 1166 565 1194 q 574 1126 565 1137 q 613 1116 582 1116 z "},"Ű":{"ha":1226,"x_min":125,"x_max":1124,"o":"m 125 972 l 371 972 l 371 213 q 371 213 371 213 q 371 213 371 213 l 855 213 q 855 213 855 213 q 855 213 855 213 l 855 972 l 1101 972 l 1101 201 q 1033 30 1101 70 q 848 -10 966 -10 l 376 -10 q 272 -1 319 -10 q 192 30 225 7 q 142 94 160 53 q 125 201 125 135 l 125 972 m 317 1034 l 485 1250 l 726 1250 l 513 1034 l 317 1034 m 715 1034 l 884 1250 l 1124 1250 l 912 1034 l 715 1034 z "},"Ų":{"ha":1226,"x_min":125,"x_max":1101,"o":"m 125 972 l 371 972 l 371 213 q 371 213 371 213 q 371 213 371 213 l 855 213 q 855 213 855 213 q 855 213 855 213 l 855 972 l 1101 972 l 1101 201 q 1033 30 1101 70 q 848 -10 966 -10 l 376 -10 q 272 -1 319 -10 q 192 30 225 7 q 142 94 160 53 q 125 201 125 135 l 125 972 m 685 -299 q 542 -266 599 -299 q 485 -163 485 -233 q 519 -68 485 -111 q 612 0 553 -24 l 801 0 q 715 -30 748 -6 q 683 -90 683 -54 q 709 -135 683 -122 q 775 -149 736 -149 q 830 -143 802 -149 q 884 -127 858 -137 l 852 -267 q 773 -291 816 -283 q 685 -299 730 -299 z "},"Ŵ":{"ha":1467,"x_min":0,"x_max":1467,"o":"m 331 0 l 0 972 l 272 972 l 455 384 l 643 972 l 841 972 l 1031 381 l 1222 972 l 1467 972 l 1133 0 l 922 0 l 731 576 l 541 0 l 331 0 m 427 1034 l 628 1250 l 841 1250 l 1042 1034 l 822 1034 l 732 1158 l 642 1034 l 427 1034 z "},"Ŷ":{"ha":1156,"x_min":0,"x_max":1156,"o":"m 465 0 l 465 420 l 0 972 l 326 972 l 596 620 l 866 972 l 1156 972 l 710 422 l 710 0 l 465 0 m 272 1034 l 473 1250 l 686 1250 l 886 1034 l 667 1034 l 576 1158 l 486 1034 l 272 1034 z "},"Ź":{"ha":1047,"x_min":55,"x_max":982,"o":"m 55 0 l 55 95 l 604 767 l 607 760 l 115 760 l 115 972 l 978 972 l 978 877 l 429 206 l 426 212 l 982 212 l 982 0 l 55 0 m 399 1034 l 592 1250 l 874 1250 l 629 1034 l 399 1034 z "},"Ż":{"ha":1047,"x_min":55,"x_max":982,"o":"m 55 0 l 55 95 l 604 767 l 607 760 l 115 760 l 115 972 l 978 972 l 978 877 l 429 206 l 426 212 l 982 212 l 982 0 l 55 0 m 532 1058 q 472 1067 481 1058 q 463 1127 463 1076 l 463 1186 q 472 1246 463 1237 q 532 1255 481 1255 l 598 1255 q 658 1246 649 1255 q 667 1186 667 1237 l 667 1127 q 658 1067 667 1076 q 598 1058 649 1058 l 532 1058 z "},"Ơ":{"ha":1298,"x_min":115,"x_max":1365,"o":"m 115 779 q 185 943 115 904 q 367 982 255 982 l 929 982 q 1113 943 1042 982 q 1183 779 1183 904 l 1183 201 q 1116 31 1183 72 q 929 -10 1049 -10 l 367 -10 q 182 31 248 -10 q 115 201 115 72 l 115 779 m 361 764 l 361 208 q 361 208 361 208 q 361 208 361 208 l 937 208 q 937 208 937 208 q 937 208 937 208 l 937 764 q 937 764 937 764 q 937 764 937 764 l 361 764 q 361 764 361 764 q 361 764 361 764 m 1097 846 l 1097 944 l 1104 944 q 1175 972 1153 944 q 1197 1063 1197 1000 q 1194 1114 1197 1086 q 1186 1174 1192 1141 l 1349 1203 q 1360 1122 1356 1160 q 1365 1051 1365 1085 q 1351 957 1365 995 q 1306 894 1337 918 q 1226 859 1275 870 q 1104 846 1176 848 l 1104 846 l 1097 846 z "},"Ư":{"ha":1226,"x_min":125,"x_max":1238,"o":"m 125 972 l 371 972 l 371 213 q 371 213 371 213 q 371 213 371 213 l 855 213 q 855 213 855 213 q 855 213 855 213 l 855 972 l 1101 972 l 1101 201 q 1033 30 1101 70 q 848 -10 966 -10 l 376 -10 q 272 -1 319 -10 q 192 30 225 7 q 142 94 160 53 q 125 201 125 135 l 125 972 m 971 874 l 971 972 l 978 972 q 1048 1000 1026 972 q 1070 1092 1070 1028 q 1068 1142 1070 1115 q 1060 1202 1065 1169 l 1222 1233 q 1234 1151 1229 1189 q 1238 1080 1238 1113 q 1224 985 1238 1024 q 1180 923 1210 947 q 1099 888 1149 899 q 978 874 1049 876 l 978 874 l 971 874 z "},"Ǆ":{"ha":2335,"x_min":135,"x_max":2270,"o":"m 381 210 l 694 210 q 811 225 761 210 q 894 274 861 240 q 944 361 928 308 q 961 492 961 415 q 944 618 961 567 q 893 702 927 669 q 810 748 860 734 q 694 763 760 763 l 381 763 l 381 210 m 135 0 l 135 972 l 736 972 q 927 942 840 972 q 1078 852 1015 913 q 1178 700 1142 792 q 1215 486 1215 609 q 1177 263 1215 356 q 1074 113 1139 171 q 922 27 1010 54 q 736 0 835 0 l 135 0 m 1342 0 l 1342 95 l 1892 767 l 1894 760 l 1403 760 l 1403 972 l 2267 972 l 2267 877 l 1717 206 l 1715 212 l 2270 212 l 2270 0 l 1342 0 m 1744 1034 l 1544 1250 l 1763 1250 l 1853 1126 l 1944 1250 l 2159 1250 l 1958 1034 l 1744 1034 z "},"Ǉ":{"ha":2099,"x_min":135,"x_max":1974,"o":"m 135 0 l 135 972 l 381 972 l 381 218 l 980 218 l 980 0 l 135 0 m 1974 972 l 1974 193 q 1912 35 1974 80 q 1722 -10 1850 -10 l 1323 -10 q 1132 35 1194 -10 q 1070 193 1070 80 l 1070 417 l 1316 467 l 1316 204 q 1316 204 1316 204 q 1316 204 1316 204 l 1728 204 q 1728 204 1728 204 q 1728 204 1728 204 l 1728 972 l 1974 972 z "},"Ǌ":{"ha":2419,"x_min":135,"x_max":2293,"o":"m 135 0 l 135 972 l 321 972 l 957 363 l 957 972 l 1185 972 l 1185 0 l 999 0 l 363 604 l 363 0 l 135 0 m 2293 972 l 2293 193 q 2232 35 2293 80 q 2042 -10 2170 -10 l 1643 -10 q 1452 35 1514 -10 q 1390 193 1390 80 l 1390 417 l 1635 467 l 1635 204 q 1635 204 1635 204 q 1635 204 1635 204 l 2048 204 q 2048 204 2048 204 q 2048 204 2048 204 l 2048 972 l 2293 972 z "},"ǅ":{"ha":2115,"x_min":135,"x_max":2065,"o":"m 381 210 l 694 210 q 811 225 761 210 q 894 274 861 240 q 944 361 928 308 q 961 492 961 415 q 944 618 961 567 q 893 702 927 669 q 810 748 860 734 q 694 763 760 763 l 381 763 l 381 210 m 135 0 l 135 972 l 736 972 q 927 942 840 972 q 1078 852 1015 913 q 1178 700 1142 792 q 1215 486 1215 609 q 1177 263 1215 356 q 1074 113 1139 171 q 922 27 1010 54 q 736 0 835 0 l 135 0 m 1338 0 l 1338 88 l 1722 531 l 1719 519 l 1380 519 l 1380 699 l 2060 699 l 2060 612 l 1675 165 l 1679 180 l 2065 180 l 2065 0 l 1338 0 m 1625 759 l 1417 1008 l 1615 1008 l 1705 872 l 1796 1008 l 1989 1008 l 1780 759 l 1625 759 z "},"ǈ":{"ha":1458,"x_min":135,"x_max":1352,"o":"m 135 0 l 135 972 l 381 972 l 381 218 l 980 218 l 980 0 l 135 0 m 766 -117 l 1117 -117 q 1117 -117 1117 -117 q 1117 -117 1117 -117 l 1117 699 l 1345 699 l 1345 -106 q 1333 -206 1345 -168 q 1295 -264 1321 -243 q 1231 -291 1269 -284 q 1138 -297 1192 -297 l 805 -297 l 766 -117 m 1110 855 l 1110 922 q 1119 978 1110 969 q 1177 987 1128 987 l 1285 987 q 1343 978 1335 987 q 1352 922 1352 969 l 1352 855 q 1343 797 1352 806 q 1285 788 1335 788 l 1177 788 q 1119 797 1128 788 q 1110 855 1110 806 z "},"ǋ":{"ha":1777,"x_min":135,"x_max":1672,"o":"m 135 0 l 135 972 l 321 972 l 957 363 l 957 972 l 1185 972 l 1185 0 l 999 0 l 363 604 l 363 0 l 135 0 m 1086 -117 l 1438 -117 q 1438 -117 1438 -117 q 1438 -117 1438 -117 l 1438 699 l 1665 699 l 1665 -106 q 1653 -206 1665 -168 q 1615 -264 1641 -243 q 1551 -291 1590 -284 q 1458 -297 1512 -297 l 1125 -297 l 1086 -117 m 1431 855 l 1431 922 q 1439 978 1431 969 q 1497 987 1448 987 l 1606 987 q 1663 978 1654 987 q 1672 922 1672 969 l 1672 855 q 1663 797 1672 806 q 1606 788 1654 788 l 1497 788 q 1439 797 1448 788 q 1431 855 1431 806 z "},"ǆ":{"ha":1849,"x_min":98,"x_max":1799,"o":"m 98 152 l 98 554 q 142 670 98 635 q 286 706 186 706 l 506 706 q 619 688 576 706 q 679 629 663 669 l 679 1010 l 908 1010 l 908 0 l 679 0 l 679 70 q 619 12 663 31 q 506 -7 576 -7 l 286 -7 q 141 30 185 -7 q 98 152 98 67 m 679 519 l 326 519 q 326 519 326 519 q 326 519 326 519 l 326 181 q 326 181 326 181 q 326 181 326 181 l 679 181 l 679 519 m 1072 0 l 1072 88 l 1457 531 l 1453 519 l 1114 519 l 1114 699 l 1795 699 l 1795 612 l 1410 165 l 1414 180 l 1799 180 l 1799 0 l 1072 0 m 1360 759 l 1152 1008 l 1349 1008 l 1440 872 l 1530 1008 l 1723 1008 l 1514 759 l 1360 759 z "},"ǉ":{"ha":916,"x_min":115,"x_max":810,"o":"m 115 0 l 115 1010 l 343 1010 l 343 0 l 115 0 m 224 -117 l 576 -117 q 576 -117 576 -117 q 576 -117 576 -117 l 576 699 l 803 699 l 803 -106 q 791 -206 803 -168 q 754 -264 779 -243 q 690 -291 728 -284 q 597 -297 651 -297 l 264 -297 l 224 -117 m 569 855 l 569 922 q 578 978 569 969 q 635 987 587 987 l 744 987 q 802 978 793 987 q 810 922 810 969 l 810 855 q 802 797 810 806 q 744 788 793 788 l 635 788 q 578 797 587 788 q 569 855 569 806 z "},"ǌ":{"ha":1444,"x_min":115,"x_max":1338,"o":"m 115 0 l 115 699 l 343 699 l 343 634 q 411 688 365 670 q 540 706 458 706 l 648 706 q 825 663 771 706 q 879 522 879 620 l 879 0 l 651 0 l 651 508 q 651 508 651 508 q 651 508 651 508 l 343 508 l 343 0 l 115 0 m 752 -117 l 1103 -117 q 1103 -117 1103 -117 q 1103 -117 1103 -117 l 1103 699 l 1331 699 l 1331 -106 q 1319 -206 1331 -168 q 1281 -264 1307 -243 q 1217 -291 1256 -284 q 1124 -297 1178 -297 l 791 -297 l 752 -117 m 1097 855 l 1097 922 q 1105 978 1097 969 q 1163 987 1114 987 l 1272 987 q 1329 978 1320 987 q 1338 922 1338 969 l 1338 855 q 1329 797 1338 806 q 1272 788 1320 788 l 1163 788 q 1105 797 1114 788 q 1097 855 1097 806 z "},"ā":{"ha":985,"x_min":91,"x_max":878,"o":"m 272 -7 q 140 23 190 -7 q 91 145 91 52 l 91 272 q 152 389 91 362 q 292 417 213 417 l 650 417 l 650 541 q 650 541 650 541 q 650 541 650 541 l 333 541 q 333 541 333 541 q 333 541 333 541 l 333 487 l 105 528 l 105 557 q 155 677 105 649 q 286 706 205 706 l 697 706 q 828 678 778 706 q 878 554 878 649 l 878 0 l 650 0 l 650 104 q 581 17 632 40 q 464 -7 531 -7 l 272 -7 m 322 149 q 322 149 322 149 q 322 149 322 149 l 650 149 l 650 269 l 322 269 q 322 269 322 269 q 322 269 322 269 l 322 149 m 251 817 l 251 951 l 740 951 l 740 817 l 251 817 z "},"ă":{"ha":985,"x_min":91,"x_max":878,"o":"m 272 -7 q 140 23 190 -7 q 91 145 91 52 l 91 272 q 152 389 91 362 q 292 417 213 417 l 650 417 l 650 541 q 650 541 650 541 q 650 541 650 541 l 333 541 q 333 541 333 541 q 333 541 333 541 l 333 487 l 105 528 l 105 557 q 155 677 105 649 q 286 706 205 706 l 697 706 q 828 678 778 706 q 878 554 878 649 l 878 0 l 650 0 l 650 104 q 581 17 632 40 q 464 -7 531 -7 l 272 -7 m 322 149 q 322 149 322 149 q 322 149 322 149 l 650 149 l 650 269 l 322 269 q 322 269 322 269 q 322 269 322 269 l 322 149 m 495 765 q 385 776 428 765 q 318 812 342 786 q 285 882 294 838 q 276 990 276 925 l 406 990 q 409 940 406 960 q 423 909 413 920 q 450 893 433 898 q 495 888 467 888 q 540 893 523 888 q 567 909 557 898 q 580 940 576 920 q 584 990 584 960 l 714 990 q 705 882 714 925 q 672 812 697 838 q 605 776 648 786 q 495 765 563 765 z "},"ą":{"ha":985,"x_min":91,"x_max":897,"o":"m 272 -7 q 140 23 190 -7 q 91 145 91 52 l 91 272 q 152 389 91 362 q 292 417 213 417 l 650 417 l 650 541 q 650 541 650 541 q 650 541 650 541 l 333 541 q 333 541 333 541 q 333 541 333 541 l 333 487 l 105 528 l 105 557 q 155 677 105 649 q 286 706 205 706 l 697 706 q 828 678 778 706 q 878 554 878 649 l 878 0 l 650 0 l 650 104 q 581 17 632 40 q 464 -7 531 -7 l 272 -7 m 322 149 q 322 149 322 149 q 322 149 322 149 l 650 149 l 650 269 l 322 269 q 322 269 322 269 q 322 269 322 269 l 322 149 m 716 -299 q 587 -266 638 -299 q 535 -163 535 -233 q 566 -68 535 -111 q 650 0 597 -24 l 822 0 q 744 -30 774 -6 q 715 -90 715 -54 q 739 -135 715 -122 q 799 -149 764 -149 q 848 -143 823 -149 q 897 -127 874 -137 l 868 -267 q 797 -291 835 -283 q 716 -299 758 -299 z "},"ć":{"ha":971,"x_min":98,"x_max":897,"o":"m 98 153 l 98 553 q 143 671 98 635 q 290 706 188 706 l 703 706 q 850 671 807 706 q 894 554 894 636 l 894 478 l 666 435 l 666 519 q 666 519 666 519 q 666 519 666 519 l 326 519 q 326 519 326 519 q 326 519 326 519 l 326 181 q 326 181 326 181 q 326 181 326 181 l 669 181 q 669 181 669 181 q 669 181 669 181 l 669 270 l 897 223 l 897 153 q 853 30 897 66 q 705 -7 810 -7 l 290 -7 q 141 30 185 -7 q 98 153 98 66 m 327 756 l 542 1006 l 779 1006 l 529 756 l 327 756 z "},"ĉ":{"ha":971,"x_min":98,"x_max":897,"o":"m 98 153 l 98 553 q 143 671 98 635 q 290 706 188 706 l 703 706 q 850 671 807 706 q 894 554 894 636 l 894 478 l 666 435 l 666 519 q 666 519 666 519 q 666 519 666 519 l 326 519 q 326 519 326 519 q 326 519 326 519 l 326 181 q 326 181 326 181 q 326 181 326 181 l 669 181 q 669 181 669 181 q 669 181 669 181 l 669 270 l 897 223 l 897 153 q 853 30 897 66 q 705 -7 810 -7 l 290 -7 q 141 30 185 -7 q 98 153 98 66 m 211 761 l 419 1010 l 574 1010 l 782 761 l 585 761 l 494 899 l 403 761 l 211 761 z "},"ċ":{"ha":971,"x_min":98,"x_max":897,"o":"m 98 153 l 98 553 q 143 671 98 635 q 290 706 188 706 l 703 706 q 850 671 807 706 q 894 554 894 636 l 894 478 l 666 435 l 666 519 q 666 519 666 519 q 666 519 666 519 l 326 519 q 326 519 326 519 q 326 519 326 519 l 326 181 q 326 181 326 181 q 326 181 326 181 l 669 181 q 669 181 669 181 q 669 181 669 181 l 669 270 l 897 223 l 897 153 q 853 30 897 66 q 705 -7 810 -7 l 290 -7 q 141 30 185 -7 q 98 153 98 66 m 464 792 q 407 800 415 792 q 398 857 398 809 l 398 915 q 407 971 398 963 q 464 979 415 979 l 528 979 q 586 971 577 979 q 595 915 595 963 l 595 857 q 586 800 595 809 q 528 792 577 792 l 464 792 z "},"č":{"ha":971,"x_min":98,"x_max":897,"o":"m 98 153 l 98 553 q 143 671 98 635 q 290 706 188 706 l 703 706 q 850 671 807 706 q 894 554 894 636 l 894 478 l 666 435 l 666 519 q 666 519 666 519 q 666 519 666 519 l 326 519 q 326 519 326 519 q 326 519 326 519 l 326 181 q 326 181 326 181 q 326 181 326 181 l 669 181 q 669 181 669 181 q 669 181 669 181 l 669 270 l 897 223 l 897 153 q 853 30 897 66 q 705 -7 810 -7 l 290 -7 q 141 30 185 -7 q 98 153 98 66 m 419 759 l 212 1008 l 409 1008 l 499 872 l 590 1008 l 783 1008 l 574 759 l 419 759 z "},"ď":{"ha":1022,"x_min":98,"x_max":1186,"o":"m 98 152 l 98 554 q 142 670 98 635 q 286 706 186 706 l 506 706 q 619 688 576 706 q 679 629 663 669 l 679 1010 l 908 1010 l 908 0 l 679 0 l 679 70 q 619 12 663 31 q 506 -7 576 -7 l 286 -7 q 141 30 185 -7 q 98 152 98 67 m 679 519 l 326 519 q 326 519 326 519 q 326 519 326 519 l 326 181 q 326 181 326 181 q 326 181 326 181 l 679 181 l 679 519 m 976 783 l 1010 1010 l 1186 1010 l 1139 813 l 976 783 z "},"đ":{"ha":1036,"x_min":98,"x_max":1019,"o":"m 286 -7 q 141 30 185 -7 q 98 152 98 67 l 98 554 q 142 670 98 635 q 286 706 186 706 l 506 706 q 619 688 576 706 q 679 629 663 669 l 679 768 l 433 768 l 433 917 l 679 917 l 679 1010 l 908 1010 l 908 917 l 1019 917 l 1019 768 l 908 768 l 908 0 l 679 0 l 679 70 q 619 12 663 31 q 506 -7 576 -7 l 286 -7 m 679 519 l 326 519 q 326 519 326 519 q 326 519 326 519 l 326 181 q 326 181 326 181 q 326 181 326 181 l 679 181 l 679 519 z "},"ē":{"ha":993,"x_min":98,"x_max":895,"o":"m 98 184 l 98 538 q 149 664 98 622 q 312 706 201 706 l 676 706 q 842 664 788 706 q 895 535 895 621 l 895 280 l 326 280 l 326 155 q 326 155 326 155 q 326 155 326 155 l 667 155 q 667 155 667 155 q 667 155 667 155 l 667 224 l 895 185 l 895 177 q 839 35 895 77 q 654 -7 783 -7 l 325 -7 q 152 37 207 -7 q 98 184 98 81 m 326 425 l 667 425 l 667 544 q 667 544 667 544 q 667 544 667 544 l 326 544 q 326 544 326 544 q 326 544 326 544 l 326 425 m 249 817 l 249 951 l 739 951 l 739 817 l 249 817 z "},"ĕ":{"ha":993,"x_min":98,"x_max":895,"o":"m 98 184 l 98 538 q 149 664 98 622 q 312 706 201 706 l 676 706 q 842 664 788 706 q 895 535 895 621 l 895 280 l 326 280 l 326 155 q 326 155 326 155 q 326 155 326 155 l 667 155 q 667 155 667 155 q 667 155 667 155 l 667 224 l 895 185 l 895 177 q 839 35 895 77 q 654 -7 783 -7 l 325 -7 q 152 37 207 -7 q 98 184 98 81 m 326 425 l 667 425 l 667 544 q 667 544 667 544 q 667 544 667 544 l 326 544 q 326 544 326 544 q 326 544 326 544 l 326 425 m 494 765 q 384 776 427 765 q 317 812 341 786 q 283 882 292 838 q 274 990 274 925 l 404 990 q 408 940 404 960 q 422 909 412 920 q 449 893 431 898 q 494 888 466 888 q 539 893 522 888 q 565 909 556 898 q 579 940 575 920 q 583 990 583 960 l 713 990 q 704 882 713 925 q 671 812 695 838 q 604 776 647 786 q 494 765 561 765 z "},"ė":{"ha":993,"x_min":98,"x_max":895,"o":"m 98 184 l 98 538 q 149 664 98 622 q 312 706 201 706 l 676 706 q 842 664 788 706 q 895 535 895 621 l 895 280 l 326 280 l 326 155 q 326 155 326 155 q 326 155 326 155 l 667 155 q 667 155 667 155 q 667 155 667 155 l 667 224 l 895 185 l 895 177 q 839 35 895 77 q 654 -7 783 -7 l 325 -7 q 152 37 207 -7 q 98 184 98 81 m 326 425 l 667 425 l 667 544 q 667 544 667 544 q 667 544 667 544 l 326 544 q 326 544 326 544 q 326 544 326 544 l 326 425 m 462 792 q 404 800 413 792 q 395 857 395 809 l 395 915 q 404 971 395 963 q 462 979 413 979 l 526 979 q 584 971 575 979 q 593 915 593 963 l 593 857 q 584 800 593 809 q 526 792 575 792 l 462 792 z "},"ę":{"ha":993,"x_min":98,"x_max":895,"o":"m 98 184 l 98 538 q 149 664 98 622 q 312 706 201 706 l 676 706 q 842 664 788 706 q 895 535 895 621 l 895 280 l 326 280 l 326 155 q 326 155 326 155 q 326 155 326 155 l 667 155 q 667 155 667 155 q 667 155 667 155 l 667 224 l 895 185 l 895 177 q 839 35 895 77 q 654 -7 783 -7 l 325 -7 q 152 37 207 -7 q 98 184 98 81 m 326 425 l 667 425 l 667 544 q 667 544 667 544 q 667 544 667 544 l 326 544 q 326 544 326 544 q 326 544 326 544 l 326 425 m 556 -299 q 426 -266 478 -299 q 375 -163 375 -233 q 406 -68 375 -111 q 490 0 436 -24 l 662 0 q 584 -30 614 -6 q 554 -90 554 -54 q 579 -135 554 -122 q 638 -149 603 -149 q 688 -143 663 -149 q 737 -127 713 -137 l 708 -267 q 636 -291 675 -283 q 556 -299 597 -299 z "},"ě":{"ha":993,"x_min":98,"x_max":895,"o":"m 98 184 l 98 538 q 149 664 98 622 q 312 706 201 706 l 676 706 q 842 664 788 706 q 895 535 895 621 l 895 280 l 326 280 l 326 155 q 326 155 326 155 q 326 155 326 155 l 667 155 q 667 155 667 155 q 667 155 667 155 l 667 224 l 895 185 l 895 177 q 839 35 895 77 q 654 -7 783 -7 l 325 -7 q 152 37 207 -7 q 98 184 98 81 m 326 425 l 667 425 l 667 544 q 667 544 667 544 q 667 544 667 544 l 326 544 q 326 544 326 544 q 326 544 326 544 l 326 425 m 417 759 l 209 1008 l 407 1008 l 497 872 l 588 1008 l 781 1008 l 572 759 l 417 759 z "},"ĝ":{"ha":1014,"x_min":98,"x_max":908,"o":"m 326 191 q 326 191 326 191 q 326 191 326 191 l 679 191 l 679 517 l 326 517 q 326 517 326 517 q 326 517 326 517 l 326 191 m 148 -297 l 110 -116 l 679 -116 q 679 -116 679 -116 q 679 -116 679 -116 l 679 80 q 619 22 663 41 q 506 3 576 3 l 286 3 q 141 40 185 3 q 98 162 98 76 l 98 552 q 142 668 98 633 q 286 704 186 704 l 506 704 q 619 685 576 704 q 679 628 663 667 l 679 699 l 908 699 l 908 -106 q 896 -202 908 -165 q 860 -261 885 -240 q 796 -290 835 -282 q 700 -297 757 -297 l 148 -297 m 235 761 l 444 1010 l 599 1010 l 806 761 l 609 761 l 519 899 l 428 761 l 235 761 z "},"ğ":{"ha":1014,"x_min":98,"x_max":908,"o":"m 326 191 q 326 191 326 191 q 326 191 326 191 l 679 191 l 679 517 l 326 517 q 326 517 326 517 q 326 517 326 517 l 326 191 m 148 -297 l 110 -116 l 679 -116 q 679 -116 679 -116 q 679 -116 679 -116 l 679 80 q 619 22 663 41 q 506 3 576 3 l 286 3 q 141 40 185 3 q 98 162 98 76 l 98 552 q 142 668 98 633 q 286 704 186 704 l 506 704 q 619 685 576 704 q 679 628 663 667 l 679 699 l 908 699 l 908 -106 q 896 -202 908 -165 q 860 -261 885 -240 q 796 -290 835 -282 q 700 -297 757 -297 l 148 -297 m 520 765 q 410 776 453 765 q 343 812 367 786 q 310 882 319 838 q 301 990 301 925 l 431 990 q 434 940 431 960 q 448 909 438 920 q 475 893 458 898 q 520 888 492 888 q 564 893 547 888 q 591 909 581 898 q 605 940 601 920 q 608 990 608 960 l 738 990 q 730 882 738 925 q 697 812 721 838 q 630 776 673 786 q 520 765 588 765 z "},"ġ":{"ha":1014,"x_min":98,"x_max":908,"o":"m 326 191 q 326 191 326 191 q 326 191 326 191 l 679 191 l 679 517 l 326 517 q 326 517 326 517 q 326 517 326 517 l 326 191 m 148 -297 l 110 -116 l 679 -116 q 679 -116 679 -116 q 679 -116 679 -116 l 679 80 q 619 22 663 41 q 506 3 576 3 l 286 3 q 141 40 185 3 q 98 162 98 76 l 98 552 q 142 668 98 633 q 286 704 186 704 l 506 704 q 619 685 576 704 q 679 628 663 667 l 679 699 l 908 699 l 908 -106 q 896 -202 908 -165 q 860 -261 885 -240 q 796 -290 835 -282 q 700 -297 757 -297 l 148 -297 m 488 792 q 431 800 440 792 q 422 857 422 809 l 422 915 q 431 971 422 963 q 488 979 440 979 l 553 979 q 610 971 601 979 q 619 915 619 963 l 619 857 q 610 800 619 809 q 553 792 601 792 l 488 792 z "},"ģ":{"ha":1014,"x_min":98,"x_max":908,"o":"m 326 191 q 326 191 326 191 q 326 191 326 191 l 679 191 l 679 517 l 326 517 q 326 517 326 517 q 326 517 326 517 l 326 191 m 148 -297 l 110 -116 l 679 -116 q 679 -116 679 -116 q 679 -116 679 -116 l 679 80 q 619 22 663 41 q 506 3 576 3 l 286 3 q 141 40 185 3 q 98 162 98 76 l 98 552 q 142 668 98 633 q 286 704 186 704 l 506 704 q 619 685 576 704 q 679 628 663 667 l 679 699 l 908 699 l 908 -106 q 896 -202 908 -165 q 860 -261 885 -240 q 796 -290 835 -282 q 700 -297 757 -297 l 148 -297 m 542 1108 l 606 1090 l 535 944 l 555 944 q 610 935 601 944 q 619 879 619 925 l 619 819 q 610 764 619 774 q 555 755 601 755 l 486 755 q 430 764 440 755 q 421 819 421 774 l 421 879 q 423 914 421 899 q 431 936 425 928 l 542 1108 z "},"ǧ":{"ha":1014,"x_min":98,"x_max":908,"o":"m 326 191 q 326 191 326 191 q 326 191 326 191 l 679 191 l 679 517 l 326 517 q 326 517 326 517 q 326 517 326 517 l 326 191 m 148 -297 l 110 -116 l 679 -116 q 679 -116 679 -116 q 679 -116 679 -116 l 679 80 q 619 22 663 41 q 506 3 576 3 l 286 3 q 141 40 185 3 q 98 162 98 76 l 98 552 q 142 668 98 633 q 286 704 186 704 l 506 704 q 619 685 576 704 q 679 628 663 667 l 679 699 l 908 699 l 908 -106 q 896 -202 908 -165 q 860 -261 885 -240 q 796 -290 835 -282 q 700 -297 757 -297 l 148 -297 m 443 759 l 235 1008 l 433 1008 l 523 872 l 614 1008 l 806 1008 l 598 759 l 443 759 z "},"ĥ":{"ha":985,"x_min":-56,"x_max":879,"o":"m 115 0 l 115 1010 l 343 1010 l 343 634 q 411 688 365 670 q 540 706 458 706 l 648 706 q 825 663 771 706 q 879 522 879 620 l 879 0 l 651 0 l 651 508 q 651 508 651 508 q 651 508 651 508 l 343 508 l 343 0 l 115 0 m -56 1058 l 152 1307 l 307 1307 l 515 1058 l 317 1058 l 227 1195 l 136 1058 l -56 1058 z "},"ħ":{"ha":1055,"x_min":80,"x_max":949,"o":"m 184 0 l 184 785 l 80 785 l 80 929 l 184 929 l 184 1010 l 413 1010 l 413 929 l 602 929 l 602 785 l 413 785 l 413 632 q 481 686 434 668 q 609 704 527 704 l 717 704 q 894 661 840 704 q 949 520 949 618 l 949 0 l 720 0 l 720 508 q 720 508 720 508 q 720 508 720 508 l 413 508 l 413 0 l 184 0 z "},"ĩ":{"ha":458,"x_min":-68,"x_max":526,"o":"m 115 0 l 115 699 l 343 699 l 343 0 l 115 0 m -68 803 q 2 945 -50 904 q 122 985 54 985 q 185 977 156 985 q 239 957 214 968 q 285 938 263 947 q 327 929 307 929 q 367 943 350 929 q 389 985 383 956 l 526 962 q 456 821 507 863 q 336 779 404 779 q 273 788 302 779 q 219 807 244 797 q 173 827 194 818 q 131 836 151 836 q 91 822 108 836 q 69 779 75 808 l -68 803 z "},"ī":{"ha":458,"x_min":-16,"x_max":474,"o":"m 115 0 l 115 699 l 343 699 l 343 0 l 115 0 m -16 817 l -16 951 l 474 951 l 474 817 l -16 817 z "},"ĭ":{"ha":458,"x_min":9,"x_max":447,"o":"m 115 0 l 115 699 l 343 699 l 343 0 l 115 0 m 229 765 q 119 776 162 765 q 52 812 76 786 q 18 882 28 838 q 9 990 9 925 l 140 990 q 143 940 140 960 q 156 909 147 920 q 183 893 166 898 q 229 888 201 888 q 273 893 256 888 q 300 909 290 898 q 314 940 310 920 q 317 990 317 960 l 447 990 q 439 882 447 925 q 406 812 430 838 q 339 776 381 786 q 229 765 297 765 z "},"į":{"ha":472,"x_min":7,"x_max":369,"o":"m 122 0 l 122 699 l 350 699 l 350 0 l 122 0 m 115 855 l 115 922 q 124 978 115 970 q 181 987 133 987 l 290 987 q 348 978 339 987 q 356 922 356 970 l 356 855 q 348 797 356 806 q 290 788 339 788 l 181 788 q 124 797 133 788 q 115 855 115 806 m 188 -299 q 58 -266 110 -299 q 7 -163 7 -233 q 38 -68 7 -111 q 122 0 68 -24 l 294 0 q 216 -30 246 -6 q 186 -90 186 -54 q 211 -135 186 -122 q 270 -149 235 -149 q 320 -143 294 -149 q 369 -127 345 -137 l 340 -267 q 268 -291 307 -283 q 188 -299 229 -299 z "},"ĵ":{"ha":464,"x_min":-231,"x_max":520,"o":"m -231 -117 l 121 -117 q 121 -117 121 -117 q 121 -117 121 -117 l 121 699 l 349 699 l 349 -106 q 336 -206 349 -168 q 299 -264 324 -243 q 234 -291 273 -284 q 142 -297 195 -297 l -192 -297 l -231 -117 m -51 761 l 158 1010 l 313 1010 l 520 761 l 323 761 l 233 899 l 142 761 l -51 761 z "},"ķ":{"ha":1038,"x_min":115,"x_max":1035,"o":"m 115 0 l 115 1010 l 343 1010 l 343 383 l 322 383 l 671 699 l 951 699 l 597 381 l 594 392 l 1035 0 l 702 0 l 312 360 l 343 360 l 343 0 l 115 0 m 460 -441 l 396 -423 l 467 -277 l 447 -277 q 391 -267 401 -277 q 382 -212 382 -258 l 382 -152 q 391 -97 382 -106 q 447 -87 401 -87 l 515 -87 q 571 -97 562 -87 q 581 -152 581 -106 l 581 -212 q 578 -246 581 -232 q 571 -269 576 -260 l 460 -441 z "},"ĸ":{"ha":1038,"x_min":115,"x_max":1035,"o":"m 115 0 l 115 699 l 343 699 l 343 394 l 671 699 l 951 699 l 603 380 l 1035 0 l 700 0 l 343 317 l 343 0 l 115 0 z "},"ĺ":{"ha":458,"x_min":59,"x_max":510,"o":"m 115 0 l 115 1010 l 343 1010 l 343 0 l 115 0 m 59 1063 l 274 1312 l 510 1312 l 260 1063 l 59 1063 z "},"ļ":{"ha":458,"x_min":115,"x_max":343,"o":"m 115 0 l 115 1010 l 343 1010 l 343 0 l 115 0 m 208 -441 l 144 -423 l 215 -277 l 194 -277 q 139 -267 149 -277 q 130 -212 130 -258 l 130 -152 q 139 -97 130 -106 q 194 -87 149 -87 l 263 -87 q 319 -97 310 -87 q 328 -152 328 -106 l 328 -212 q 326 -246 328 -232 q 319 -269 324 -260 l 208 -441 z "},"ľ":{"ha":458,"x_min":115,"x_max":622,"o":"m 115 0 l 115 1010 l 343 1010 l 343 0 l 115 0 m 411 783 l 447 1010 l 622 1010 l 575 813 l 411 783 z "},"ŀ":{"ha":458,"x_min":115,"x_max":536,"o":"m 115 0 l 115 1010 l 343 1010 l 343 0 l 115 0 m 379 460 l 379 513 q 388 570 379 562 q 442 578 396 578 l 474 578 q 528 570 519 578 q 536 513 536 562 l 536 460 q 528 402 536 411 q 474 394 519 394 l 442 394 q 388 402 396 394 q 379 460 379 411 z "},"ł":{"ha":485,"x_min":42,"x_max":444,"o":"m 128 0 l 128 384 l 42 352 l 42 463 l 128 495 l 128 1010 l 357 1010 l 357 578 l 444 610 l 444 499 l 357 467 l 357 0 l 128 0 z "},"ń":{"ha":985,"x_min":115,"x_max":879,"o":"m 115 0 l 115 699 l 343 699 l 343 634 q 411 688 365 670 q 540 706 458 706 l 648 706 q 825 663 771 706 q 879 522 879 620 l 879 0 l 651 0 l 651 508 q 651 508 651 508 q 651 508 651 508 l 343 508 l 343 0 l 115 0 m 328 763 l 542 1013 l 780 1013 l 530 763 l 328 763 z "},"ņ":{"ha":985,"x_min":115,"x_max":879,"o":"m 115 0 l 115 699 l 343 699 l 343 634 q 411 688 365 670 q 540 706 458 706 l 648 706 q 825 663 771 706 q 879 522 879 620 l 879 0 l 651 0 l 651 508 q 651 508 651 508 q 651 508 651 508 l 343 508 l 343 0 l 115 0 m 476 -441 l 412 -423 l 483 -277 l 463 -277 q 407 -267 417 -277 q 398 -212 398 -258 l 398 -152 q 407 -97 398 -106 q 463 -87 417 -87 l 531 -87 q 587 -97 578 -87 q 597 -152 597 -106 l 597 -212 q 594 -246 597 -232 q 587 -269 592 -260 l 476 -441 z "},"ň":{"ha":985,"x_min":115,"x_max":879,"o":"m 115 0 l 115 699 l 343 699 l 343 634 q 411 688 365 670 q 540 706 458 706 l 648 706 q 825 663 771 706 q 879 522 879 620 l 879 0 l 651 0 l 651 508 q 651 508 651 508 q 651 508 651 508 l 343 508 l 343 0 l 115 0 m 420 766 l 213 1015 l 410 1015 l 500 878 l 590 1015 l 783 1015 l 574 766 l 420 766 z "},"ō":{"ha":1005,"x_min":98,"x_max":907,"o":"m 98 152 l 98 554 q 142 670 98 635 q 286 706 186 706 l 719 706 q 863 670 819 706 q 907 554 907 635 l 907 152 q 864 30 907 67 q 719 -7 821 -7 l 286 -7 q 141 30 185 -7 q 98 152 98 67 m 326 181 q 326 181 326 181 q 326 181 326 181 l 678 181 q 678 181 678 181 q 678 181 678 181 l 678 519 q 678 519 678 519 q 678 519 678 519 l 326 519 q 326 519 326 519 q 326 519 326 519 l 326 181 m 258 817 l 258 951 l 747 951 l 747 817 l 258 817 z "},"ŏ":{"ha":1005,"x_min":98,"x_max":907,"o":"m 98 152 l 98 554 q 142 670 98 635 q 286 706 186 706 l 719 706 q 863 670 819 706 q 907 554 907 635 l 907 152 q 864 30 907 67 q 719 -7 821 -7 l 286 -7 q 141 30 185 -7 q 98 152 98 67 m 326 181 q 326 181 326 181 q 326 181 326 181 l 678 181 q 678 181 678 181 q 678 181 678 181 l 678 519 q 678 519 678 519 q 678 519 678 519 l 326 519 q 326 519 326 519 q 326 519 326 519 l 326 181 m 502 765 q 392 776 435 765 q 325 812 349 786 q 292 882 301 838 q 283 990 283 925 l 413 990 q 416 940 413 960 q 430 909 420 920 q 457 893 440 898 q 502 888 474 888 q 547 893 530 888 q 574 909 564 898 q 587 940 583 920 q 591 990 591 960 l 721 990 q 712 882 721 925 q 679 812 703 838 q 612 776 655 786 q 502 765 569 765 z "},"ő":{"ha":1005,"x_min":98,"x_max":952,"o":"m 98 152 l 98 554 q 142 670 98 635 q 286 706 186 706 l 719 706 q 863 670 819 706 q 907 554 907 635 l 907 152 q 864 30 907 67 q 719 -7 821 -7 l 286 -7 q 141 30 185 -7 q 98 152 98 67 m 326 181 q 326 181 326 181 q 326 181 326 181 l 678 181 q 678 181 678 181 q 678 181 678 181 l 678 519 q 678 519 678 519 q 678 519 678 519 l 326 519 q 326 519 326 519 q 326 519 326 519 l 326 181 m 238 761 l 425 1010 l 628 1010 l 411 761 l 238 761 m 563 761 l 751 1010 l 952 1010 l 735 761 l 563 761 z "},"ǫ":{"ha":1005,"x_min":98,"x_max":907,"o":"m 98 152 l 98 554 q 142 670 98 635 q 286 706 186 706 l 719 706 q 863 670 819 706 q 907 554 907 635 l 907 152 q 864 30 907 67 q 719 -7 821 -7 l 286 -7 q 141 30 185 -7 q 98 152 98 67 m 326 181 q 326 181 326 181 q 326 181 326 181 l 678 181 q 678 181 678 181 q 678 181 678 181 l 678 519 q 678 519 678 519 q 678 519 678 519 l 326 519 q 326 519 326 519 q 326 519 326 519 l 326 181 m 654 -299 q 525 -266 576 -299 q 474 -163 474 -233 q 504 -68 474 -111 q 588 0 535 -24 l 760 0 q 683 -30 713 -6 q 653 -90 653 -54 q 677 -135 653 -122 q 737 -149 702 -149 q 786 -143 761 -149 q 835 -127 812 -137 l 806 -267 q 735 -291 774 -283 q 654 -299 696 -299 z "},"ŕ":{"ha":849,"x_min":115,"x_max":811,"o":"m 115 0 l 115 699 l 343 699 l 343 634 q 411 688 365 670 q 540 706 458 706 l 580 706 q 685 696 641 706 q 757 663 728 685 q 798 606 785 641 q 811 522 811 572 l 811 465 l 583 426 l 583 508 q 583 508 583 508 q 583 508 583 508 l 343 508 l 343 0 l 115 0 m 290 763 l 504 1013 l 742 1013 l 492 763 l 290 763 z "},"ŗ":{"ha":849,"x_min":115,"x_max":811,"o":"m 115 0 l 115 699 l 343 699 l 343 634 q 411 688 365 670 q 540 706 458 706 l 580 706 q 685 696 641 706 q 757 663 728 685 q 798 606 785 641 q 811 522 811 572 l 811 465 l 583 426 l 583 508 q 583 508 583 508 q 583 508 583 508 l 343 508 l 343 0 l 115 0 m 208 -441 l 144 -423 l 215 -277 l 194 -277 q 139 -267 149 -277 q 130 -212 130 -258 l 130 -152 q 139 -97 130 -106 q 194 -87 149 -87 l 263 -87 q 319 -97 310 -87 q 328 -152 328 -106 l 328 -212 q 326 -246 328 -232 q 319 -269 324 -260 l 208 -441 z "},"ř":{"ha":849,"x_min":115,"x_max":811,"o":"m 115 0 l 115 699 l 343 699 l 343 634 q 411 688 365 670 q 540 706 458 706 l 580 706 q 685 696 641 706 q 757 663 728 685 q 798 606 785 641 q 811 522 811 572 l 811 465 l 583 426 l 583 508 q 583 508 583 508 q 583 508 583 508 l 343 508 l 343 0 l 115 0 m 382 766 l 174 1015 l 372 1015 l 462 878 l 552 1015 l 745 1015 l 536 766 l 382 766 z "},"ś":{"ha":935,"x_min":91,"x_max":844,"o":"m 91 176 l 303 215 l 303 149 q 303 149 303 149 q 303 149 303 149 l 629 149 q 629 149 629 149 q 629 149 629 149 l 629 269 q 629 269 629 269 q 629 269 629 269 l 286 269 q 152 302 201 269 q 104 429 104 335 l 104 556 q 159 677 104 647 q 296 706 215 706 l 656 706 q 785 676 737 706 q 833 563 833 647 l 833 531 l 621 493 l 621 551 q 621 551 621 551 q 621 551 621 551 l 319 551 q 319 551 319 551 q 319 551 319 551 l 319 437 q 319 437 319 437 q 319 437 319 437 l 660 437 q 793 410 743 437 q 844 290 844 383 l 844 147 q 795 22 844 51 q 660 -7 747 -7 l 273 -7 q 139 23 188 -7 q 91 142 91 52 l 91 176 m 298 756 l 513 1006 l 749 1006 l 499 756 l 298 756 z "},"ŝ":{"ha":935,"x_min":91,"x_max":844,"o":"m 91 176 l 303 215 l 303 149 q 303 149 303 149 q 303 149 303 149 l 629 149 q 629 149 629 149 q 629 149 629 149 l 629 269 q 629 269 629 269 q 629 269 629 269 l 286 269 q 152 302 201 269 q 104 429 104 335 l 104 556 q 159 677 104 647 q 296 706 215 706 l 656 706 q 785 676 737 706 q 833 563 833 647 l 833 531 l 621 493 l 621 551 q 621 551 621 551 q 621 551 621 551 l 319 551 q 319 551 319 551 q 319 551 319 551 l 319 437 q 319 437 319 437 q 319 437 319 437 l 660 437 q 793 410 743 437 q 844 290 844 383 l 844 147 q 795 22 844 51 q 660 -7 747 -7 l 273 -7 q 139 23 188 -7 q 91 142 91 52 l 91 176 m 181 761 l 390 1010 l 544 1010 l 753 761 l 555 761 l 465 899 l 374 761 l 181 761 z "},"ş":{"ha":935,"x_min":91,"x_max":844,"o":"m 91 176 l 303 215 l 303 149 q 303 149 303 149 q 303 149 303 149 l 629 149 q 629 149 629 149 q 629 149 629 149 l 629 269 q 629 269 629 269 q 629 269 629 269 l 286 269 q 152 302 201 269 q 104 429 104 335 l 104 556 q 159 677 104 647 q 296 706 215 706 l 656 706 q 785 676 737 706 q 833 563 833 647 l 833 531 l 621 493 l 621 551 q 621 551 621 551 q 621 551 621 551 l 319 551 q 319 551 319 551 q 319 551 319 551 l 319 437 q 319 437 319 437 q 319 437 319 437 l 660 437 q 793 410 743 437 q 844 290 844 383 l 844 147 q 795 22 844 51 q 660 -7 747 -7 l 273 -7 q 139 23 188 -7 q 91 142 91 52 l 91 176 m 449 -304 q 386 -296 415 -304 q 331 -269 357 -287 l 362 -214 q 386 -223 370 -219 q 415 -226 401 -226 q 452 -215 440 -226 q 465 -184 465 -204 q 453 -155 465 -165 q 416 -144 440 -144 q 388 -147 403 -144 q 358 -155 372 -150 l 433 10 l 467 10 l 500 10 l 464 -69 q 563 -99 529 -70 q 597 -181 597 -127 q 558 -272 597 -240 q 449 -304 519 -304 z "},"š":{"ha":935,"x_min":91,"x_max":844,"o":"m 91 176 l 303 215 l 303 149 q 303 149 303 149 q 303 149 303 149 l 629 149 q 629 149 629 149 q 629 149 629 149 l 629 269 q 629 269 629 269 q 629 269 629 269 l 286 269 q 152 302 201 269 q 104 429 104 335 l 104 556 q 159 677 104 647 q 296 706 215 706 l 656 706 q 785 676 737 706 q 833 563 833 647 l 833 531 l 621 493 l 621 551 q 621 551 621 551 q 621 551 621 551 l 319 551 q 319 551 319 551 q 319 551 319 551 l 319 437 q 319 437 319 437 q 319 437 319 437 l 660 437 q 793 410 743 437 q 844 290 844 383 l 844 147 q 795 22 844 51 q 660 -7 747 -7 l 273 -7 q 139 23 188 -7 q 91 142 91 52 l 91 176 m 390 759 l 182 1008 l 379 1008 l 469 872 l 560 1008 l 753 1008 l 544 759 l 390 759 z "},"ţ":{"ha":625,"x_min":46,"x_max":581,"o":"m 345 -7 q 200 29 243 -7 q 157 150 157 65 l 157 538 l 46 538 l 46 699 l 157 699 l 157 864 l 385 864 l 385 699 l 581 699 l 581 538 l 385 538 l 385 155 q 385 155 385 155 q 385 155 385 155 l 569 155 l 539 -7 l 345 -7 m 329 -311 q 266 -303 294 -311 q 210 -276 237 -294 l 241 -221 q 266 -230 250 -226 q 295 -233 281 -233 q 332 -222 319 -233 q 345 -191 345 -211 q 332 -161 345 -172 q 296 -151 319 -151 q 267 -154 283 -151 q 237 -162 252 -157 l 313 3 l 347 3 l 380 3 l 343 -76 q 443 -106 409 -77 q 476 -188 476 -134 q 438 -279 476 -247 q 329 -311 399 -311 z "},"ť":{"ha":625,"x_min":46,"x_max":664,"o":"m 345 -7 q 200 29 243 -7 q 157 150 157 65 l 157 538 l 46 538 l 46 699 l 157 699 l 157 864 l 385 864 l 385 699 l 581 699 l 581 538 l 385 538 l 385 155 q 385 155 385 155 q 385 155 385 155 l 569 155 l 539 -7 l 345 -7 m 453 745 l 489 972 l 664 972 l 617 774 l 453 745 z "},"ŧ":{"ha":625,"x_min":46,"x_max":581,"o":"m 345 -7 q 200 29 243 -7 q 157 150 157 65 l 157 328 l 73 328 l 73 463 l 157 463 l 157 538 l 46 538 l 46 699 l 157 699 l 157 864 l 385 864 l 385 699 l 581 699 l 581 538 l 385 538 l 385 463 l 533 463 l 533 328 l 385 328 l 385 155 q 385 155 385 155 q 385 155 385 155 l 569 155 l 539 -7 l 345 -7 z "},"ũ":{"ha":980,"x_min":106,"x_max":874,"o":"m 106 137 l 106 699 l 335 699 l 335 189 q 335 189 335 189 q 335 189 335 189 l 645 189 q 645 189 645 189 q 645 189 645 189 l 645 699 l 874 699 l 874 137 q 828 22 874 49 q 703 -5 783 -5 l 276 -5 q 151 22 196 -5 q 106 137 106 49 m 193 803 q 263 945 211 904 q 383 985 315 985 q 446 977 417 985 q 500 957 475 968 q 546 938 524 947 q 588 929 568 929 q 628 943 611 929 q 650 985 644 956 l 787 962 q 717 821 768 863 q 597 779 665 779 q 534 788 563 779 q 481 807 506 797 q 434 827 456 818 q 392 836 413 836 q 352 822 369 836 q 330 779 336 808 l 193 803 z "},"ū":{"ha":980,"x_min":106,"x_max":874,"o":"m 106 137 l 106 699 l 335 699 l 335 189 q 335 189 335 189 q 335 189 335 189 l 645 189 q 645 189 645 189 q 645 189 645 189 l 645 699 l 874 699 l 874 137 q 828 22 874 49 q 703 -5 783 -5 l 276 -5 q 151 22 196 -5 q 106 137 106 49 m 245 817 l 245 951 l 735 951 l 735 817 l 245 817 z "},"ŭ":{"ha":980,"x_min":106,"x_max":874,"o":"m 106 137 l 106 699 l 335 699 l 335 189 q 335 189 335 189 q 335 189 335 189 l 645 189 q 645 189 645 189 q 645 189 645 189 l 645 699 l 874 699 l 874 137 q 828 22 874 49 q 703 -5 783 -5 l 276 -5 q 151 22 196 -5 q 106 137 106 49 m 490 765 q 380 776 423 765 q 313 812 337 786 q 279 882 288 838 q 270 990 270 925 l 400 990 q 404 940 400 960 q 417 909 408 920 q 444 893 427 898 q 490 888 462 888 q 534 893 517 888 q 561 909 551 898 q 575 940 571 920 q 578 990 578 960 l 708 990 q 700 882 708 925 q 667 812 691 838 q 600 776 642 786 q 490 765 558 765 z "},"ů":{"ha":980,"x_min":106,"x_max":874,"o":"m 106 137 l 106 699 l 335 699 l 335 189 q 335 189 335 189 q 335 189 335 189 l 645 189 q 645 189 645 189 q 645 189 645 189 l 645 699 l 874 699 l 874 137 q 828 22 874 49 q 703 -5 783 -5 l 276 -5 q 151 22 196 -5 q 106 137 106 49 m 490 751 q 411 756 441 751 q 364 777 381 762 q 342 818 348 792 q 337 888 337 845 q 342 958 337 931 q 364 1000 348 985 q 411 1020 381 1015 q 490 1025 441 1025 q 569 1020 539 1025 q 615 1000 599 1015 q 638 958 632 985 q 644 888 644 931 q 638 818 644 845 q 615 777 632 792 q 569 756 599 762 q 490 751 539 751 m 490 841 q 529 851 520 841 q 538 888 538 861 q 529 925 538 915 q 490 935 520 935 q 451 925 459 935 q 442 888 442 915 q 451 851 442 861 q 490 841 459 841 z "},"ű":{"ha":980,"x_min":106,"x_max":940,"o":"m 106 137 l 106 699 l 335 699 l 335 189 q 335 189 335 189 q 335 189 335 189 l 645 189 q 645 189 645 189 q 645 189 645 189 l 645 699 l 874 699 l 874 137 q 828 22 874 49 q 703 -5 783 -5 l 276 -5 q 151 22 196 -5 q 106 137 106 49 m 226 761 l 413 1010 l 615 1010 l 399 761 l 226 761 m 551 761 l 738 1010 l 940 1010 l 724 761 l 551 761 z "},"ų":{"ha":980,"x_min":106,"x_max":874,"o":"m 106 137 l 106 699 l 335 699 l 335 189 q 335 189 335 189 q 335 189 335 189 l 645 189 q 645 189 645 189 q 645 189 645 189 l 645 699 l 874 699 l 874 137 q 828 22 874 49 q 703 -5 783 -5 l 276 -5 q 151 22 196 -5 q 106 137 106 49 m 555 -299 q 426 -266 477 -299 q 374 -163 374 -233 q 405 -68 374 -111 q 489 0 436 -24 l 661 0 q 584 -30 613 -6 q 554 -90 554 -54 q 578 -135 554 -122 q 638 -149 603 -149 q 688 -143 663 -149 q 736 -127 713 -137 l 707 -267 q 635 -291 674 -283 q 555 -299 597 -299 z "},"ŵ":{"ha":1240,"x_min":3,"x_max":1238,"o":"m 269 0 l 3 699 l 240 699 l 389 265 l 535 699 l 732 699 l 882 265 l 1030 699 l 1238 699 l 969 0 l 765 0 l 622 414 l 482 0 l 269 0 m 353 761 l 562 1010 l 716 1010 l 924 761 l 726 761 l 636 899 l 546 761 l 353 761 z "},"ŷ":{"ha":874,"x_min":3,"x_max":872,"o":"m 58 -297 l 21 -117 l 262 -117 q 262 -117 262 -117 q 262 -117 262 -117 l 335 38 l 3 699 l 260 699 l 454 292 l 646 699 l 872 699 l 466 -147 q 425 -219 446 -190 q 376 -266 403 -249 q 310 -290 348 -283 q 219 -297 272 -297 l 58 -297 m 152 761 l 360 1010 l 515 1010 l 723 761 l 526 761 l 435 899 l 344 761 l 152 761 z "},"ź":{"ha":827,"x_min":50,"x_max":777,"o":"m 50 0 l 50 88 l 435 531 l 431 519 l 92 519 l 92 699 l 773 699 l 773 612 l 388 165 l 392 180 l 777 180 l 777 0 l 50 0 m 245 756 l 460 1006 l 697 1006 l 447 756 l 245 756 z "},"ż":{"ha":827,"x_min":50,"x_max":777,"o":"m 50 0 l 50 88 l 435 531 l 431 519 l 92 519 l 92 699 l 773 699 l 773 612 l 388 165 l 392 180 l 777 180 l 777 0 l 50 0 m 382 792 q 325 800 333 792 q 316 857 316 809 l 316 915 q 325 971 316 963 q 382 979 333 979 l 447 979 q 504 971 495 979 q 513 915 513 963 l 513 857 q 504 800 513 809 q 447 792 495 792 l 382 792 z "},"ƒ":{"ha":897,"x_min":0,"x_max":897,"o":"m 0 -297 l 63 -130 l 249 -130 q 249 -130 249 -130 q 249 -130 249 -130 l 352 454 l 244 454 l 273 616 l 381 616 l 417 826 q 492 967 435 923 q 647 1010 550 1010 l 897 1010 l 835 849 l 650 849 q 650 849 650 849 q 650 849 650 849 l 608 616 l 788 616 l 760 454 l 581 454 l 481 -106 q 452 -206 471 -168 q 403 -264 433 -243 q 334 -291 374 -284 q 241 -297 294 -297 l 0 -297 z "},"ư":{"ha":980,"x_min":106,"x_max":1019,"o":"m 106 137 l 106 699 l 335 699 l 335 189 q 335 189 335 189 q 335 189 335 189 l 645 189 q 645 189 645 189 q 645 189 645 189 l 645 699 l 874 699 l 874 137 q 828 22 874 49 q 703 -5 783 -5 l 276 -5 q 151 22 196 -5 q 106 137 106 49 m 752 601 l 752 699 l 759 699 q 830 722 808 699 q 851 797 851 744 q 849 843 851 816 q 841 901 847 869 l 1003 932 q 1015 850 1011 888 q 1019 784 1019 813 q 1006 701 1019 735 q 961 645 992 667 q 881 614 931 624 q 759 601 831 603 l 752 601 z "},"ơ":{"ha":1005,"x_min":98,"x_max":1120,"o":"m 98 152 l 98 554 q 142 670 98 635 q 286 706 186 706 l 719 706 q 863 670 819 706 q 907 554 907 635 l 907 152 q 864 30 907 67 q 719 -7 821 -7 l 286 -7 q 141 30 185 -7 q 98 152 98 67 m 326 181 q 326 181 326 181 q 326 181 326 181 l 678 181 q 678 181 678 181 q 678 181 678 181 l 678 519 q 678 519 678 519 q 678 519 678 519 l 326 519 q 326 519 326 519 q 326 519 326 519 l 326 181 m 852 565 l 852 663 l 859 663 q 930 686 908 663 q 951 760 951 708 q 949 807 951 780 q 941 865 947 833 l 1103 896 q 1116 814 1112 851 q 1120 748 1120 777 q 1106 665 1120 699 q 1061 609 1092 631 q 981 577 1031 588 q 859 565 931 567 l 852 565 z "},"Ǻ":{"ha":1219,"x_min":0,"x_max":1219,"o":"m 0 0 l 500 972 l 714 972 l 1219 0 l 931 0 l 833 196 l 363 196 l 262 0 l 0 0 m 459 383 l 742 383 l 602 661 l 459 383 m 457 1151 q 464 1214 457 1189 q 488 1252 470 1238 q 535 1272 505 1267 q 610 1277 565 1277 q 686 1272 656 1277 q 733 1252 716 1266 q 757 1213 750 1238 q 764 1151 764 1188 q 757 1088 764 1113 q 733 1049 750 1063 q 686 1029 716 1035 q 610 1024 656 1024 q 535 1030 565 1024 q 488 1050 505 1035 q 464 1089 470 1064 q 457 1151 457 1113 m 563 1151 q 572 1121 563 1128 q 610 1114 581 1114 q 649 1121 640 1114 q 658 1151 658 1128 q 649 1180 658 1173 q 610 1188 640 1188 q 572 1180 581 1188 q 563 1151 563 1173 m 680 1322 l 541 1322 l 649 1483 l 833 1483 l 680 1322 z "},"Ȁ":{"ha":1219,"x_min":0,"x_max":1219,"o":"m 0 0 l 500 972 l 714 972 l 1219 0 l 931 0 l 833 196 l 363 196 l 262 0 l 0 0 m 459 383 l 742 383 l 602 661 l 459 383 m 740 1034 l 527 1250 l 768 1250 l 936 1034 l 740 1034 m 341 1034 l 128 1250 l 369 1250 l 538 1034 l 341 1034 z "},"Ȃ":{"ha":1219,"x_min":0,"x_max":1219,"o":"m 0 0 l 500 972 l 714 972 l 1219 0 l 931 0 l 833 196 l 363 196 l 262 0 l 0 0 m 459 383 l 742 383 l 602 661 l 459 383 m 365 1026 q 375 1132 365 1090 q 414 1199 386 1174 q 490 1235 442 1224 q 610 1245 538 1245 q 731 1235 684 1245 q 806 1199 778 1224 q 845 1132 834 1174 q 856 1026 856 1090 l 707 1026 q 702 1070 707 1053 q 686 1098 697 1088 q 656 1111 674 1108 q 610 1115 638 1115 q 565 1111 584 1115 q 535 1098 547 1108 q 519 1070 524 1088 q 514 1026 514 1053 l 365 1026 z "},"Ǽ":{"ha":1817,"x_min":0,"x_max":1740,"o":"m 0 0 l 577 972 l 1726 972 l 1726 766 l 1059 766 l 1059 594 l 1458 594 l 1458 399 l 1059 399 l 1059 206 l 1740 206 l 1740 0 l 813 0 l 813 196 l 390 196 l 275 0 l 0 0 m 497 383 l 813 383 l 813 763 l 719 763 l 497 383 m 847 1029 l 1062 1278 l 1299 1278 l 1049 1029 l 847 1029 z "},"Ȅ":{"ha":1139,"x_min":116,"x_max":1062,"o":"m 135 0 l 135 972 l 1048 972 l 1048 766 l 381 766 l 381 594 l 780 594 l 780 399 l 381 399 l 381 206 l 1062 206 l 1062 0 l 135 0 m 728 1034 l 515 1250 l 756 1250 l 924 1034 l 728 1034 m 329 1034 l 116 1250 l 357 1250 l 526 1034 l 329 1034 z "},"Ȇ":{"ha":1139,"x_min":135,"x_max":1062,"o":"m 135 0 l 135 972 l 1048 972 l 1048 766 l 381 766 l 381 594 l 780 594 l 780 399 l 381 399 l 381 206 l 1062 206 l 1062 0 l 135 0 m 352 1026 q 363 1132 352 1090 q 402 1199 374 1174 q 478 1235 431 1224 q 599 1245 526 1245 q 719 1235 672 1245 q 794 1199 767 1224 q 833 1132 822 1174 q 844 1026 844 1090 l 694 1026 q 690 1070 694 1053 q 674 1098 685 1088 q 644 1111 663 1108 q 599 1115 626 1115 q 553 1111 572 1115 q 523 1098 535 1108 q 507 1070 512 1088 q 501 1026 501 1053 l 352 1026 z "},"Ȉ":{"ha":515,"x_min":-224,"x_max":584,"o":"m 135 0 l 135 972 l 381 972 l 381 0 l 135 0 m 388 1034 l 174 1250 l 415 1250 l 584 1034 l 388 1034 m -12 1034 l -224 1250 l 17 1250 l 185 1034 l -12 1034 z "},"Ȋ":{"ha":515,"x_min":12,"x_max":503,"o":"m 135 0 l 135 972 l 381 972 l 381 0 l 135 0 m 12 1026 q 23 1132 12 1090 q 62 1199 34 1174 q 138 1235 90 1224 q 258 1245 185 1245 q 379 1235 331 1245 q 454 1199 426 1224 q 493 1132 482 1174 q 503 1026 503 1090 l 354 1026 q 349 1070 354 1053 q 333 1098 344 1088 q 304 1111 322 1108 q 258 1115 285 1115 q 213 1111 231 1115 q 183 1098 194 1108 q 166 1070 172 1088 q 161 1026 161 1053 l 12 1026 z "},"Ȍ":{"ha":1298,"x_min":115,"x_max":1183,"o":"m 115 779 q 185 943 115 904 q 367 982 255 982 l 929 982 q 1113 943 1042 982 q 1183 779 1183 904 l 1183 201 q 1116 31 1183 72 q 929 -10 1049 -10 l 367 -10 q 182 31 248 -10 q 115 201 115 72 l 115 779 m 361 764 l 361 208 q 361 208 361 208 q 361 208 361 208 l 937 208 q 937 208 937 208 q 937 208 937 208 l 937 764 q 937 764 937 764 q 937 764 937 764 l 361 764 q 361 764 361 764 q 361 764 361 764 m 778 1044 l 565 1260 l 806 1260 l 974 1044 l 778 1044 m 379 1044 l 166 1260 l 407 1260 l 576 1044 l 379 1044 z "},"Ȏ":{"ha":1298,"x_min":115,"x_max":1183,"o":"m 115 779 q 185 943 115 904 q 367 982 255 982 l 929 982 q 1113 943 1042 982 q 1183 779 1183 904 l 1183 201 q 1116 31 1183 72 q 929 -10 1049 -10 l 367 -10 q 182 31 248 -10 q 115 201 115 72 l 115 779 m 361 764 l 361 208 q 361 208 361 208 q 361 208 361 208 l 937 208 q 937 208 937 208 q 937 208 937 208 l 937 764 q 937 764 937 764 q 937 764 937 764 l 361 764 q 361 764 361 764 q 361 764 361 764 m 403 1036 q 414 1141 403 1099 q 452 1209 424 1183 q 528 1244 481 1234 q 649 1255 576 1255 q 769 1244 722 1255 q 844 1209 817 1234 q 883 1141 872 1183 q 894 1036 894 1099 l 745 1036 q 740 1080 745 1063 q 724 1107 735 1097 q 694 1121 713 1117 q 649 1124 676 1124 q 603 1121 622 1124 q 573 1107 585 1117 q 557 1080 562 1097 q 551 1036 551 1063 l 403 1036 z "},"Ǿ":{"ha":1456,"x_min":115,"x_max":1341,"o":"m 195 779 q 265 943 195 904 q 447 982 334 982 l 1008 982 q 1192 943 1122 982 q 1262 779 1262 904 l 1262 201 q 1195 31 1262 72 q 1008 -10 1128 -10 l 447 -10 q 261 31 327 -10 q 195 201 195 72 l 195 779 m 441 768 l 441 204 q 441 204 441 204 q 441 204 441 204 l 1016 204 q 1016 204 1016 204 q 1016 204 1016 204 l 1016 768 q 1016 768 1016 768 q 1016 768 1016 768 l 441 768 q 441 768 441 768 q 441 768 441 768 m 197 -42 l 115 53 l 1260 1014 l 1341 919 l 197 -42 m 562 1076 l 756 1292 l 1038 1292 l 792 1076 l 562 1076 z "},"Ȑ":{"ha":1193,"x_min":126,"x_max":1167,"o":"m 135 0 l 135 972 l 827 972 q 1010 933 940 972 q 1080 769 1080 894 l 1080 554 q 1024 412 1080 459 q 858 361 968 365 l 816 361 l 1167 0 l 854 0 l 519 349 l 381 349 l 381 0 l 135 0 m 381 554 l 771 554 q 820 567 803 554 q 836 615 836 581 l 836 701 q 820 748 836 733 q 771 763 803 763 l 381 763 l 381 554 m 738 1034 l 524 1250 l 765 1250 l 933 1034 l 738 1034 m 338 1034 l 126 1250 l 366 1250 l 535 1034 l 338 1034 z "},"Ȓ":{"ha":1193,"x_min":135,"x_max":1167,"o":"m 135 0 l 135 972 l 827 972 q 1010 933 940 972 q 1080 769 1080 894 l 1080 554 q 1024 412 1080 459 q 858 361 968 365 l 816 361 l 1167 0 l 854 0 l 519 349 l 381 349 l 381 0 l 135 0 m 381 554 l 771 554 q 820 567 803 554 q 836 615 836 581 l 836 701 q 820 748 836 733 q 771 763 803 763 l 381 763 l 381 554 m 362 1026 q 373 1132 362 1090 q 411 1199 383 1174 q 487 1235 440 1224 q 608 1245 535 1245 q 729 1235 681 1245 q 804 1199 776 1224 q 842 1132 831 1174 q 853 1026 853 1090 l 704 1026 q 699 1070 704 1053 q 683 1098 694 1088 q 653 1111 672 1108 q 608 1115 635 1115 q 563 1111 581 1115 q 532 1098 544 1108 q 516 1070 521 1088 q 511 1026 511 1053 l 362 1026 z "},"Ȕ":{"ha":1226,"x_min":125,"x_max":1101,"o":"m 125 972 l 371 972 l 371 213 q 371 213 371 213 q 371 213 371 213 l 855 213 q 855 213 855 213 q 855 213 855 213 l 855 972 l 1101 972 l 1101 201 q 1033 30 1101 70 q 848 -10 966 -10 l 376 -10 q 272 -1 319 -10 q 192 30 225 7 q 142 94 160 53 q 125 201 125 135 l 125 972 m 742 1034 l 530 1250 l 771 1250 l 939 1034 l 742 1034 m 344 1034 l 131 1250 l 372 1250 l 540 1034 l 344 1034 z "},"Ȗ":{"ha":1226,"x_min":125,"x_max":1101,"o":"m 125 972 l 371 972 l 371 213 q 371 213 371 213 q 371 213 371 213 l 855 213 q 855 213 855 213 q 855 213 855 213 l 855 972 l 1101 972 l 1101 201 q 1033 30 1101 70 q 848 -10 966 -10 l 376 -10 q 272 -1 319 -10 q 192 30 225 7 q 142 94 160 53 q 125 201 125 135 l 125 972 m 367 1026 q 378 1132 367 1090 q 417 1199 389 1174 q 493 1235 445 1224 q 613 1245 540 1245 q 734 1235 686 1245 q 809 1199 781 1224 q 848 1132 837 1174 q 858 1026 858 1090 l 710 1026 q 705 1070 710 1053 q 688 1098 699 1088 q 659 1111 677 1108 q 613 1115 640 1115 q 568 1111 586 1115 q 538 1098 549 1108 q 521 1070 526 1088 q 516 1026 516 1053 l 367 1026 z "},"Ș":{"ha":1153,"x_min":79,"x_max":1067,"o":"m 79 262 l 313 298 l 313 188 q 313 188 313 188 q 313 188 313 188 l 832 188 q 832 188 832 188 q 832 188 832 188 l 832 392 q 832 392 832 392 q 832 392 832 392 l 351 392 q 246 401 292 392 q 167 433 199 410 q 117 498 134 456 q 100 603 100 539 l 100 780 q 118 883 100 843 q 170 944 137 922 q 250 974 203 967 q 352 982 297 982 l 801 982 q 903 974 857 982 q 983 944 950 967 q 1034 883 1016 922 q 1053 781 1053 844 l 1053 716 l 818 681 l 818 784 q 818 784 818 784 q 818 784 818 784 l 334 784 q 334 784 334 784 q 334 784 334 784 l 334 590 q 334 590 334 590 q 334 590 334 590 l 814 590 q 917 583 871 590 q 997 553 963 575 q 1048 492 1030 531 q 1067 390 1067 453 l 1067 201 q 999 30 1067 70 q 814 -10 932 -10 l 330 -10 q 225 -1 272 -10 q 146 30 178 7 q 96 94 113 53 q 79 200 79 135 l 79 262 m 552 -451 l 488 -433 l 558 -287 l 538 -287 q 483 -277 492 -287 q 474 -222 474 -267 l 474 -162 q 483 -107 474 -116 q 538 -97 492 -97 l 607 -97 q 663 -107 653 -97 q 672 -162 672 -116 l 672 -222 q 670 -256 672 -242 q 663 -278 668 -269 l 552 -451 z "},"Ț":{"ha":1026,"x_min":20,"x_max":1006,"o":"m 390 0 l 390 754 l 20 754 l 20 972 l 1006 972 l 1006 754 l 635 754 l 635 0 l 390 0 m 492 -441 l 427 -423 l 499 -277 l 478 -277 q 423 -267 432 -277 q 413 -212 413 -258 l 413 -152 q 423 -97 413 -106 q 478 -87 432 -87 l 547 -87 q 602 -97 593 -87 q 612 -152 612 -106 l 612 -212 q 610 -246 612 -232 q 602 -269 608 -260 l 492 -441 z "},"Ȫ":{"ha":1298,"x_min":115,"x_max":1183,"o":"m 115 779 q 185 943 115 904 q 367 982 255 982 l 929 982 q 1113 943 1042 982 q 1183 779 1183 904 l 1183 201 q 1116 31 1183 72 q 929 -10 1049 -10 l 367 -10 q 182 31 248 -10 q 115 201 115 72 l 115 779 m 361 764 l 361 208 q 361 208 361 208 q 361 208 361 208 l 937 208 q 937 208 937 208 q 937 208 937 208 l 937 764 q 937 764 937 764 q 937 764 937 764 l 361 764 q 361 764 361 764 q 361 764 361 764 m 452 1057 q 394 1066 403 1057 q 385 1124 385 1074 l 385 1188 q 394 1244 385 1235 q 452 1253 403 1253 l 524 1253 q 581 1244 572 1253 q 590 1188 590 1235 l 590 1124 q 581 1066 590 1074 q 524 1057 572 1057 l 452 1057 m 773 1057 q 716 1066 724 1057 q 707 1124 707 1074 l 707 1188 q 716 1244 707 1235 q 773 1253 724 1253 l 844 1253 q 902 1244 893 1253 q 911 1188 911 1235 l 911 1124 q 902 1066 911 1074 q 844 1057 893 1057 l 773 1057 m 403 1316 l 403 1468 l 893 1468 l 893 1316 l 403 1316 z "},"Ȭ":{"ha":1298,"x_min":115,"x_max":1183,"o":"m 115 779 q 185 943 115 904 q 367 982 255 982 l 929 982 q 1113 943 1042 982 q 1183 779 1183 904 l 1183 201 q 1116 31 1183 72 q 929 -10 1049 -10 l 367 -10 q 182 31 248 -10 q 115 201 115 72 l 115 779 m 361 764 l 361 208 q 361 208 361 208 q 361 208 361 208 l 937 208 q 937 208 937 208 q 937 208 937 208 l 937 764 q 937 764 937 764 q 937 764 937 764 l 361 764 q 361 764 361 764 q 361 764 361 764 m 342 1082 q 371 1169 351 1133 q 417 1228 390 1205 q 475 1261 443 1251 q 541 1272 506 1272 q 604 1264 575 1272 q 658 1247 633 1256 q 705 1229 683 1237 q 746 1221 726 1221 q 786 1232 769 1221 q 808 1272 803 1243 l 954 1248 q 926 1162 945 1198 q 880 1102 906 1126 q 822 1068 853 1079 q 756 1056 790 1056 q 692 1065 722 1056 q 639 1082 663 1073 q 592 1100 614 1092 q 551 1108 570 1108 q 511 1097 527 1108 q 488 1057 494 1086 l 342 1082 m 403 1322 l 403 1474 l 893 1474 l 893 1322 l 403 1322 z "},"Ȱ":{"ha":1298,"x_min":115,"x_max":1183,"o":"m 115 779 q 185 943 115 904 q 367 982 255 982 l 929 982 q 1113 943 1042 982 q 1183 779 1183 904 l 1183 201 q 1116 31 1183 72 q 929 -10 1049 -10 l 367 -10 q 182 31 248 -10 q 115 201 115 72 l 115 779 m 361 764 l 361 208 q 361 208 361 208 q 361 208 361 208 l 937 208 q 937 208 937 208 q 937 208 937 208 l 937 764 q 937 764 937 764 q 937 764 937 764 l 361 764 q 361 764 361 764 q 361 764 361 764 m 615 1067 q 555 1076 565 1067 q 546 1137 546 1085 l 546 1196 q 555 1256 546 1247 q 615 1265 565 1265 l 681 1265 q 742 1256 733 1265 q 751 1196 751 1247 l 751 1137 q 742 1076 751 1085 q 681 1067 733 1067 l 615 1067 m 403 1323 l 403 1474 l 893 1474 l 893 1323 l 403 1323 z "},"Ȳ":{"ha":1156,"x_min":0,"x_max":1156,"o":"m 465 0 l 465 420 l 0 972 l 326 972 l 596 620 l 866 972 l 1156 972 l 710 422 l 710 0 l 465 0 m 333 1071 l 333 1223 l 823 1223 l 823 1071 l 333 1071 z "},"Ẁ":{"ha":1467,"x_min":0,"x_max":1467,"o":"m 331 0 l 0 972 l 272 972 l 455 384 l 643 972 l 841 972 l 1031 381 l 1222 972 l 1467 972 l 1133 0 l 922 0 l 731 576 l 541 0 l 331 0 m 669 1034 l 424 1250 l 707 1250 l 900 1034 l 669 1034 z "},"Ẃ":{"ha":1467,"x_min":0,"x_max":1467,"o":"m 331 0 l 0 972 l 272 972 l 455 384 l 643 972 l 841 972 l 1031 381 l 1222 972 l 1467 972 l 1133 0 l 922 0 l 731 576 l 541 0 l 331 0 m 567 1034 l 760 1250 l 1043 1250 l 798 1034 l 567 1034 z "},"Ẅ":{"ha":1467,"x_min":0,"x_max":1467,"o":"m 331 0 l 0 972 l 272 972 l 455 384 l 643 972 l 841 972 l 1031 381 l 1222 972 l 1467 972 l 1133 0 l 922 0 l 731 576 l 541 0 l 331 0 m 538 1047 q 480 1056 489 1047 q 471 1114 471 1065 l 471 1178 q 480 1234 471 1226 q 538 1243 489 1243 l 609 1243 q 666 1234 658 1243 q 675 1178 675 1226 l 675 1114 q 666 1056 675 1065 q 609 1047 658 1047 l 538 1047 m 858 1047 q 801 1056 810 1047 q 792 1114 792 1065 l 792 1178 q 801 1234 792 1226 q 858 1243 810 1243 l 930 1243 q 988 1234 978 1243 q 997 1178 997 1226 l 997 1114 q 988 1056 997 1065 q 930 1047 978 1047 l 858 1047 z "},"ǻ":{"ha":985,"x_min":91,"x_max":878,"o":"m 272 -7 q 140 23 190 -7 q 91 145 91 52 l 91 272 q 152 389 91 362 q 292 417 213 417 l 650 417 l 650 541 q 650 541 650 541 q 650 541 650 541 l 333 541 q 333 541 333 541 q 333 541 333 541 l 333 487 l 105 528 l 105 557 q 155 677 105 649 q 286 706 205 706 l 697 706 q 828 678 778 706 q 878 554 878 649 l 878 0 l 650 0 l 650 104 q 581 17 632 40 q 464 -7 531 -7 l 272 -7 m 322 149 q 322 149 322 149 q 322 149 322 149 l 650 149 l 650 269 l 322 269 q 322 269 322 269 q 322 269 322 269 l 322 149 m 342 878 q 349 941 342 916 q 373 980 356 965 q 420 999 390 994 q 495 1004 449 1004 q 571 999 541 1004 q 618 979 601 993 q 642 940 635 965 q 649 878 649 915 q 642 815 649 840 q 618 776 635 790 q 571 756 601 762 q 495 751 541 751 q 420 757 449 751 q 373 777 390 763 q 349 816 356 791 q 342 878 342 840 m 448 878 q 457 848 448 856 q 495 841 467 841 q 534 848 524 841 q 543 878 543 856 q 534 907 543 900 q 495 915 524 915 q 457 907 467 915 q 448 878 448 900 m 565 1049 l 426 1049 l 535 1210 l 718 1210 l 565 1049 z "},"ȁ":{"ha":985,"x_min":45,"x_max":878,"o":"m 272 -7 q 140 23 190 -7 q 91 145 91 52 l 91 272 q 152 389 91 362 q 292 417 213 417 l 650 417 l 650 541 q 650 541 650 541 q 650 541 650 541 l 333 541 q 333 541 333 541 q 333 541 333 541 l 333 487 l 105 528 l 105 557 q 155 677 105 649 q 286 706 205 706 l 697 706 q 828 678 778 706 q 878 554 878 649 l 878 0 l 650 0 l 650 104 q 581 17 632 40 q 464 -7 531 -7 l 272 -7 m 322 149 q 322 149 322 149 q 322 149 322 149 l 650 149 l 650 269 l 322 269 q 322 269 322 269 q 322 269 322 269 l 322 149 m 587 761 l 370 1010 l 573 1010 l 759 761 l 587 761 m 262 761 l 45 1010 l 247 1010 l 435 761 l 262 761 z "},"ȃ":{"ha":985,"x_min":91,"x_max":878,"o":"m 272 -7 q 140 23 190 -7 q 91 145 91 52 l 91 272 q 152 389 91 362 q 292 417 213 417 l 650 417 l 650 541 q 650 541 650 541 q 650 541 650 541 l 333 541 q 333 541 333 541 q 333 541 333 541 l 333 487 l 105 528 l 105 557 q 155 677 105 649 q 286 706 205 706 l 697 706 q 828 678 778 706 q 878 554 878 649 l 878 0 l 650 0 l 650 104 q 581 17 632 40 q 464 -7 531 -7 l 272 -7 m 322 149 q 322 149 322 149 q 322 149 322 149 l 650 149 l 650 269 l 322 269 q 322 269 322 269 q 322 269 322 269 l 322 149 m 276 765 q 285 874 276 831 q 319 942 294 917 q 386 979 343 968 q 496 990 428 990 q 606 979 563 990 q 673 942 649 968 q 706 874 697 917 q 715 765 715 831 l 585 765 q 581 815 585 796 q 567 846 577 835 q 541 861 558 857 q 496 866 524 866 q 451 861 468 866 q 424 846 433 857 q 410 815 414 835 q 406 765 406 796 l 276 765 z "},"ǽ":{"ha":1495,"x_min":91,"x_max":1397,"o":"m 269 -7 q 194 -1 226 -7 q 138 22 161 6 q 103 66 115 38 q 91 140 91 95 l 91 285 q 104 358 91 331 q 140 401 117 386 q 196 422 164 416 q 269 427 228 427 l 630 427 l 630 544 q 630 544 630 544 q 630 544 630 544 l 330 544 q 330 544 330 544 q 330 544 330 544 l 330 487 l 103 524 l 103 557 q 116 630 103 601 q 153 675 129 658 q 209 699 176 692 q 281 706 242 706 l 627 706 q 725 691 683 706 q 789 644 767 676 q 859 692 813 678 q 965 706 906 706 l 1219 706 q 1292 700 1259 706 q 1348 679 1324 694 q 1384 636 1371 663 q 1397 564 1397 608 l 1397 279 l 858 279 l 858 155 q 858 155 858 155 q 858 155 858 155 l 1165 155 q 1165 155 1165 155 q 1165 155 1165 155 l 1165 221 l 1392 183 l 1392 149 q 1380 73 1392 103 q 1345 25 1367 43 q 1290 0 1322 8 q 1215 -7 1257 -7 l 869 -7 q 770 9 813 -7 q 704 58 727 24 q 640 9 682 24 q 542 -7 599 -7 l 269 -7 m 319 155 l 630 155 q 630 155 630 155 q 630 155 630 155 l 630 278 l 319 278 q 319 278 319 278 q 319 278 319 278 l 319 155 q 319 155 319 155 q 319 155 319 155 m 858 428 l 1169 428 l 1169 544 q 1169 544 1169 544 q 1169 544 1169 544 l 858 544 q 858 544 858 544 q 858 544 858 544 l 858 428 m 589 756 l 803 1006 l 1040 1006 l 791 756 l 589 756 z "},"ȅ":{"ha":993,"x_min":44,"x_max":895,"o":"m 98 184 l 98 538 q 149 664 98 622 q 312 706 201 706 l 676 706 q 842 664 788 706 q 895 535 895 621 l 895 280 l 326 280 l 326 155 q 326 155 326 155 q 326 155 326 155 l 667 155 q 667 155 667 155 q 667 155 667 155 l 667 224 l 895 185 l 895 177 q 839 35 895 77 q 654 -7 783 -7 l 325 -7 q 152 37 207 -7 q 98 184 98 81 m 326 425 l 667 425 l 667 544 q 667 544 667 544 q 667 544 667 544 l 326 544 q 326 544 326 544 q 326 544 326 544 l 326 425 m 585 761 l 369 1010 l 572 1010 l 758 761 l 585 761 m 261 761 l 44 1010 l 246 1010 l 433 761 l 261 761 z "},"ȇ":{"ha":993,"x_min":98,"x_max":895,"o":"m 98 184 l 98 538 q 149 664 98 622 q 312 706 201 706 l 676 706 q 842 664 788 706 q 895 535 895 621 l 895 280 l 326 280 l 326 155 q 326 155 326 155 q 326 155 326 155 l 667 155 q 667 155 667 155 q 667 155 667 155 l 667 224 l 895 185 l 895 177 q 839 35 895 77 q 654 -7 783 -7 l 325 -7 q 152 37 207 -7 q 98 184 98 81 m 326 425 l 667 425 l 667 544 q 667 544 667 544 q 667 544 667 544 l 326 544 q 326 544 326 544 q 326 544 326 544 l 326 425 m 275 765 q 284 874 275 831 q 317 942 293 917 q 385 979 342 968 q 495 990 428 990 q 605 979 562 990 q 672 942 647 968 q 705 874 696 917 q 713 765 713 831 l 583 765 q 580 815 583 796 q 566 846 576 835 q 539 861 556 857 q 495 866 522 866 q 449 861 467 866 q 422 846 432 857 q 409 815 413 835 q 405 765 405 796 l 275 765 z "},"ȉ":{"ha":458,"x_min":-221,"x_max":493,"o":"m 115 0 l 115 699 l 343 699 l 343 0 l 115 0 m 321 761 l 103 1010 l 306 1010 l 493 761 l 321 761 m -4 761 l -221 1010 l -19 1010 l 168 761 l -4 761 z "},"ȋ":{"ha":458,"x_min":10,"x_max":448,"o":"m 115 0 l 115 699 l 343 699 l 343 0 l 115 0 m 10 765 q 19 874 10 831 q 52 942 28 917 q 119 979 76 968 q 230 990 163 990 q 340 979 297 990 q 406 942 382 968 q 439 874 431 917 q 448 765 448 831 l 318 765 q 314 815 318 796 q 301 846 310 835 q 274 861 291 857 q 230 866 257 866 q 184 861 201 866 q 157 846 167 857 q 144 815 147 835 q 140 765 140 796 l 10 765 z "},"ǿ":{"ha":1094,"x_min":98,"x_max":997,"o":"m 142 152 l 142 554 q 186 670 142 635 q 330 706 230 706 l 763 706 q 907 670 863 706 q 951 554 951 635 l 951 152 q 908 30 951 67 q 763 -7 865 -7 l 330 -7 q 185 30 229 -7 q 142 152 142 67 m 366 175 q 366 175 366 175 q 366 175 366 175 l 726 175 q 726 175 726 175 q 726 175 726 175 l 726 521 q 726 521 726 521 q 726 521 726 521 l 366 521 q 366 521 366 521 q 366 521 366 521 l 366 175 m 171 -42 l 98 44 l 253 176 l 289 201 l 735 583 l 767 601 l 924 736 l 997 651 l 838 515 l 806 497 l 358 113 l 322 87 l 171 -42 m 378 756 l 593 1006 l 830 1006 l 580 756 l 378 756 z "},"ȍ":{"ha":1005,"x_min":52,"x_max":907,"o":"m 98 152 l 98 554 q 142 670 98 635 q 286 706 186 706 l 719 706 q 863 670 819 706 q 907 554 907 635 l 907 152 q 864 30 907 67 q 719 -7 821 -7 l 286 -7 q 141 30 185 -7 q 98 152 98 67 m 326 181 q 326 181 326 181 q 326 181 326 181 l 678 181 q 678 181 678 181 q 678 181 678 181 l 678 519 q 678 519 678 519 q 678 519 678 519 l 326 519 q 326 519 326 519 q 326 519 326 519 l 326 181 m 594 761 l 377 1010 l 580 1010 l 766 761 l 594 761 m 269 761 l 52 1010 l 254 1010 l 442 761 l 269 761 z "},"ȏ":{"ha":1005,"x_min":98,"x_max":907,"o":"m 98 152 l 98 554 q 142 670 98 635 q 286 706 186 706 l 719 706 q 863 670 819 706 q 907 554 907 635 l 907 152 q 864 30 907 67 q 719 -7 821 -7 l 286 -7 q 141 30 185 -7 q 98 152 98 67 m 326 181 q 326 181 326 181 q 326 181 326 181 l 678 181 q 678 181 678 181 q 678 181 678 181 l 678 519 q 678 519 678 519 q 678 519 678 519 l 326 519 q 326 519 326 519 q 326 519 326 519 l 326 181 m 283 765 q 292 874 283 831 q 326 942 301 917 q 393 979 350 968 q 503 990 435 990 q 613 979 570 990 q 680 942 656 968 q 713 874 704 917 q 722 765 722 831 l 592 765 q 588 815 592 796 q 574 846 584 835 q 548 861 565 857 q 503 866 531 866 q 458 861 475 866 q 431 846 440 857 q 417 815 421 835 q 413 765 413 796 l 283 765 z "},"ȑ":{"ha":849,"x_min":9,"x_max":811,"o":"m 115 0 l 115 699 l 343 699 l 343 634 q 411 688 365 670 q 540 706 458 706 l 580 706 q 685 696 641 706 q 757 663 728 685 q 798 606 785 641 q 811 522 811 572 l 811 465 l 583 426 l 583 508 q 583 508 583 508 q 583 508 583 508 l 343 508 l 343 0 l 115 0 m 551 768 l 334 1017 l 536 1017 l 723 768 l 551 768 m 226 768 l 9 1017 l 211 1017 l 398 768 l 226 768 z "},"ȓ":{"ha":849,"x_min":115,"x_max":811,"o":"m 115 0 l 115 699 l 343 699 l 343 634 q 411 688 365 670 q 540 706 458 706 l 580 706 q 685 696 641 706 q 757 663 728 685 q 798 606 785 641 q 811 522 811 572 l 811 465 l 583 426 l 583 508 q 583 508 583 508 q 583 508 583 508 l 343 508 l 343 0 l 115 0 m 240 772 q 249 881 240 838 q 282 949 258 924 q 349 986 306 975 q 460 997 392 997 q 569 986 527 997 q 636 949 612 975 q 669 881 660 924 q 678 772 678 838 l 548 772 q 544 822 548 803 q 531 853 541 842 q 504 868 521 864 q 460 873 487 873 q 415 868 432 873 q 387 853 397 864 q 374 822 377 842 q 370 772 370 803 l 240 772 z "},"ȕ":{"ha":980,"x_min":40,"x_max":874,"o":"m 106 137 l 106 699 l 335 699 l 335 189 q 335 189 335 189 q 335 189 335 189 l 645 189 q 645 189 645 189 q 645 189 645 189 l 645 699 l 874 699 l 874 137 q 828 22 874 49 q 703 -5 783 -5 l 276 -5 q 151 22 196 -5 q 106 137 106 49 m 581 761 l 365 1010 l 567 1010 l 754 761 l 581 761 m 257 761 l 40 1010 l 242 1010 l 429 761 l 257 761 z "}}}
